%TF.GenerationSoftware,KiCad,Pcbnew,(5.1.6)-1*%
%TF.CreationDate,2022-12-12T11:34:02-08:00*%
%TF.ProjectId,Buggly SPD Aux,42756767-6c79-4205-9350-44204175782e,rev?*%
%TF.SameCoordinates,Original*%
%TF.FileFunction,Legend,Top*%
%TF.FilePolarity,Positive*%
%FSLAX46Y46*%
G04 Gerber Fmt 4.6, Leading zero omitted, Abs format (unit mm)*
G04 Created by KiCad (PCBNEW (5.1.6)-1) date 2022-12-12 11:34:02*
%MOMM*%
%LPD*%
G01*
G04 APERTURE LIST*
%ADD10C,0.150000*%
%ADD11C,0.177800*%
%ADD12C,0.120000*%
G04 APERTURE END LIST*
D10*
X148037704Y-122102571D02*
X148371038Y-122102571D01*
X148513895Y-122626380D02*
X148037704Y-122626380D01*
X148037704Y-121626380D01*
X148513895Y-121626380D01*
X149513895Y-122531142D02*
X149466276Y-122578761D01*
X149323419Y-122626380D01*
X149228180Y-122626380D01*
X149085323Y-122578761D01*
X148990085Y-122483523D01*
X148942466Y-122388285D01*
X148894847Y-122197809D01*
X148894847Y-122054952D01*
X148942466Y-121864476D01*
X148990085Y-121769238D01*
X149085323Y-121674000D01*
X149228180Y-121626380D01*
X149323419Y-121626380D01*
X149466276Y-121674000D01*
X149513895Y-121721619D01*
X149942466Y-121626380D02*
X149942466Y-122435904D01*
X149990085Y-122531142D01*
X150037704Y-122578761D01*
X150132942Y-122626380D01*
X150323419Y-122626380D01*
X150418657Y-122578761D01*
X150466276Y-122531142D01*
X150513895Y-122435904D01*
X150513895Y-121626380D01*
X153757571Y-122451761D02*
X153900428Y-122499380D01*
X154138523Y-122499380D01*
X154233761Y-122451761D01*
X154281380Y-122404142D01*
X154329000Y-122308904D01*
X154329000Y-122213666D01*
X154281380Y-122118428D01*
X154233761Y-122070809D01*
X154138523Y-122023190D01*
X153948047Y-121975571D01*
X153852809Y-121927952D01*
X153805190Y-121880333D01*
X153757571Y-121785095D01*
X153757571Y-121689857D01*
X153805190Y-121594619D01*
X153852809Y-121547000D01*
X153948047Y-121499380D01*
X154186142Y-121499380D01*
X154329000Y-121547000D01*
X154757571Y-121832714D02*
X154757571Y-122832714D01*
X154757571Y-121880333D02*
X154852809Y-121832714D01*
X155043285Y-121832714D01*
X155138523Y-121880333D01*
X155186142Y-121927952D01*
X155233761Y-122023190D01*
X155233761Y-122308904D01*
X155186142Y-122404142D01*
X155138523Y-122451761D01*
X155043285Y-122499380D01*
X154852809Y-122499380D01*
X154757571Y-122451761D01*
X155662333Y-122499380D02*
X155662333Y-121832714D01*
X155662333Y-122023190D02*
X155709952Y-121927952D01*
X155757571Y-121880333D01*
X155852809Y-121832714D01*
X155948047Y-121832714D01*
X156281380Y-122499380D02*
X156281380Y-121499380D01*
X156281380Y-121975571D02*
X156852809Y-121975571D01*
X156852809Y-122499380D02*
X156852809Y-121499380D01*
X157900428Y-122404142D02*
X157852809Y-122451761D01*
X157709952Y-122499380D01*
X157614714Y-122499380D01*
X157471857Y-122451761D01*
X157376619Y-122356523D01*
X157329000Y-122261285D01*
X157281380Y-122070809D01*
X157281380Y-121927952D01*
X157329000Y-121737476D01*
X157376619Y-121642238D01*
X157471857Y-121547000D01*
X157614714Y-121499380D01*
X157709952Y-121499380D01*
X157852809Y-121547000D01*
X157900428Y-121594619D01*
X161163142Y-122499380D02*
X161163142Y-121499380D01*
X162067904Y-122499380D02*
X162067904Y-121499380D01*
X162067904Y-122451761D02*
X161972666Y-122499380D01*
X161782190Y-122499380D01*
X161686952Y-122451761D01*
X161639333Y-122404142D01*
X161591714Y-122308904D01*
X161591714Y-122023190D01*
X161639333Y-121927952D01*
X161686952Y-121880333D01*
X161782190Y-121832714D01*
X161972666Y-121832714D01*
X162067904Y-121880333D01*
X162686952Y-122499380D02*
X162591714Y-122451761D01*
X162544095Y-122356523D01*
X162544095Y-121499380D01*
X163448857Y-122451761D02*
X163353619Y-122499380D01*
X163163142Y-122499380D01*
X163067904Y-122451761D01*
X163020285Y-122356523D01*
X163020285Y-121975571D01*
X163067904Y-121880333D01*
X163163142Y-121832714D01*
X163353619Y-121832714D01*
X163448857Y-121880333D01*
X163496476Y-121975571D01*
X163496476Y-122070809D01*
X163020285Y-122166047D01*
X167692533Y-122473980D02*
X167692533Y-121473980D01*
X168168723Y-121807314D02*
X168168723Y-122473980D01*
X168168723Y-121902552D02*
X168216342Y-121854933D01*
X168311580Y-121807314D01*
X168454438Y-121807314D01*
X168549676Y-121854933D01*
X168597295Y-121950171D01*
X168597295Y-122473980D01*
X169073485Y-121807314D02*
X169073485Y-122664457D01*
X169025866Y-122759695D01*
X168930628Y-122807314D01*
X168883009Y-122807314D01*
X169073485Y-121473980D02*
X169025866Y-121521600D01*
X169073485Y-121569219D01*
X169121104Y-121521600D01*
X169073485Y-121473980D01*
X169073485Y-121569219D01*
X169502057Y-121569219D02*
X169549676Y-121521600D01*
X169644914Y-121473980D01*
X169883009Y-121473980D01*
X169978247Y-121521600D01*
X170025866Y-121569219D01*
X170073485Y-121664457D01*
X170073485Y-121759695D01*
X170025866Y-121902552D01*
X169454438Y-122473980D01*
X170073485Y-122473980D01*
X174372733Y-122372380D02*
X174372733Y-121372380D01*
X174848923Y-121705714D02*
X174848923Y-122372380D01*
X174848923Y-121800952D02*
X174896542Y-121753333D01*
X174991780Y-121705714D01*
X175134638Y-121705714D01*
X175229876Y-121753333D01*
X175277495Y-121848571D01*
X175277495Y-122372380D01*
X175753685Y-121705714D02*
X175753685Y-122562857D01*
X175706066Y-122658095D01*
X175610828Y-122705714D01*
X175563209Y-122705714D01*
X175753685Y-121372380D02*
X175706066Y-121420000D01*
X175753685Y-121467619D01*
X175801304Y-121420000D01*
X175753685Y-121372380D01*
X175753685Y-121467619D01*
X176753685Y-122372380D02*
X176182257Y-122372380D01*
X176467971Y-122372380D02*
X176467971Y-121372380D01*
X176372733Y-121515238D01*
X176277495Y-121610476D01*
X176182257Y-121658095D01*
X181041847Y-122397780D02*
X181041847Y-121397780D01*
X181946609Y-121731114D02*
X181946609Y-122540638D01*
X181898990Y-122635876D01*
X181851371Y-122683495D01*
X181756133Y-122731114D01*
X181613276Y-122731114D01*
X181518038Y-122683495D01*
X181946609Y-122350161D02*
X181851371Y-122397780D01*
X181660895Y-122397780D01*
X181565657Y-122350161D01*
X181518038Y-122302542D01*
X181470419Y-122207304D01*
X181470419Y-121921590D01*
X181518038Y-121826352D01*
X181565657Y-121778733D01*
X181660895Y-121731114D01*
X181851371Y-121731114D01*
X181946609Y-121778733D01*
X182422800Y-121731114D02*
X182422800Y-122397780D01*
X182422800Y-121826352D02*
X182470419Y-121778733D01*
X182565657Y-121731114D01*
X182708514Y-121731114D01*
X182803752Y-121778733D01*
X182851371Y-121873971D01*
X182851371Y-122397780D01*
X183279942Y-121493019D02*
X183327561Y-121445400D01*
X183422800Y-121397780D01*
X183660895Y-121397780D01*
X183756133Y-121445400D01*
X183803752Y-121493019D01*
X183851371Y-121588257D01*
X183851371Y-121683495D01*
X183803752Y-121826352D01*
X183232323Y-122397780D01*
X183851371Y-122397780D01*
X187747447Y-122397780D02*
X187747447Y-121397780D01*
X188652209Y-121731114D02*
X188652209Y-122540638D01*
X188604590Y-122635876D01*
X188556971Y-122683495D01*
X188461733Y-122731114D01*
X188318876Y-122731114D01*
X188223638Y-122683495D01*
X188652209Y-122350161D02*
X188556971Y-122397780D01*
X188366495Y-122397780D01*
X188271257Y-122350161D01*
X188223638Y-122302542D01*
X188176019Y-122207304D01*
X188176019Y-121921590D01*
X188223638Y-121826352D01*
X188271257Y-121778733D01*
X188366495Y-121731114D01*
X188556971Y-121731114D01*
X188652209Y-121778733D01*
X189128400Y-121731114D02*
X189128400Y-122397780D01*
X189128400Y-121826352D02*
X189176019Y-121778733D01*
X189271257Y-121731114D01*
X189414114Y-121731114D01*
X189509352Y-121778733D01*
X189556971Y-121873971D01*
X189556971Y-122397780D01*
X190556971Y-122397780D02*
X189985542Y-122397780D01*
X190271257Y-122397780D02*
X190271257Y-121397780D01*
X190176019Y-121540638D01*
X190080780Y-121635876D01*
X189985542Y-121683495D01*
X193808552Y-121372380D02*
X194379980Y-121372380D01*
X194094266Y-122372380D02*
X194094266Y-121372380D01*
X195141885Y-122372380D02*
X195141885Y-121848571D01*
X195094266Y-121753333D01*
X194999028Y-121705714D01*
X194808552Y-121705714D01*
X194713314Y-121753333D01*
X195141885Y-122324761D02*
X195046647Y-122372380D01*
X194808552Y-122372380D01*
X194713314Y-122324761D01*
X194665695Y-122229523D01*
X194665695Y-122134285D01*
X194713314Y-122039047D01*
X194808552Y-121991428D01*
X195046647Y-121991428D01*
X195141885Y-121943809D01*
X196046647Y-122324761D02*
X195951409Y-122372380D01*
X195760933Y-122372380D01*
X195665695Y-122324761D01*
X195618076Y-122277142D01*
X195570457Y-122181904D01*
X195570457Y-121896190D01*
X195618076Y-121800952D01*
X195665695Y-121753333D01*
X195760933Y-121705714D01*
X195951409Y-121705714D01*
X196046647Y-121753333D01*
X196475219Y-122372380D02*
X196475219Y-121372380D01*
X196903790Y-122372380D02*
X196903790Y-121848571D01*
X196856171Y-121753333D01*
X196760933Y-121705714D01*
X196618076Y-121705714D01*
X196522838Y-121753333D01*
X196475219Y-121800952D01*
X200715714Y-122137466D02*
X201191904Y-122137466D01*
X200620476Y-122423180D02*
X200953809Y-121423180D01*
X201287142Y-122423180D01*
X201572857Y-122375561D02*
X201715714Y-122423180D01*
X201953809Y-122423180D01*
X202049047Y-122375561D01*
X202096666Y-122327942D01*
X202144285Y-122232704D01*
X202144285Y-122137466D01*
X202096666Y-122042228D01*
X202049047Y-121994609D01*
X201953809Y-121946990D01*
X201763333Y-121899371D01*
X201668095Y-121851752D01*
X201620476Y-121804133D01*
X201572857Y-121708895D01*
X201572857Y-121613657D01*
X201620476Y-121518419D01*
X201668095Y-121470800D01*
X201763333Y-121423180D01*
X202001428Y-121423180D01*
X202144285Y-121470800D01*
X202572857Y-122423180D02*
X202572857Y-121423180D01*
X202810952Y-121423180D01*
X202953809Y-121470800D01*
X203049047Y-121566038D01*
X203096666Y-121661276D01*
X203144285Y-121851752D01*
X203144285Y-121994609D01*
X203096666Y-122185085D01*
X203049047Y-122280323D01*
X202953809Y-122375561D01*
X202810952Y-122423180D01*
X202572857Y-122423180D01*
D11*
X117344371Y-48532142D02*
X117562085Y-48604714D01*
X117634657Y-48677285D01*
X117707228Y-48822428D01*
X117707228Y-49040142D01*
X117634657Y-49185285D01*
X117562085Y-49257857D01*
X117416942Y-49330428D01*
X116836371Y-49330428D01*
X116836371Y-47806428D01*
X117344371Y-47806428D01*
X117489514Y-47879000D01*
X117562085Y-47951571D01*
X117634657Y-48096714D01*
X117634657Y-48241857D01*
X117562085Y-48387000D01*
X117489514Y-48459571D01*
X117344371Y-48532142D01*
X116836371Y-48532142D01*
X119013514Y-48314428D02*
X119013514Y-49330428D01*
X118360371Y-48314428D02*
X118360371Y-49112714D01*
X118432942Y-49257857D01*
X118578085Y-49330428D01*
X118795800Y-49330428D01*
X118940942Y-49257857D01*
X119013514Y-49185285D01*
X120392371Y-48314428D02*
X120392371Y-49548142D01*
X120319800Y-49693285D01*
X120247228Y-49765857D01*
X120102085Y-49838428D01*
X119884371Y-49838428D01*
X119739228Y-49765857D01*
X120392371Y-49257857D02*
X120247228Y-49330428D01*
X119956942Y-49330428D01*
X119811800Y-49257857D01*
X119739228Y-49185285D01*
X119666657Y-49040142D01*
X119666657Y-48604714D01*
X119739228Y-48459571D01*
X119811800Y-48387000D01*
X119956942Y-48314428D01*
X120247228Y-48314428D01*
X120392371Y-48387000D01*
X121771228Y-48314428D02*
X121771228Y-49548142D01*
X121698657Y-49693285D01*
X121626085Y-49765857D01*
X121480942Y-49838428D01*
X121263228Y-49838428D01*
X121118085Y-49765857D01*
X121771228Y-49257857D02*
X121626085Y-49330428D01*
X121335800Y-49330428D01*
X121190657Y-49257857D01*
X121118085Y-49185285D01*
X121045514Y-49040142D01*
X121045514Y-48604714D01*
X121118085Y-48459571D01*
X121190657Y-48387000D01*
X121335800Y-48314428D01*
X121626085Y-48314428D01*
X121771228Y-48387000D01*
X122714657Y-49330428D02*
X122569514Y-49257857D01*
X122496942Y-49112714D01*
X122496942Y-47806428D01*
X123150085Y-48314428D02*
X123512942Y-49330428D01*
X123875800Y-48314428D02*
X123512942Y-49330428D01*
X123367800Y-49693285D01*
X123295228Y-49765857D01*
X123150085Y-49838428D01*
X125544942Y-49257857D02*
X125762657Y-49330428D01*
X126125514Y-49330428D01*
X126270657Y-49257857D01*
X126343228Y-49185285D01*
X126415800Y-49040142D01*
X126415800Y-48895000D01*
X126343228Y-48749857D01*
X126270657Y-48677285D01*
X126125514Y-48604714D01*
X125835228Y-48532142D01*
X125690085Y-48459571D01*
X125617514Y-48387000D01*
X125544942Y-48241857D01*
X125544942Y-48096714D01*
X125617514Y-47951571D01*
X125690085Y-47879000D01*
X125835228Y-47806428D01*
X126198085Y-47806428D01*
X126415800Y-47879000D01*
X127068942Y-49330428D02*
X127068942Y-47806428D01*
X127649514Y-47806428D01*
X127794657Y-47879000D01*
X127867228Y-47951571D01*
X127939800Y-48096714D01*
X127939800Y-48314428D01*
X127867228Y-48459571D01*
X127794657Y-48532142D01*
X127649514Y-48604714D01*
X127068942Y-48604714D01*
X128592942Y-49330428D02*
X128592942Y-47806428D01*
X128955800Y-47806428D01*
X129173514Y-47879000D01*
X129318657Y-48024142D01*
X129391228Y-48169285D01*
X129463800Y-48459571D01*
X129463800Y-48677285D01*
X129391228Y-48967571D01*
X129318657Y-49112714D01*
X129173514Y-49257857D01*
X128955800Y-49330428D01*
X128592942Y-49330428D01*
X131205514Y-48895000D02*
X131931228Y-48895000D01*
X131060371Y-49330428D02*
X131568371Y-47806428D01*
X132076371Y-49330428D01*
X133237514Y-48314428D02*
X133237514Y-49330428D01*
X132584371Y-48314428D02*
X132584371Y-49112714D01*
X132656942Y-49257857D01*
X132802085Y-49330428D01*
X133019800Y-49330428D01*
X133164942Y-49257857D01*
X133237514Y-49185285D01*
X133818085Y-49330428D02*
X134616371Y-48314428D01*
X133818085Y-48314428D02*
X134616371Y-49330428D01*
D10*
X208284771Y-36769514D02*
X208332390Y-36626657D01*
X208380009Y-36579038D01*
X208475247Y-36531419D01*
X208618104Y-36531419D01*
X208713342Y-36579038D01*
X208760961Y-36626657D01*
X208808580Y-36721895D01*
X208808580Y-37102847D01*
X207808580Y-37102847D01*
X207808580Y-36769514D01*
X207856200Y-36674276D01*
X207903819Y-36626657D01*
X207999057Y-36579038D01*
X208094295Y-36579038D01*
X208189533Y-36626657D01*
X208237152Y-36674276D01*
X208284771Y-36769514D01*
X208284771Y-37102847D01*
X208808580Y-35674276D02*
X208284771Y-35674276D01*
X208189533Y-35721895D01*
X208141914Y-35817133D01*
X208141914Y-36007609D01*
X208189533Y-36102847D01*
X208760961Y-35674276D02*
X208808580Y-35769514D01*
X208808580Y-36007609D01*
X208760961Y-36102847D01*
X208665723Y-36150466D01*
X208570485Y-36150466D01*
X208475247Y-36102847D01*
X208427628Y-36007609D01*
X208427628Y-35769514D01*
X208380009Y-35674276D01*
X208141914Y-35340942D02*
X208141914Y-34959990D01*
X207808580Y-35198085D02*
X208665723Y-35198085D01*
X208760961Y-35150466D01*
X208808580Y-35055228D01*
X208808580Y-34959990D01*
X208427628Y-34626657D02*
X208427628Y-33864752D01*
X208183171Y-44262514D02*
X208230790Y-44119657D01*
X208278409Y-44072038D01*
X208373647Y-44024419D01*
X208516504Y-44024419D01*
X208611742Y-44072038D01*
X208659361Y-44119657D01*
X208706980Y-44214895D01*
X208706980Y-44595847D01*
X207706980Y-44595847D01*
X207706980Y-44262514D01*
X207754600Y-44167276D01*
X207802219Y-44119657D01*
X207897457Y-44072038D01*
X207992695Y-44072038D01*
X208087933Y-44119657D01*
X208135552Y-44167276D01*
X208183171Y-44262514D01*
X208183171Y-44595847D01*
X208706980Y-43167276D02*
X208183171Y-43167276D01*
X208087933Y-43214895D01*
X208040314Y-43310133D01*
X208040314Y-43500609D01*
X208087933Y-43595847D01*
X208659361Y-43167276D02*
X208706980Y-43262514D01*
X208706980Y-43500609D01*
X208659361Y-43595847D01*
X208564123Y-43643466D01*
X208468885Y-43643466D01*
X208373647Y-43595847D01*
X208326028Y-43500609D01*
X208326028Y-43262514D01*
X208278409Y-43167276D01*
X208040314Y-42833942D02*
X208040314Y-42452990D01*
X207706980Y-42691085D02*
X208564123Y-42691085D01*
X208659361Y-42643466D01*
X208706980Y-42548228D01*
X208706980Y-42452990D01*
X208326028Y-42119657D02*
X208326028Y-41357752D01*
X208706980Y-41738704D02*
X207945076Y-41738704D01*
X209104123Y-48137771D02*
X209246980Y-48185390D01*
X209294600Y-48233009D01*
X209342219Y-48328247D01*
X209342219Y-48471104D01*
X209294600Y-48566342D01*
X209246980Y-48613961D01*
X209151742Y-48661580D01*
X208770790Y-48661580D01*
X208770790Y-47661580D01*
X209104123Y-47661580D01*
X209199361Y-47709200D01*
X209246980Y-47756819D01*
X209294600Y-47852057D01*
X209294600Y-47947295D01*
X209246980Y-48042533D01*
X209199361Y-48090152D01*
X209104123Y-48137771D01*
X208770790Y-48137771D01*
X210199361Y-48661580D02*
X210199361Y-48137771D01*
X210151742Y-48042533D01*
X210056504Y-47994914D01*
X209866028Y-47994914D01*
X209770790Y-48042533D01*
X210199361Y-48613961D02*
X210104123Y-48661580D01*
X209866028Y-48661580D01*
X209770790Y-48613961D01*
X209723171Y-48518723D01*
X209723171Y-48423485D01*
X209770790Y-48328247D01*
X209866028Y-48280628D01*
X210104123Y-48280628D01*
X210199361Y-48233009D01*
X210532695Y-47994914D02*
X210913647Y-47994914D01*
X210675552Y-47661580D02*
X210675552Y-48518723D01*
X210723171Y-48613961D01*
X210818409Y-48661580D01*
X210913647Y-48661580D01*
X211246980Y-48280628D02*
X212008885Y-48280628D01*
X211627933Y-48661580D02*
X211627933Y-47899676D01*
X212437457Y-48613961D02*
X212532695Y-48661580D01*
X212723171Y-48661580D01*
X212818409Y-48613961D01*
X212866028Y-48518723D01*
X212866028Y-48471104D01*
X212818409Y-48375866D01*
X212723171Y-48328247D01*
X212580314Y-48328247D01*
X212485076Y-48280628D01*
X212437457Y-48185390D01*
X212437457Y-48137771D01*
X212485076Y-48042533D01*
X212580314Y-47994914D01*
X212723171Y-47994914D01*
X212818409Y-48042533D01*
X200494095Y-53217771D02*
X200160761Y-53217771D01*
X200160761Y-53741580D02*
X200160761Y-52741580D01*
X200636952Y-52741580D01*
X200922666Y-52741580D02*
X201589333Y-52741580D01*
X201160761Y-53741580D01*
X202113142Y-53741580D02*
X202017904Y-53693961D01*
X201970285Y-53646342D01*
X201922666Y-53551104D01*
X201922666Y-53265390D01*
X201970285Y-53170152D01*
X202017904Y-53122533D01*
X202113142Y-53074914D01*
X202256000Y-53074914D01*
X202351238Y-53122533D01*
X202398857Y-53170152D01*
X202446476Y-53265390D01*
X202446476Y-53551104D01*
X202398857Y-53646342D01*
X202351238Y-53693961D01*
X202256000Y-53741580D01*
X202113142Y-53741580D01*
X203303619Y-53074914D02*
X203303619Y-53741580D01*
X202875047Y-53074914D02*
X202875047Y-53598723D01*
X202922666Y-53693961D01*
X203017904Y-53741580D01*
X203160761Y-53741580D01*
X203256000Y-53693961D01*
X203303619Y-53646342D01*
X203636952Y-53074914D02*
X204017904Y-53074914D01*
X203779809Y-52741580D02*
X203779809Y-53598723D01*
X203827428Y-53693961D01*
X203922666Y-53741580D01*
X204017904Y-53741580D01*
X204636952Y-54122533D02*
X204589333Y-54074914D01*
X204494095Y-53932057D01*
X204446476Y-53836819D01*
X204398857Y-53693961D01*
X204351238Y-53455866D01*
X204351238Y-53265390D01*
X204398857Y-53027295D01*
X204446476Y-52884438D01*
X204494095Y-52789200D01*
X204589333Y-52646342D01*
X204636952Y-52598723D01*
X204970285Y-53693961D02*
X205065523Y-53741580D01*
X205256000Y-53741580D01*
X205351238Y-53693961D01*
X205398857Y-53598723D01*
X205398857Y-53551104D01*
X205351238Y-53455866D01*
X205256000Y-53408247D01*
X205113142Y-53408247D01*
X205017904Y-53360628D01*
X204970285Y-53265390D01*
X204970285Y-53217771D01*
X205017904Y-53122533D01*
X205113142Y-53074914D01*
X205256000Y-53074914D01*
X205351238Y-53122533D01*
X205827428Y-53074914D02*
X205827428Y-54074914D01*
X205827428Y-53122533D02*
X205922666Y-53074914D01*
X206113142Y-53074914D01*
X206208380Y-53122533D01*
X206256000Y-53170152D01*
X206303619Y-53265390D01*
X206303619Y-53551104D01*
X206256000Y-53646342D01*
X206208380Y-53693961D01*
X206113142Y-53741580D01*
X205922666Y-53741580D01*
X205827428Y-53693961D01*
X207160761Y-53741580D02*
X207160761Y-53217771D01*
X207113142Y-53122533D01*
X207017904Y-53074914D01*
X206827428Y-53074914D01*
X206732190Y-53122533D01*
X207160761Y-53693961D02*
X207065523Y-53741580D01*
X206827428Y-53741580D01*
X206732190Y-53693961D01*
X206684571Y-53598723D01*
X206684571Y-53503485D01*
X206732190Y-53408247D01*
X206827428Y-53360628D01*
X207065523Y-53360628D01*
X207160761Y-53313009D01*
X207636952Y-53741580D02*
X207636952Y-53074914D01*
X207636952Y-53265390D02*
X207684571Y-53170152D01*
X207732190Y-53122533D01*
X207827428Y-53074914D01*
X207922666Y-53074914D01*
X208636952Y-53693961D02*
X208541714Y-53741580D01*
X208351238Y-53741580D01*
X208256000Y-53693961D01*
X208208380Y-53598723D01*
X208208380Y-53217771D01*
X208256000Y-53122533D01*
X208351238Y-53074914D01*
X208541714Y-53074914D01*
X208636952Y-53122533D01*
X208684571Y-53217771D01*
X208684571Y-53313009D01*
X208208380Y-53408247D01*
X209875047Y-53741580D02*
X209875047Y-52741580D01*
X209875047Y-53217771D02*
X210446476Y-53217771D01*
X210446476Y-53741580D02*
X210446476Y-52741580D01*
X211494095Y-53646342D02*
X211446476Y-53693961D01*
X211303619Y-53741580D01*
X211208380Y-53741580D01*
X211065523Y-53693961D01*
X210970285Y-53598723D01*
X210922666Y-53503485D01*
X210875047Y-53313009D01*
X210875047Y-53170152D01*
X210922666Y-52979676D01*
X210970285Y-52884438D01*
X211065523Y-52789200D01*
X211208380Y-52741580D01*
X211303619Y-52741580D01*
X211446476Y-52789200D01*
X211494095Y-52836819D01*
X211922666Y-53360628D02*
X212684571Y-53360628D01*
X212303619Y-53741580D02*
X212303619Y-52979676D01*
X213065523Y-54122533D02*
X213113142Y-54074914D01*
X213208380Y-53932057D01*
X213256000Y-53836819D01*
X213303619Y-53693961D01*
X213351238Y-53455866D01*
X213351238Y-53265390D01*
X213303619Y-53027295D01*
X213256000Y-52884438D01*
X213208380Y-52789200D01*
X213113142Y-52646342D01*
X213065523Y-52598723D01*
X199605142Y-57840571D02*
X199271809Y-57840571D01*
X199271809Y-58364380D02*
X199271809Y-57364380D01*
X199748000Y-57364380D01*
X200557523Y-57364380D02*
X200367047Y-57364380D01*
X200271809Y-57412000D01*
X200224190Y-57459619D01*
X200128952Y-57602476D01*
X200081333Y-57792952D01*
X200081333Y-58173904D01*
X200128952Y-58269142D01*
X200176571Y-58316761D01*
X200271809Y-58364380D01*
X200462285Y-58364380D01*
X200557523Y-58316761D01*
X200605142Y-58269142D01*
X200652761Y-58173904D01*
X200652761Y-57935809D01*
X200605142Y-57840571D01*
X200557523Y-57792952D01*
X200462285Y-57745333D01*
X200271809Y-57745333D01*
X200176571Y-57792952D01*
X200128952Y-57840571D01*
X200081333Y-57935809D01*
X201224190Y-58364380D02*
X201128952Y-58316761D01*
X201081333Y-58269142D01*
X201033714Y-58173904D01*
X201033714Y-57888190D01*
X201081333Y-57792952D01*
X201128952Y-57745333D01*
X201224190Y-57697714D01*
X201367047Y-57697714D01*
X201462285Y-57745333D01*
X201509904Y-57792952D01*
X201557523Y-57888190D01*
X201557523Y-58173904D01*
X201509904Y-58269142D01*
X201462285Y-58316761D01*
X201367047Y-58364380D01*
X201224190Y-58364380D01*
X202414666Y-57697714D02*
X202414666Y-58364380D01*
X201986095Y-57697714D02*
X201986095Y-58221523D01*
X202033714Y-58316761D01*
X202128952Y-58364380D01*
X202271809Y-58364380D01*
X202367047Y-58316761D01*
X202414666Y-58269142D01*
X202748000Y-57697714D02*
X203128952Y-57697714D01*
X202890857Y-57364380D02*
X202890857Y-58221523D01*
X202938476Y-58316761D01*
X203033714Y-58364380D01*
X203128952Y-58364380D01*
X203748000Y-58745333D02*
X203700380Y-58697714D01*
X203605142Y-58554857D01*
X203557523Y-58459619D01*
X203509904Y-58316761D01*
X203462285Y-58078666D01*
X203462285Y-57888190D01*
X203509904Y-57650095D01*
X203557523Y-57507238D01*
X203605142Y-57412000D01*
X203700380Y-57269142D01*
X203748000Y-57221523D01*
X203986095Y-57697714D02*
X204367047Y-57697714D01*
X204128952Y-58364380D02*
X204128952Y-57507238D01*
X204176571Y-57412000D01*
X204271809Y-57364380D01*
X204367047Y-57364380D01*
X205128952Y-57697714D02*
X205128952Y-58364380D01*
X204700380Y-57697714D02*
X204700380Y-58221523D01*
X204748000Y-58316761D01*
X204843238Y-58364380D01*
X204986095Y-58364380D01*
X205081333Y-58316761D01*
X205128952Y-58269142D01*
X205986095Y-58316761D02*
X205890857Y-58364380D01*
X205700380Y-58364380D01*
X205605142Y-58316761D01*
X205557523Y-58221523D01*
X205557523Y-57840571D01*
X205605142Y-57745333D01*
X205700380Y-57697714D01*
X205890857Y-57697714D01*
X205986095Y-57745333D01*
X206033714Y-57840571D01*
X206033714Y-57935809D01*
X205557523Y-58031047D01*
X206605142Y-58364380D02*
X206509904Y-58316761D01*
X206462285Y-58221523D01*
X206462285Y-57364380D01*
X207748000Y-57697714D02*
X207748000Y-58697714D01*
X207748000Y-57745333D02*
X207843238Y-57697714D01*
X208033714Y-57697714D01*
X208128952Y-57745333D01*
X208176571Y-57792952D01*
X208224190Y-57888190D01*
X208224190Y-58173904D01*
X208176571Y-58269142D01*
X208128952Y-58316761D01*
X208033714Y-58364380D01*
X207843238Y-58364380D01*
X207748000Y-58316761D01*
X209081333Y-57697714D02*
X209081333Y-58364380D01*
X208652761Y-57697714D02*
X208652761Y-58221523D01*
X208700380Y-58316761D01*
X208795619Y-58364380D01*
X208938476Y-58364380D01*
X209033714Y-58316761D01*
X209081333Y-58269142D01*
X209557523Y-58364380D02*
X209557523Y-57697714D01*
X209557523Y-57792952D02*
X209605142Y-57745333D01*
X209700380Y-57697714D01*
X209843238Y-57697714D01*
X209938476Y-57745333D01*
X209986095Y-57840571D01*
X209986095Y-58364380D01*
X209986095Y-57840571D02*
X210033714Y-57745333D01*
X210128952Y-57697714D01*
X210271809Y-57697714D01*
X210367047Y-57745333D01*
X210414666Y-57840571D01*
X210414666Y-58364380D01*
X210890857Y-57697714D02*
X210890857Y-58697714D01*
X210890857Y-57745333D02*
X210986095Y-57697714D01*
X211176571Y-57697714D01*
X211271809Y-57745333D01*
X211319428Y-57792952D01*
X211367047Y-57888190D01*
X211367047Y-58173904D01*
X211319428Y-58269142D01*
X211271809Y-58316761D01*
X211176571Y-58364380D01*
X210986095Y-58364380D01*
X210890857Y-58316761D01*
X211795619Y-57983428D02*
X212557523Y-57983428D01*
X212176571Y-58364380D02*
X212176571Y-57602476D01*
X212938476Y-58745333D02*
X212986095Y-58697714D01*
X213081333Y-58554857D01*
X213128952Y-58459619D01*
X213176571Y-58316761D01*
X213224190Y-58078666D01*
X213224190Y-57888190D01*
X213176571Y-57650095D01*
X213128952Y-57507238D01*
X213081333Y-57412000D01*
X212986095Y-57269142D01*
X212938476Y-57221523D01*
X198617819Y-62818971D02*
X198284485Y-62818971D01*
X198284485Y-63342780D02*
X198284485Y-62342780D01*
X198760676Y-62342780D01*
X199617819Y-62342780D02*
X199141628Y-62342780D01*
X199094009Y-62818971D01*
X199141628Y-62771352D01*
X199236866Y-62723733D01*
X199474961Y-62723733D01*
X199570200Y-62771352D01*
X199617819Y-62818971D01*
X199665438Y-62914209D01*
X199665438Y-63152304D01*
X199617819Y-63247542D01*
X199570200Y-63295161D01*
X199474961Y-63342780D01*
X199236866Y-63342780D01*
X199141628Y-63295161D01*
X199094009Y-63247542D01*
X200236866Y-63342780D02*
X200141628Y-63295161D01*
X200094009Y-63247542D01*
X200046390Y-63152304D01*
X200046390Y-62866590D01*
X200094009Y-62771352D01*
X200141628Y-62723733D01*
X200236866Y-62676114D01*
X200379723Y-62676114D01*
X200474961Y-62723733D01*
X200522580Y-62771352D01*
X200570200Y-62866590D01*
X200570200Y-63152304D01*
X200522580Y-63247542D01*
X200474961Y-63295161D01*
X200379723Y-63342780D01*
X200236866Y-63342780D01*
X201427342Y-62676114D02*
X201427342Y-63342780D01*
X200998771Y-62676114D02*
X200998771Y-63199923D01*
X201046390Y-63295161D01*
X201141628Y-63342780D01*
X201284485Y-63342780D01*
X201379723Y-63295161D01*
X201427342Y-63247542D01*
X201760676Y-62676114D02*
X202141628Y-62676114D01*
X201903533Y-62342780D02*
X201903533Y-63199923D01*
X201951152Y-63295161D01*
X202046390Y-63342780D01*
X202141628Y-63342780D01*
X202760676Y-63723733D02*
X202713057Y-63676114D01*
X202617819Y-63533257D01*
X202570200Y-63438019D01*
X202522580Y-63295161D01*
X202474961Y-63057066D01*
X202474961Y-62866590D01*
X202522580Y-62628495D01*
X202570200Y-62485638D01*
X202617819Y-62390400D01*
X202713057Y-62247542D01*
X202760676Y-62199923D01*
X203046390Y-62342780D02*
X203284485Y-63342780D01*
X203474961Y-62628495D01*
X203665438Y-63342780D01*
X203903533Y-62342780D01*
X204617819Y-62818971D02*
X204760676Y-62866590D01*
X204808295Y-62914209D01*
X204855914Y-63009447D01*
X204855914Y-63152304D01*
X204808295Y-63247542D01*
X204760676Y-63295161D01*
X204665438Y-63342780D01*
X204284485Y-63342780D01*
X204284485Y-62342780D01*
X204617819Y-62342780D01*
X204713057Y-62390400D01*
X204760676Y-62438019D01*
X204808295Y-62533257D01*
X204808295Y-62628495D01*
X204760676Y-62723733D01*
X204713057Y-62771352D01*
X204617819Y-62818971D01*
X204284485Y-62818971D01*
X205332104Y-63295161D02*
X205332104Y-63342780D01*
X205284485Y-63438019D01*
X205236866Y-63485638D01*
X205617819Y-62342780D02*
X206189247Y-62342780D01*
X205903533Y-63342780D02*
X205903533Y-62342780D01*
X206951152Y-63342780D02*
X206951152Y-62818971D01*
X206903533Y-62723733D01*
X206808295Y-62676114D01*
X206617819Y-62676114D01*
X206522580Y-62723733D01*
X206951152Y-63295161D02*
X206855914Y-63342780D01*
X206617819Y-63342780D01*
X206522580Y-63295161D01*
X206474961Y-63199923D01*
X206474961Y-63104685D01*
X206522580Y-63009447D01*
X206617819Y-62961828D01*
X206855914Y-62961828D01*
X206951152Y-62914209D01*
X207855914Y-63295161D02*
X207760676Y-63342780D01*
X207570200Y-63342780D01*
X207474961Y-63295161D01*
X207427342Y-63247542D01*
X207379723Y-63152304D01*
X207379723Y-62866590D01*
X207427342Y-62771352D01*
X207474961Y-62723733D01*
X207570200Y-62676114D01*
X207760676Y-62676114D01*
X207855914Y-62723733D01*
X208284485Y-63342780D02*
X208284485Y-62342780D01*
X208713057Y-63342780D02*
X208713057Y-62818971D01*
X208665438Y-62723733D01*
X208570200Y-62676114D01*
X208427342Y-62676114D01*
X208332104Y-62723733D01*
X208284485Y-62771352D01*
X209236866Y-63295161D02*
X209236866Y-63342780D01*
X209189247Y-63438019D01*
X209141628Y-63485638D01*
X209665438Y-63342780D02*
X209665438Y-62342780D01*
X210570200Y-63342780D02*
X210570200Y-62342780D01*
X210570200Y-63295161D02*
X210474961Y-63342780D01*
X210284485Y-63342780D01*
X210189247Y-63295161D01*
X210141628Y-63247542D01*
X210094009Y-63152304D01*
X210094009Y-62866590D01*
X210141628Y-62771352D01*
X210189247Y-62723733D01*
X210284485Y-62676114D01*
X210474961Y-62676114D01*
X210570200Y-62723733D01*
X211189247Y-63342780D02*
X211094009Y-63295161D01*
X211046390Y-63199923D01*
X211046390Y-62342780D01*
X211951152Y-63295161D02*
X211855914Y-63342780D01*
X211665438Y-63342780D01*
X211570200Y-63295161D01*
X211522580Y-63199923D01*
X211522580Y-62818971D01*
X211570200Y-62723733D01*
X211665438Y-62676114D01*
X211855914Y-62676114D01*
X211951152Y-62723733D01*
X211998771Y-62818971D01*
X211998771Y-62914209D01*
X211522580Y-63009447D01*
X212427342Y-62961828D02*
X213189247Y-62961828D01*
X212808295Y-63342780D02*
X212808295Y-62580876D01*
X213570200Y-63723733D02*
X213617819Y-63676114D01*
X213713057Y-63533257D01*
X213760676Y-63438019D01*
X213808295Y-63295161D01*
X213855914Y-63057066D01*
X213855914Y-62866590D01*
X213808295Y-62628495D01*
X213760676Y-62485638D01*
X213713057Y-62390400D01*
X213617819Y-62247542D01*
X213570200Y-62199923D01*
X204040361Y-67975171D02*
X203707028Y-67975171D01*
X203707028Y-68498980D02*
X203707028Y-67498980D01*
X204183219Y-67498980D01*
X204992742Y-67832314D02*
X204992742Y-68498980D01*
X204754647Y-67451361D02*
X204516552Y-68165647D01*
X205135600Y-68165647D01*
X205659409Y-68498980D02*
X205564171Y-68451361D01*
X205516552Y-68403742D01*
X205468933Y-68308504D01*
X205468933Y-68022790D01*
X205516552Y-67927552D01*
X205564171Y-67879933D01*
X205659409Y-67832314D01*
X205802266Y-67832314D01*
X205897504Y-67879933D01*
X205945123Y-67927552D01*
X205992742Y-68022790D01*
X205992742Y-68308504D01*
X205945123Y-68403742D01*
X205897504Y-68451361D01*
X205802266Y-68498980D01*
X205659409Y-68498980D01*
X206849885Y-67832314D02*
X206849885Y-68498980D01*
X206421314Y-67832314D02*
X206421314Y-68356123D01*
X206468933Y-68451361D01*
X206564171Y-68498980D01*
X206707028Y-68498980D01*
X206802266Y-68451361D01*
X206849885Y-68403742D01*
X207183219Y-67832314D02*
X207564171Y-67832314D01*
X207326076Y-67498980D02*
X207326076Y-68356123D01*
X207373695Y-68451361D01*
X207468933Y-68498980D01*
X207564171Y-68498980D01*
X208183219Y-68879933D02*
X208135600Y-68832314D01*
X208040361Y-68689457D01*
X207992742Y-68594219D01*
X207945123Y-68451361D01*
X207897504Y-68213266D01*
X207897504Y-68022790D01*
X207945123Y-67784695D01*
X207992742Y-67641838D01*
X208040361Y-67546600D01*
X208135600Y-67403742D01*
X208183219Y-67356123D01*
X208992742Y-68451361D02*
X208897504Y-68498980D01*
X208707028Y-68498980D01*
X208611790Y-68451361D01*
X208564171Y-68403742D01*
X208516552Y-68308504D01*
X208516552Y-68022790D01*
X208564171Y-67927552D01*
X208611790Y-67879933D01*
X208707028Y-67832314D01*
X208897504Y-67832314D01*
X208992742Y-67879933D01*
X209564171Y-68498980D02*
X209468933Y-68451361D01*
X209421314Y-68403742D01*
X209373695Y-68308504D01*
X209373695Y-68022790D01*
X209421314Y-67927552D01*
X209468933Y-67879933D01*
X209564171Y-67832314D01*
X209707028Y-67832314D01*
X209802266Y-67879933D01*
X209849885Y-67927552D01*
X209897504Y-68022790D01*
X209897504Y-68308504D01*
X209849885Y-68403742D01*
X209802266Y-68451361D01*
X209707028Y-68498980D01*
X209564171Y-68498980D01*
X210326076Y-68498980D02*
X210326076Y-67832314D01*
X210326076Y-67498980D02*
X210278457Y-67546600D01*
X210326076Y-67594219D01*
X210373695Y-67546600D01*
X210326076Y-67498980D01*
X210326076Y-67594219D01*
X210945123Y-68498980D02*
X210849885Y-68451361D01*
X210802266Y-68356123D01*
X210802266Y-67498980D01*
X211278457Y-68451361D02*
X211373695Y-68498980D01*
X211564171Y-68498980D01*
X211659409Y-68451361D01*
X211707028Y-68356123D01*
X211707028Y-68308504D01*
X211659409Y-68213266D01*
X211564171Y-68165647D01*
X211421314Y-68165647D01*
X211326076Y-68118028D01*
X211278457Y-68022790D01*
X211278457Y-67975171D01*
X211326076Y-67879933D01*
X211421314Y-67832314D01*
X211564171Y-67832314D01*
X211659409Y-67879933D01*
X212135600Y-68118028D02*
X212897504Y-68118028D01*
X212516552Y-68498980D02*
X212516552Y-67737076D01*
X213278457Y-68879933D02*
X213326076Y-68832314D01*
X213421314Y-68689457D01*
X213468933Y-68594219D01*
X213516552Y-68451361D01*
X213564171Y-68213266D01*
X213564171Y-68022790D01*
X213516552Y-67784695D01*
X213468933Y-67641838D01*
X213421314Y-67546600D01*
X213326076Y-67403742D01*
X213278457Y-67356123D01*
X205026142Y-72750371D02*
X204692809Y-72750371D01*
X204692809Y-73274180D02*
X204692809Y-72274180D01*
X205169000Y-72274180D01*
X205454714Y-72274180D02*
X206073761Y-72274180D01*
X205740428Y-72655133D01*
X205883285Y-72655133D01*
X205978523Y-72702752D01*
X206026142Y-72750371D01*
X206073761Y-72845609D01*
X206073761Y-73083704D01*
X206026142Y-73178942D01*
X205978523Y-73226561D01*
X205883285Y-73274180D01*
X205597571Y-73274180D01*
X205502333Y-73226561D01*
X205454714Y-73178942D01*
X206645190Y-73274180D02*
X206549952Y-73226561D01*
X206502333Y-73178942D01*
X206454714Y-73083704D01*
X206454714Y-72797990D01*
X206502333Y-72702752D01*
X206549952Y-72655133D01*
X206645190Y-72607514D01*
X206788047Y-72607514D01*
X206883285Y-72655133D01*
X206930904Y-72702752D01*
X206978523Y-72797990D01*
X206978523Y-73083704D01*
X206930904Y-73178942D01*
X206883285Y-73226561D01*
X206788047Y-73274180D01*
X206645190Y-73274180D01*
X207835666Y-72607514D02*
X207835666Y-73274180D01*
X207407095Y-72607514D02*
X207407095Y-73131323D01*
X207454714Y-73226561D01*
X207549952Y-73274180D01*
X207692809Y-73274180D01*
X207788047Y-73226561D01*
X207835666Y-73178942D01*
X208169000Y-72607514D02*
X208549952Y-72607514D01*
X208311857Y-72274180D02*
X208311857Y-73131323D01*
X208359476Y-73226561D01*
X208454714Y-73274180D01*
X208549952Y-73274180D01*
X209169000Y-73655133D02*
X209121380Y-73607514D01*
X209026142Y-73464657D01*
X208978523Y-73369419D01*
X208930904Y-73226561D01*
X208883285Y-72988466D01*
X208883285Y-72797990D01*
X208930904Y-72559895D01*
X208978523Y-72417038D01*
X209026142Y-72321800D01*
X209121380Y-72178942D01*
X209169000Y-72131323D01*
X209549952Y-73274180D02*
X209549952Y-72274180D01*
X210026142Y-72607514D02*
X210026142Y-73274180D01*
X210026142Y-72702752D02*
X210073761Y-72655133D01*
X210169000Y-72607514D01*
X210311857Y-72607514D01*
X210407095Y-72655133D01*
X210454714Y-72750371D01*
X210454714Y-73274180D01*
X210930904Y-72607514D02*
X210930904Y-73464657D01*
X210883285Y-73559895D01*
X210788047Y-73607514D01*
X210740428Y-73607514D01*
X210930904Y-72274180D02*
X210883285Y-72321800D01*
X210930904Y-72369419D01*
X210978523Y-72321800D01*
X210930904Y-72274180D01*
X210930904Y-72369419D01*
X211359476Y-73226561D02*
X211454714Y-73274180D01*
X211645190Y-73274180D01*
X211740428Y-73226561D01*
X211788047Y-73131323D01*
X211788047Y-73083704D01*
X211740428Y-72988466D01*
X211645190Y-72940847D01*
X211502333Y-72940847D01*
X211407095Y-72893228D01*
X211359476Y-72797990D01*
X211359476Y-72750371D01*
X211407095Y-72655133D01*
X211502333Y-72607514D01*
X211645190Y-72607514D01*
X211740428Y-72655133D01*
X212216619Y-72893228D02*
X212978523Y-72893228D01*
X212597571Y-73274180D02*
X212597571Y-72512276D01*
X213359476Y-73655133D02*
X213407095Y-73607514D01*
X213502333Y-73464657D01*
X213549952Y-73369419D01*
X213597571Y-73226561D01*
X213645190Y-72988466D01*
X213645190Y-72797990D01*
X213597571Y-72559895D01*
X213549952Y-72417038D01*
X213502333Y-72321800D01*
X213407095Y-72178942D01*
X213359476Y-72131323D01*
X204224523Y-78430380D02*
X204224523Y-77430380D01*
X204462619Y-77430380D01*
X204605476Y-77478000D01*
X204700714Y-77573238D01*
X204748333Y-77668476D01*
X204795952Y-77858952D01*
X204795952Y-78001809D01*
X204748333Y-78192285D01*
X204700714Y-78287523D01*
X204605476Y-78382761D01*
X204462619Y-78430380D01*
X204224523Y-78430380D01*
X205700714Y-77430380D02*
X205224523Y-77430380D01*
X205176904Y-77906571D01*
X205224523Y-77858952D01*
X205319761Y-77811333D01*
X205557857Y-77811333D01*
X205653095Y-77858952D01*
X205700714Y-77906571D01*
X205748333Y-78001809D01*
X205748333Y-78239904D01*
X205700714Y-78335142D01*
X205653095Y-78382761D01*
X205557857Y-78430380D01*
X205319761Y-78430380D01*
X205224523Y-78382761D01*
X205176904Y-78335142D01*
X206129285Y-77525619D02*
X206176904Y-77478000D01*
X206272142Y-77430380D01*
X206510238Y-77430380D01*
X206605476Y-77478000D01*
X206653095Y-77525619D01*
X206700714Y-77620857D01*
X206700714Y-77716095D01*
X206653095Y-77858952D01*
X206081666Y-78430380D01*
X206700714Y-78430380D01*
X207272142Y-78430380D02*
X207176904Y-78382761D01*
X207129285Y-78335142D01*
X207081666Y-78239904D01*
X207081666Y-77954190D01*
X207129285Y-77858952D01*
X207176904Y-77811333D01*
X207272142Y-77763714D01*
X207415000Y-77763714D01*
X207510238Y-77811333D01*
X207557857Y-77858952D01*
X207605476Y-77954190D01*
X207605476Y-78239904D01*
X207557857Y-78335142D01*
X207510238Y-78382761D01*
X207415000Y-78430380D01*
X207272142Y-78430380D01*
X208462619Y-77763714D02*
X208462619Y-78430380D01*
X208034047Y-77763714D02*
X208034047Y-78287523D01*
X208081666Y-78382761D01*
X208176904Y-78430380D01*
X208319761Y-78430380D01*
X208415000Y-78382761D01*
X208462619Y-78335142D01*
X208795952Y-77763714D02*
X209176904Y-77763714D01*
X208938809Y-77430380D02*
X208938809Y-78287523D01*
X208986428Y-78382761D01*
X209081666Y-78430380D01*
X209176904Y-78430380D01*
X209795952Y-78811333D02*
X209748333Y-78763714D01*
X209653095Y-78620857D01*
X209605476Y-78525619D01*
X209557857Y-78382761D01*
X209510238Y-78144666D01*
X209510238Y-77954190D01*
X209557857Y-77716095D01*
X209605476Y-77573238D01*
X209653095Y-77478000D01*
X209748333Y-77335142D01*
X209795952Y-77287523D01*
X210176904Y-78430380D02*
X210176904Y-77430380D01*
X211081666Y-77763714D02*
X211081666Y-78573238D01*
X211034047Y-78668476D01*
X210986428Y-78716095D01*
X210891190Y-78763714D01*
X210748333Y-78763714D01*
X210653095Y-78716095D01*
X211081666Y-78382761D02*
X210986428Y-78430380D01*
X210795952Y-78430380D01*
X210700714Y-78382761D01*
X210653095Y-78335142D01*
X210605476Y-78239904D01*
X210605476Y-77954190D01*
X210653095Y-77858952D01*
X210700714Y-77811333D01*
X210795952Y-77763714D01*
X210986428Y-77763714D01*
X211081666Y-77811333D01*
X211557857Y-77763714D02*
X211557857Y-78430380D01*
X211557857Y-77858952D02*
X211605476Y-77811333D01*
X211700714Y-77763714D01*
X211843571Y-77763714D01*
X211938809Y-77811333D01*
X211986428Y-77906571D01*
X211986428Y-78430380D01*
X212986428Y-78430380D02*
X212415000Y-78430380D01*
X212700714Y-78430380D02*
X212700714Y-77430380D01*
X212605476Y-77573238D01*
X212510238Y-77668476D01*
X212415000Y-77716095D01*
X213319761Y-78811333D02*
X213367380Y-78763714D01*
X213462619Y-78620857D01*
X213510238Y-78525619D01*
X213557857Y-78382761D01*
X213605476Y-78144666D01*
X213605476Y-77954190D01*
X213557857Y-77716095D01*
X213510238Y-77573238D01*
X213462619Y-77478000D01*
X213367380Y-77335142D01*
X213319761Y-77287523D01*
X204275323Y-83180180D02*
X204275323Y-82180180D01*
X204513419Y-82180180D01*
X204656276Y-82227800D01*
X204751514Y-82323038D01*
X204799133Y-82418276D01*
X204846752Y-82608752D01*
X204846752Y-82751609D01*
X204799133Y-82942085D01*
X204751514Y-83037323D01*
X204656276Y-83132561D01*
X204513419Y-83180180D01*
X204275323Y-83180180D01*
X205751514Y-82180180D02*
X205275323Y-82180180D01*
X205227704Y-82656371D01*
X205275323Y-82608752D01*
X205370561Y-82561133D01*
X205608657Y-82561133D01*
X205703895Y-82608752D01*
X205751514Y-82656371D01*
X205799133Y-82751609D01*
X205799133Y-82989704D01*
X205751514Y-83084942D01*
X205703895Y-83132561D01*
X205608657Y-83180180D01*
X205370561Y-83180180D01*
X205275323Y-83132561D01*
X205227704Y-83084942D01*
X206132466Y-82180180D02*
X206751514Y-82180180D01*
X206418180Y-82561133D01*
X206561038Y-82561133D01*
X206656276Y-82608752D01*
X206703895Y-82656371D01*
X206751514Y-82751609D01*
X206751514Y-82989704D01*
X206703895Y-83084942D01*
X206656276Y-83132561D01*
X206561038Y-83180180D01*
X206275323Y-83180180D01*
X206180085Y-83132561D01*
X206132466Y-83084942D01*
X207322942Y-83180180D02*
X207227704Y-83132561D01*
X207180085Y-83084942D01*
X207132466Y-82989704D01*
X207132466Y-82703990D01*
X207180085Y-82608752D01*
X207227704Y-82561133D01*
X207322942Y-82513514D01*
X207465800Y-82513514D01*
X207561038Y-82561133D01*
X207608657Y-82608752D01*
X207656276Y-82703990D01*
X207656276Y-82989704D01*
X207608657Y-83084942D01*
X207561038Y-83132561D01*
X207465800Y-83180180D01*
X207322942Y-83180180D01*
X208513419Y-82513514D02*
X208513419Y-83180180D01*
X208084847Y-82513514D02*
X208084847Y-83037323D01*
X208132466Y-83132561D01*
X208227704Y-83180180D01*
X208370561Y-83180180D01*
X208465800Y-83132561D01*
X208513419Y-83084942D01*
X208846752Y-82513514D02*
X209227704Y-82513514D01*
X208989609Y-82180180D02*
X208989609Y-83037323D01*
X209037228Y-83132561D01*
X209132466Y-83180180D01*
X209227704Y-83180180D01*
X209846752Y-83561133D02*
X209799133Y-83513514D01*
X209703895Y-83370657D01*
X209656276Y-83275419D01*
X209608657Y-83132561D01*
X209561038Y-82894466D01*
X209561038Y-82703990D01*
X209608657Y-82465895D01*
X209656276Y-82323038D01*
X209703895Y-82227800D01*
X209799133Y-82084942D01*
X209846752Y-82037323D01*
X210227704Y-83180180D02*
X210227704Y-82180180D01*
X211132466Y-82513514D02*
X211132466Y-83323038D01*
X211084847Y-83418276D01*
X211037228Y-83465895D01*
X210941990Y-83513514D01*
X210799133Y-83513514D01*
X210703895Y-83465895D01*
X211132466Y-83132561D02*
X211037228Y-83180180D01*
X210846752Y-83180180D01*
X210751514Y-83132561D01*
X210703895Y-83084942D01*
X210656276Y-82989704D01*
X210656276Y-82703990D01*
X210703895Y-82608752D01*
X210751514Y-82561133D01*
X210846752Y-82513514D01*
X211037228Y-82513514D01*
X211132466Y-82561133D01*
X211608657Y-82513514D02*
X211608657Y-83180180D01*
X211608657Y-82608752D02*
X211656276Y-82561133D01*
X211751514Y-82513514D01*
X211894371Y-82513514D01*
X211989609Y-82561133D01*
X212037228Y-82656371D01*
X212037228Y-83180180D01*
X212465800Y-82275419D02*
X212513419Y-82227800D01*
X212608657Y-82180180D01*
X212846752Y-82180180D01*
X212941990Y-82227800D01*
X212989609Y-82275419D01*
X213037228Y-82370657D01*
X213037228Y-82465895D01*
X212989609Y-82608752D01*
X212418180Y-83180180D01*
X213037228Y-83180180D01*
X213370561Y-83561133D02*
X213418180Y-83513514D01*
X213513419Y-83370657D01*
X213561038Y-83275419D01*
X213608657Y-83132561D01*
X213656276Y-82894466D01*
X213656276Y-82703990D01*
X213608657Y-82465895D01*
X213561038Y-82323038D01*
X213513419Y-82227800D01*
X213418180Y-82084942D01*
X213370561Y-82037323D01*
X205651600Y-88539580D02*
X205651600Y-87539580D01*
X205889695Y-87539580D01*
X206032552Y-87587200D01*
X206127790Y-87682438D01*
X206175409Y-87777676D01*
X206223028Y-87968152D01*
X206223028Y-88111009D01*
X206175409Y-88301485D01*
X206127790Y-88396723D01*
X206032552Y-88491961D01*
X205889695Y-88539580D01*
X205651600Y-88539580D01*
X206794457Y-87968152D02*
X206699219Y-87920533D01*
X206651600Y-87872914D01*
X206603980Y-87777676D01*
X206603980Y-87730057D01*
X206651600Y-87634819D01*
X206699219Y-87587200D01*
X206794457Y-87539580D01*
X206984933Y-87539580D01*
X207080171Y-87587200D01*
X207127790Y-87634819D01*
X207175409Y-87730057D01*
X207175409Y-87777676D01*
X207127790Y-87872914D01*
X207080171Y-87920533D01*
X206984933Y-87968152D01*
X206794457Y-87968152D01*
X206699219Y-88015771D01*
X206651600Y-88063390D01*
X206603980Y-88158628D01*
X206603980Y-88349104D01*
X206651600Y-88444342D01*
X206699219Y-88491961D01*
X206794457Y-88539580D01*
X206984933Y-88539580D01*
X207080171Y-88491961D01*
X207127790Y-88444342D01*
X207175409Y-88349104D01*
X207175409Y-88158628D01*
X207127790Y-88063390D01*
X207080171Y-88015771D01*
X206984933Y-87968152D01*
X207746838Y-88539580D02*
X207651600Y-88491961D01*
X207603980Y-88444342D01*
X207556361Y-88349104D01*
X207556361Y-88063390D01*
X207603980Y-87968152D01*
X207651600Y-87920533D01*
X207746838Y-87872914D01*
X207889695Y-87872914D01*
X207984933Y-87920533D01*
X208032552Y-87968152D01*
X208080171Y-88063390D01*
X208080171Y-88349104D01*
X208032552Y-88444342D01*
X207984933Y-88491961D01*
X207889695Y-88539580D01*
X207746838Y-88539580D01*
X208937314Y-87872914D02*
X208937314Y-88539580D01*
X208508742Y-87872914D02*
X208508742Y-88396723D01*
X208556361Y-88491961D01*
X208651600Y-88539580D01*
X208794457Y-88539580D01*
X208889695Y-88491961D01*
X208937314Y-88444342D01*
X209270647Y-87872914D02*
X209651600Y-87872914D01*
X209413504Y-87539580D02*
X209413504Y-88396723D01*
X209461123Y-88491961D01*
X209556361Y-88539580D01*
X209651600Y-88539580D01*
X210270647Y-88920533D02*
X210223028Y-88872914D01*
X210127790Y-88730057D01*
X210080171Y-88634819D01*
X210032552Y-88491961D01*
X209984933Y-88253866D01*
X209984933Y-88063390D01*
X210032552Y-87825295D01*
X210080171Y-87682438D01*
X210127790Y-87587200D01*
X210223028Y-87444342D01*
X210270647Y-87396723D01*
X210651600Y-88539580D02*
X210651600Y-87539580D01*
X211127790Y-87872914D02*
X211127790Y-88539580D01*
X211127790Y-87968152D02*
X211175409Y-87920533D01*
X211270647Y-87872914D01*
X211413504Y-87872914D01*
X211508742Y-87920533D01*
X211556361Y-88015771D01*
X211556361Y-88539580D01*
X212032552Y-87872914D02*
X212032552Y-88730057D01*
X211984933Y-88825295D01*
X211889695Y-88872914D01*
X211842076Y-88872914D01*
X212032552Y-87539580D02*
X211984933Y-87587200D01*
X212032552Y-87634819D01*
X212080171Y-87587200D01*
X212032552Y-87539580D01*
X212032552Y-87634819D01*
X213032552Y-88539580D02*
X212461123Y-88539580D01*
X212746838Y-88539580D02*
X212746838Y-87539580D01*
X212651600Y-87682438D01*
X212556361Y-87777676D01*
X212461123Y-87825295D01*
X213365885Y-88920533D02*
X213413504Y-88872914D01*
X213508742Y-88730057D01*
X213556361Y-88634819D01*
X213603980Y-88491961D01*
X213651600Y-88253866D01*
X213651600Y-88063390D01*
X213603980Y-87825295D01*
X213556361Y-87682438D01*
X213508742Y-87587200D01*
X213413504Y-87444342D01*
X213365885Y-87396723D01*
X205753200Y-93797380D02*
X205753200Y-92797380D01*
X205991295Y-92797380D01*
X206134152Y-92845000D01*
X206229390Y-92940238D01*
X206277009Y-93035476D01*
X206324628Y-93225952D01*
X206324628Y-93368809D01*
X206277009Y-93559285D01*
X206229390Y-93654523D01*
X206134152Y-93749761D01*
X205991295Y-93797380D01*
X205753200Y-93797380D01*
X206800819Y-93797380D02*
X206991295Y-93797380D01*
X207086533Y-93749761D01*
X207134152Y-93702142D01*
X207229390Y-93559285D01*
X207277009Y-93368809D01*
X207277009Y-92987857D01*
X207229390Y-92892619D01*
X207181771Y-92845000D01*
X207086533Y-92797380D01*
X206896057Y-92797380D01*
X206800819Y-92845000D01*
X206753200Y-92892619D01*
X206705580Y-92987857D01*
X206705580Y-93225952D01*
X206753200Y-93321190D01*
X206800819Y-93368809D01*
X206896057Y-93416428D01*
X207086533Y-93416428D01*
X207181771Y-93368809D01*
X207229390Y-93321190D01*
X207277009Y-93225952D01*
X207848438Y-93797380D02*
X207753200Y-93749761D01*
X207705580Y-93702142D01*
X207657961Y-93606904D01*
X207657961Y-93321190D01*
X207705580Y-93225952D01*
X207753200Y-93178333D01*
X207848438Y-93130714D01*
X207991295Y-93130714D01*
X208086533Y-93178333D01*
X208134152Y-93225952D01*
X208181771Y-93321190D01*
X208181771Y-93606904D01*
X208134152Y-93702142D01*
X208086533Y-93749761D01*
X207991295Y-93797380D01*
X207848438Y-93797380D01*
X209038914Y-93130714D02*
X209038914Y-93797380D01*
X208610342Y-93130714D02*
X208610342Y-93654523D01*
X208657961Y-93749761D01*
X208753200Y-93797380D01*
X208896057Y-93797380D01*
X208991295Y-93749761D01*
X209038914Y-93702142D01*
X209372247Y-93130714D02*
X209753200Y-93130714D01*
X209515104Y-92797380D02*
X209515104Y-93654523D01*
X209562723Y-93749761D01*
X209657961Y-93797380D01*
X209753200Y-93797380D01*
X210372247Y-94178333D02*
X210324628Y-94130714D01*
X210229390Y-93987857D01*
X210181771Y-93892619D01*
X210134152Y-93749761D01*
X210086533Y-93511666D01*
X210086533Y-93321190D01*
X210134152Y-93083095D01*
X210181771Y-92940238D01*
X210229390Y-92845000D01*
X210324628Y-92702142D01*
X210372247Y-92654523D01*
X210753200Y-93797380D02*
X210753200Y-92797380D01*
X211229390Y-93130714D02*
X211229390Y-93797380D01*
X211229390Y-93225952D02*
X211277009Y-93178333D01*
X211372247Y-93130714D01*
X211515104Y-93130714D01*
X211610342Y-93178333D01*
X211657961Y-93273571D01*
X211657961Y-93797380D01*
X212134152Y-93130714D02*
X212134152Y-93987857D01*
X212086533Y-94083095D01*
X211991295Y-94130714D01*
X211943676Y-94130714D01*
X212134152Y-92797380D02*
X212086533Y-92845000D01*
X212134152Y-92892619D01*
X212181771Y-92845000D01*
X212134152Y-92797380D01*
X212134152Y-92892619D01*
X212562723Y-92892619D02*
X212610342Y-92845000D01*
X212705580Y-92797380D01*
X212943676Y-92797380D01*
X213038914Y-92845000D01*
X213086533Y-92892619D01*
X213134152Y-92987857D01*
X213134152Y-93083095D01*
X213086533Y-93225952D01*
X212515104Y-93797380D01*
X213134152Y-93797380D01*
X213467485Y-94178333D02*
X213515104Y-94130714D01*
X213610342Y-93987857D01*
X213657961Y-93892619D01*
X213705580Y-93749761D01*
X213753200Y-93511666D01*
X213753200Y-93321190D01*
X213705580Y-93083095D01*
X213657961Y-92940238D01*
X213610342Y-92845000D01*
X213515104Y-92702142D01*
X213467485Y-92654523D01*
X203487971Y-98470980D02*
X203487971Y-97470980D01*
X203726066Y-97470980D01*
X203868923Y-97518600D01*
X203964161Y-97613838D01*
X204011780Y-97709076D01*
X204059400Y-97899552D01*
X204059400Y-98042409D01*
X204011780Y-98232885D01*
X203964161Y-98328123D01*
X203868923Y-98423361D01*
X203726066Y-98470980D01*
X203487971Y-98470980D01*
X205011780Y-98470980D02*
X204440352Y-98470980D01*
X204726066Y-98470980D02*
X204726066Y-97470980D01*
X204630828Y-97613838D01*
X204535590Y-97709076D01*
X204440352Y-97756695D01*
X205630828Y-97470980D02*
X205726066Y-97470980D01*
X205821304Y-97518600D01*
X205868923Y-97566219D01*
X205916542Y-97661457D01*
X205964161Y-97851933D01*
X205964161Y-98090028D01*
X205916542Y-98280504D01*
X205868923Y-98375742D01*
X205821304Y-98423361D01*
X205726066Y-98470980D01*
X205630828Y-98470980D01*
X205535590Y-98423361D01*
X205487971Y-98375742D01*
X205440352Y-98280504D01*
X205392733Y-98090028D01*
X205392733Y-97851933D01*
X205440352Y-97661457D01*
X205487971Y-97566219D01*
X205535590Y-97518600D01*
X205630828Y-97470980D01*
X206535590Y-98470980D02*
X206440352Y-98423361D01*
X206392733Y-98375742D01*
X206345114Y-98280504D01*
X206345114Y-97994790D01*
X206392733Y-97899552D01*
X206440352Y-97851933D01*
X206535590Y-97804314D01*
X206678447Y-97804314D01*
X206773685Y-97851933D01*
X206821304Y-97899552D01*
X206868923Y-97994790D01*
X206868923Y-98280504D01*
X206821304Y-98375742D01*
X206773685Y-98423361D01*
X206678447Y-98470980D01*
X206535590Y-98470980D01*
X207726066Y-97804314D02*
X207726066Y-98470980D01*
X207297495Y-97804314D02*
X207297495Y-98328123D01*
X207345114Y-98423361D01*
X207440352Y-98470980D01*
X207583209Y-98470980D01*
X207678447Y-98423361D01*
X207726066Y-98375742D01*
X208059400Y-97804314D02*
X208440352Y-97804314D01*
X208202257Y-97470980D02*
X208202257Y-98328123D01*
X208249876Y-98423361D01*
X208345114Y-98470980D01*
X208440352Y-98470980D01*
X209059400Y-98851933D02*
X209011780Y-98804314D01*
X208916542Y-98661457D01*
X208868923Y-98566219D01*
X208821304Y-98423361D01*
X208773685Y-98185266D01*
X208773685Y-97994790D01*
X208821304Y-97756695D01*
X208868923Y-97613838D01*
X208916542Y-97518600D01*
X209011780Y-97375742D01*
X209059400Y-97328123D01*
X209440352Y-98470980D02*
X209440352Y-97470980D01*
X210345114Y-98470980D02*
X210345114Y-97470980D01*
X210345114Y-98423361D02*
X210249876Y-98470980D01*
X210059400Y-98470980D01*
X209964161Y-98423361D01*
X209916542Y-98375742D01*
X209868923Y-98280504D01*
X209868923Y-97994790D01*
X209916542Y-97899552D01*
X209964161Y-97851933D01*
X210059400Y-97804314D01*
X210249876Y-97804314D01*
X210345114Y-97851933D01*
X210964161Y-98470980D02*
X210868923Y-98423361D01*
X210821304Y-98328123D01*
X210821304Y-97470980D01*
X211726066Y-98423361D02*
X211630828Y-98470980D01*
X211440352Y-98470980D01*
X211345114Y-98423361D01*
X211297495Y-98328123D01*
X211297495Y-97947171D01*
X211345114Y-97851933D01*
X211440352Y-97804314D01*
X211630828Y-97804314D01*
X211726066Y-97851933D01*
X211773685Y-97947171D01*
X211773685Y-98042409D01*
X211297495Y-98137647D01*
X212202257Y-98090028D02*
X212964161Y-98090028D01*
X213345114Y-98851933D02*
X213392733Y-98804314D01*
X213487971Y-98661457D01*
X213535590Y-98566219D01*
X213583209Y-98423361D01*
X213630828Y-98185266D01*
X213630828Y-97994790D01*
X213583209Y-97756695D01*
X213535590Y-97613838D01*
X213487971Y-97518600D01*
X213392733Y-97375742D01*
X213345114Y-97328123D01*
X204902323Y-102627180D02*
X205473752Y-102627180D01*
X205188038Y-103627180D02*
X205188038Y-102627180D01*
X206235657Y-103627180D02*
X206235657Y-103103371D01*
X206188038Y-103008133D01*
X206092800Y-102960514D01*
X205902323Y-102960514D01*
X205807085Y-103008133D01*
X206235657Y-103579561D02*
X206140419Y-103627180D01*
X205902323Y-103627180D01*
X205807085Y-103579561D01*
X205759466Y-103484323D01*
X205759466Y-103389085D01*
X205807085Y-103293847D01*
X205902323Y-103246228D01*
X206140419Y-103246228D01*
X206235657Y-103198609D01*
X207140419Y-103579561D02*
X207045180Y-103627180D01*
X206854704Y-103627180D01*
X206759466Y-103579561D01*
X206711847Y-103531942D01*
X206664228Y-103436704D01*
X206664228Y-103150990D01*
X206711847Y-103055752D01*
X206759466Y-103008133D01*
X206854704Y-102960514D01*
X207045180Y-102960514D01*
X207140419Y-103008133D01*
X207568990Y-103627180D02*
X207568990Y-102627180D01*
X207997561Y-103627180D02*
X207997561Y-103103371D01*
X207949942Y-103008133D01*
X207854704Y-102960514D01*
X207711847Y-102960514D01*
X207616609Y-103008133D01*
X207568990Y-103055752D01*
X208616609Y-103627180D02*
X208521371Y-103579561D01*
X208473752Y-103531942D01*
X208426133Y-103436704D01*
X208426133Y-103150990D01*
X208473752Y-103055752D01*
X208521371Y-103008133D01*
X208616609Y-102960514D01*
X208759466Y-102960514D01*
X208854704Y-103008133D01*
X208902323Y-103055752D01*
X208949942Y-103150990D01*
X208949942Y-103436704D01*
X208902323Y-103531942D01*
X208854704Y-103579561D01*
X208759466Y-103627180D01*
X208616609Y-103627180D01*
X209378514Y-103627180D02*
X209378514Y-102960514D01*
X209378514Y-103055752D02*
X209426133Y-103008133D01*
X209521371Y-102960514D01*
X209664228Y-102960514D01*
X209759466Y-103008133D01*
X209807085Y-103103371D01*
X209807085Y-103627180D01*
X209807085Y-103103371D02*
X209854704Y-103008133D01*
X209949942Y-102960514D01*
X210092800Y-102960514D01*
X210188038Y-103008133D01*
X210235657Y-103103371D01*
X210235657Y-103627180D01*
X211092800Y-103579561D02*
X210997561Y-103627180D01*
X210807085Y-103627180D01*
X210711847Y-103579561D01*
X210664228Y-103484323D01*
X210664228Y-103103371D01*
X210711847Y-103008133D01*
X210807085Y-102960514D01*
X210997561Y-102960514D01*
X211092800Y-103008133D01*
X211140419Y-103103371D01*
X211140419Y-103198609D01*
X210664228Y-103293847D01*
X211426133Y-102960514D02*
X211807085Y-102960514D01*
X211568990Y-102627180D02*
X211568990Y-103484323D01*
X211616609Y-103579561D01*
X211711847Y-103627180D01*
X211807085Y-103627180D01*
X212521371Y-103579561D02*
X212426133Y-103627180D01*
X212235657Y-103627180D01*
X212140419Y-103579561D01*
X212092800Y-103484323D01*
X212092800Y-103103371D01*
X212140419Y-103008133D01*
X212235657Y-102960514D01*
X212426133Y-102960514D01*
X212521371Y-103008133D01*
X212568990Y-103103371D01*
X212568990Y-103198609D01*
X212092800Y-103293847D01*
X212997561Y-103627180D02*
X212997561Y-102960514D01*
X212997561Y-103150990D02*
X213045180Y-103055752D01*
X213092800Y-103008133D01*
X213188038Y-102960514D01*
X213283276Y-102960514D01*
X211294742Y-117305200D02*
X211199504Y-117257580D01*
X211056647Y-117257580D01*
X210913790Y-117305200D01*
X210818552Y-117400438D01*
X210770933Y-117495676D01*
X210723314Y-117686152D01*
X210723314Y-117829009D01*
X210770933Y-118019485D01*
X210818552Y-118114723D01*
X210913790Y-118209961D01*
X211056647Y-118257580D01*
X211151885Y-118257580D01*
X211294742Y-118209961D01*
X211342361Y-118162342D01*
X211342361Y-117829009D01*
X211151885Y-117829009D01*
X211770933Y-117590914D02*
X211770933Y-118257580D01*
X211770933Y-117686152D02*
X211818552Y-117638533D01*
X211913790Y-117590914D01*
X212056647Y-117590914D01*
X212151885Y-117638533D01*
X212199504Y-117733771D01*
X212199504Y-118257580D01*
X213104266Y-118257580D02*
X213104266Y-117257580D01*
X213104266Y-118209961D02*
X213009028Y-118257580D01*
X212818552Y-118257580D01*
X212723314Y-118209961D01*
X212675695Y-118162342D01*
X212628076Y-118067104D01*
X212628076Y-117781390D01*
X212675695Y-117686152D01*
X212723314Y-117638533D01*
X212818552Y-117590914D01*
X213009028Y-117590914D01*
X213104266Y-117638533D01*
X210272476Y-108586542D02*
X210224857Y-108634161D01*
X210082000Y-108681780D01*
X209986761Y-108681780D01*
X209843904Y-108634161D01*
X209748666Y-108538923D01*
X209701047Y-108443685D01*
X209653428Y-108253209D01*
X209653428Y-108110352D01*
X209701047Y-107919876D01*
X209748666Y-107824638D01*
X209843904Y-107729400D01*
X209986761Y-107681780D01*
X210082000Y-107681780D01*
X210224857Y-107729400D01*
X210272476Y-107777019D01*
X210701047Y-108681780D02*
X210701047Y-107681780D01*
X211272476Y-108681780D02*
X210843904Y-108110352D01*
X211272476Y-107681780D02*
X210701047Y-108253209D01*
X211701047Y-108681780D02*
X211701047Y-107681780D01*
X212082000Y-107681780D01*
X212177238Y-107729400D01*
X212224857Y-107777019D01*
X212272476Y-107872257D01*
X212272476Y-108015114D01*
X212224857Y-108110352D01*
X212177238Y-108157971D01*
X212082000Y-108205590D01*
X211701047Y-108205590D01*
X212701047Y-108300828D02*
X213462952Y-108300828D01*
X213082000Y-108681780D02*
X213082000Y-107919876D01*
X210348676Y-113082342D02*
X210301057Y-113129961D01*
X210158200Y-113177580D01*
X210062961Y-113177580D01*
X209920104Y-113129961D01*
X209824866Y-113034723D01*
X209777247Y-112939485D01*
X209729628Y-112749009D01*
X209729628Y-112606152D01*
X209777247Y-112415676D01*
X209824866Y-112320438D01*
X209920104Y-112225200D01*
X210062961Y-112177580D01*
X210158200Y-112177580D01*
X210301057Y-112225200D01*
X210348676Y-112272819D01*
X210777247Y-113177580D02*
X210777247Y-112177580D01*
X211348676Y-113177580D02*
X210920104Y-112606152D01*
X211348676Y-112177580D02*
X210777247Y-112749009D01*
X211777247Y-113177580D02*
X211777247Y-112177580D01*
X212158200Y-112177580D01*
X212253438Y-112225200D01*
X212301057Y-112272819D01*
X212348676Y-112368057D01*
X212348676Y-112510914D01*
X212301057Y-112606152D01*
X212253438Y-112653771D01*
X212158200Y-112701390D01*
X211777247Y-112701390D01*
X212777247Y-112796628D02*
X213539152Y-112796628D01*
X110426571Y-62063380D02*
X110617047Y-62063380D01*
X110712285Y-62111000D01*
X110807523Y-62206238D01*
X110855142Y-62396714D01*
X110855142Y-62730047D01*
X110807523Y-62920523D01*
X110712285Y-63015761D01*
X110617047Y-63063380D01*
X110426571Y-63063380D01*
X110331333Y-63015761D01*
X110236095Y-62920523D01*
X110188476Y-62730047D01*
X110188476Y-62396714D01*
X110236095Y-62206238D01*
X110331333Y-62111000D01*
X110426571Y-62063380D01*
X111236095Y-62158619D02*
X111283714Y-62111000D01*
X111378952Y-62063380D01*
X111617047Y-62063380D01*
X111712285Y-62111000D01*
X111759904Y-62158619D01*
X111807523Y-62253857D01*
X111807523Y-62349095D01*
X111759904Y-62491952D01*
X111188476Y-63063380D01*
X111807523Y-63063380D01*
X110091695Y-56932580D02*
X110663123Y-56932580D01*
X110377409Y-57932580D02*
X110377409Y-56932580D01*
X110996457Y-57932580D02*
X110996457Y-56932580D01*
X111377409Y-56932580D01*
X111472647Y-56980200D01*
X111520266Y-57027819D01*
X111567885Y-57123057D01*
X111567885Y-57265914D01*
X111520266Y-57361152D01*
X111472647Y-57408771D01*
X111377409Y-57456390D01*
X110996457Y-57456390D01*
X111948838Y-57884961D02*
X112091695Y-57932580D01*
X112329790Y-57932580D01*
X112425028Y-57884961D01*
X112472647Y-57837342D01*
X112520266Y-57742104D01*
X112520266Y-57646866D01*
X112472647Y-57551628D01*
X112425028Y-57504009D01*
X112329790Y-57456390D01*
X112139314Y-57408771D01*
X112044076Y-57361152D01*
X111996457Y-57313533D01*
X111948838Y-57218295D01*
X111948838Y-57123057D01*
X111996457Y-57027819D01*
X112044076Y-56980200D01*
X112139314Y-56932580D01*
X112377409Y-56932580D01*
X112520266Y-56980200D01*
X110877409Y-52757342D02*
X110829790Y-52804961D01*
X110686933Y-52852580D01*
X110591695Y-52852580D01*
X110448838Y-52804961D01*
X110353600Y-52709723D01*
X110305980Y-52614485D01*
X110258361Y-52424009D01*
X110258361Y-52281152D01*
X110305980Y-52090676D01*
X110353600Y-51995438D01*
X110448838Y-51900200D01*
X110591695Y-51852580D01*
X110686933Y-51852580D01*
X110829790Y-51900200D01*
X110877409Y-51947819D01*
X111782171Y-52852580D02*
X111305980Y-52852580D01*
X111305980Y-51852580D01*
X111972647Y-51852580D02*
X112544076Y-51852580D01*
X112258361Y-52852580D02*
X112258361Y-51852580D01*
X110340876Y-47975780D02*
X110340876Y-46975780D01*
X110769447Y-47690066D02*
X111245638Y-47690066D01*
X110674209Y-47975780D02*
X111007542Y-46975780D01*
X111340876Y-47975780D01*
X111531352Y-46975780D02*
X112102780Y-46975780D01*
X111817066Y-47975780D02*
X111817066Y-46975780D01*
X110206114Y-43178361D02*
X110348971Y-43225980D01*
X110587066Y-43225980D01*
X110682304Y-43178361D01*
X110729923Y-43130742D01*
X110777542Y-43035504D01*
X110777542Y-42940266D01*
X110729923Y-42845028D01*
X110682304Y-42797409D01*
X110587066Y-42749790D01*
X110396590Y-42702171D01*
X110301352Y-42654552D01*
X110253733Y-42606933D01*
X110206114Y-42511695D01*
X110206114Y-42416457D01*
X110253733Y-42321219D01*
X110301352Y-42273600D01*
X110396590Y-42225980D01*
X110634685Y-42225980D01*
X110777542Y-42273600D01*
X111206114Y-43225980D02*
X111206114Y-42559314D01*
X111206114Y-42225980D02*
X111158495Y-42273600D01*
X111206114Y-42321219D01*
X111253733Y-42273600D01*
X111206114Y-42225980D01*
X111206114Y-42321219D01*
X112110876Y-42559314D02*
X112110876Y-43368838D01*
X112063257Y-43464076D01*
X112015638Y-43511695D01*
X111920400Y-43559314D01*
X111777542Y-43559314D01*
X111682304Y-43511695D01*
X112110876Y-43178361D02*
X112015638Y-43225980D01*
X111825161Y-43225980D01*
X111729923Y-43178361D01*
X111682304Y-43130742D01*
X111634685Y-43035504D01*
X111634685Y-42749790D01*
X111682304Y-42654552D01*
X111729923Y-42606933D01*
X111825161Y-42559314D01*
X112015638Y-42559314D01*
X112110876Y-42606933D01*
X113158495Y-43225980D02*
X112825161Y-42749790D01*
X112587066Y-43225980D02*
X112587066Y-42225980D01*
X112968019Y-42225980D01*
X113063257Y-42273600D01*
X113110876Y-42321219D01*
X113158495Y-42416457D01*
X113158495Y-42559314D01*
X113110876Y-42654552D01*
X113063257Y-42702171D01*
X112968019Y-42749790D01*
X112587066Y-42749790D01*
X113444209Y-42559314D02*
X113825161Y-42559314D01*
X113587066Y-42225980D02*
X113587066Y-43083123D01*
X113634685Y-43178361D01*
X113729923Y-43225980D01*
X113825161Y-43225980D01*
X114158495Y-42559314D02*
X114158495Y-43225980D01*
X114158495Y-42654552D02*
X114206114Y-42606933D01*
X114301352Y-42559314D01*
X114444209Y-42559314D01*
X114539447Y-42606933D01*
X114587066Y-42702171D01*
X114587066Y-43225980D01*
X110302895Y-36968180D02*
X110636228Y-37968180D01*
X110969561Y-36968180D01*
X111302895Y-37968180D02*
X111302895Y-36968180D01*
X111540990Y-36968180D01*
X111683847Y-37015800D01*
X111779085Y-37111038D01*
X111826704Y-37206276D01*
X111874323Y-37396752D01*
X111874323Y-37539609D01*
X111826704Y-37730085D01*
X111779085Y-37825323D01*
X111683847Y-37920561D01*
X111540990Y-37968180D01*
X111302895Y-37968180D01*
X112302895Y-37968180D02*
X112302895Y-36968180D01*
X112540990Y-36968180D01*
X112683847Y-37015800D01*
X112779085Y-37111038D01*
X112826704Y-37206276D01*
X112874323Y-37396752D01*
X112874323Y-37539609D01*
X112826704Y-37730085D01*
X112779085Y-37825323D01*
X112683847Y-37920561D01*
X112540990Y-37968180D01*
X112302895Y-37968180D01*
X113255276Y-37682466D02*
X113731466Y-37682466D01*
X113160038Y-37968180D02*
X113493371Y-36968180D01*
X113826704Y-37968180D01*
X110103542Y-33319980D02*
X110103542Y-32319980D01*
X110341638Y-32319980D01*
X110484495Y-32367600D01*
X110579733Y-32462838D01*
X110627352Y-32558076D01*
X110674971Y-32748552D01*
X110674971Y-32891409D01*
X110627352Y-33081885D01*
X110579733Y-33177123D01*
X110484495Y-33272361D01*
X110341638Y-33319980D01*
X110103542Y-33319980D01*
X111627352Y-33319980D02*
X111055923Y-33319980D01*
X111341638Y-33319980D02*
X111341638Y-32319980D01*
X111246400Y-32462838D01*
X111151161Y-32558076D01*
X111055923Y-32605695D01*
X112579733Y-33319980D02*
X112008304Y-33319980D01*
X112294019Y-33319980D02*
X112294019Y-32319980D01*
X112198780Y-32462838D01*
X112103542Y-32558076D01*
X112008304Y-32605695D01*
X113151161Y-33319980D02*
X113055923Y-33272361D01*
X113008304Y-33224742D01*
X112960685Y-33129504D01*
X112960685Y-32843790D01*
X113008304Y-32748552D01*
X113055923Y-32700933D01*
X113151161Y-32653314D01*
X113294019Y-32653314D01*
X113389257Y-32700933D01*
X113436876Y-32748552D01*
X113484495Y-32843790D01*
X113484495Y-33129504D01*
X113436876Y-33224742D01*
X113389257Y-33272361D01*
X113294019Y-33319980D01*
X113151161Y-33319980D01*
X114341638Y-32653314D02*
X114341638Y-33319980D01*
X113913066Y-32653314D02*
X113913066Y-33177123D01*
X113960685Y-33272361D01*
X114055923Y-33319980D01*
X114198780Y-33319980D01*
X114294019Y-33272361D01*
X114341638Y-33224742D01*
X114674971Y-32653314D02*
X115055923Y-32653314D01*
X114817828Y-32319980D02*
X114817828Y-33177123D01*
X114865447Y-33272361D01*
X114960685Y-33319980D01*
X115055923Y-33319980D01*
X115674971Y-33700933D02*
X115627352Y-33653314D01*
X115532114Y-33510457D01*
X115484495Y-33415219D01*
X115436876Y-33272361D01*
X115389257Y-33034266D01*
X115389257Y-32843790D01*
X115436876Y-32605695D01*
X115484495Y-32462838D01*
X115532114Y-32367600D01*
X115627352Y-32224742D01*
X115674971Y-32177123D01*
X116008304Y-33272361D02*
X116103542Y-33319980D01*
X116294019Y-33319980D01*
X116389257Y-33272361D01*
X116436876Y-33177123D01*
X116436876Y-33129504D01*
X116389257Y-33034266D01*
X116294019Y-32986647D01*
X116151161Y-32986647D01*
X116055923Y-32939028D01*
X116008304Y-32843790D01*
X116008304Y-32796171D01*
X116055923Y-32700933D01*
X116151161Y-32653314D01*
X116294019Y-32653314D01*
X116389257Y-32700933D01*
X116865447Y-32653314D02*
X116865447Y-33653314D01*
X116865447Y-32700933D02*
X116960685Y-32653314D01*
X117151161Y-32653314D01*
X117246400Y-32700933D01*
X117294019Y-32748552D01*
X117341638Y-32843790D01*
X117341638Y-33129504D01*
X117294019Y-33224742D01*
X117246400Y-33272361D01*
X117151161Y-33319980D01*
X116960685Y-33319980D01*
X116865447Y-33272361D01*
X118198780Y-33319980D02*
X118198780Y-32796171D01*
X118151161Y-32700933D01*
X118055923Y-32653314D01*
X117865447Y-32653314D01*
X117770209Y-32700933D01*
X118198780Y-33272361D02*
X118103542Y-33319980D01*
X117865447Y-33319980D01*
X117770209Y-33272361D01*
X117722590Y-33177123D01*
X117722590Y-33081885D01*
X117770209Y-32986647D01*
X117865447Y-32939028D01*
X118103542Y-32939028D01*
X118198780Y-32891409D01*
X118674971Y-33319980D02*
X118674971Y-32653314D01*
X118674971Y-32843790D02*
X118722590Y-32748552D01*
X118770209Y-32700933D01*
X118865447Y-32653314D01*
X118960685Y-32653314D01*
X119674971Y-33272361D02*
X119579733Y-33319980D01*
X119389257Y-33319980D01*
X119294019Y-33272361D01*
X119246400Y-33177123D01*
X119246400Y-32796171D01*
X119294019Y-32700933D01*
X119389257Y-32653314D01*
X119579733Y-32653314D01*
X119674971Y-32700933D01*
X119722590Y-32796171D01*
X119722590Y-32891409D01*
X119246400Y-32986647D01*
X120913066Y-33319980D02*
X120913066Y-32319980D01*
X120913066Y-32796171D02*
X121484495Y-32796171D01*
X121484495Y-33319980D02*
X121484495Y-32319980D01*
X122532114Y-33224742D02*
X122484495Y-33272361D01*
X122341638Y-33319980D01*
X122246399Y-33319980D01*
X122103542Y-33272361D01*
X122008304Y-33177123D01*
X121960685Y-33081885D01*
X121913066Y-32891409D01*
X121913066Y-32748552D01*
X121960685Y-32558076D01*
X122008304Y-32462838D01*
X122103542Y-32367600D01*
X122246399Y-32319980D01*
X122341638Y-32319980D01*
X122484495Y-32367600D01*
X122532114Y-32415219D01*
X122960685Y-32939028D02*
X123722590Y-32939028D01*
X124103542Y-33700933D02*
X124151161Y-33653314D01*
X124246399Y-33510457D01*
X124294019Y-33415219D01*
X124341638Y-33272361D01*
X124389257Y-33034266D01*
X124389257Y-32843790D01*
X124341638Y-32605695D01*
X124294019Y-32462838D01*
X124246399Y-32367600D01*
X124151161Y-32224742D01*
X124103542Y-32177123D01*
X110231704Y-67994161D02*
X110374561Y-68041780D01*
X110612657Y-68041780D01*
X110707895Y-67994161D01*
X110755514Y-67946542D01*
X110803133Y-67851304D01*
X110803133Y-67756066D01*
X110755514Y-67660828D01*
X110707895Y-67613209D01*
X110612657Y-67565590D01*
X110422180Y-67517971D01*
X110326942Y-67470352D01*
X110279323Y-67422733D01*
X110231704Y-67327495D01*
X110231704Y-67232257D01*
X110279323Y-67137019D01*
X110326942Y-67089400D01*
X110422180Y-67041780D01*
X110660276Y-67041780D01*
X110803133Y-67089400D01*
X111231704Y-67375114D02*
X111231704Y-68375114D01*
X111231704Y-67422733D02*
X111326942Y-67375114D01*
X111517419Y-67375114D01*
X111612657Y-67422733D01*
X111660276Y-67470352D01*
X111707895Y-67565590D01*
X111707895Y-67851304D01*
X111660276Y-67946542D01*
X111612657Y-67994161D01*
X111517419Y-68041780D01*
X111326942Y-68041780D01*
X111231704Y-67994161D01*
X112565038Y-68041780D02*
X112565038Y-67517971D01*
X112517419Y-67422733D01*
X112422180Y-67375114D01*
X112231704Y-67375114D01*
X112136466Y-67422733D01*
X112565038Y-67994161D02*
X112469800Y-68041780D01*
X112231704Y-68041780D01*
X112136466Y-67994161D01*
X112088847Y-67898923D01*
X112088847Y-67803685D01*
X112136466Y-67708447D01*
X112231704Y-67660828D01*
X112469800Y-67660828D01*
X112565038Y-67613209D01*
X113041228Y-68041780D02*
X113041228Y-67375114D01*
X113041228Y-67565590D02*
X113088847Y-67470352D01*
X113136466Y-67422733D01*
X113231704Y-67375114D01*
X113326942Y-67375114D01*
X114041228Y-67994161D02*
X113945990Y-68041780D01*
X113755514Y-68041780D01*
X113660276Y-67994161D01*
X113612657Y-67898923D01*
X113612657Y-67517971D01*
X113660276Y-67422733D01*
X113755514Y-67375114D01*
X113945990Y-67375114D01*
X114041228Y-67422733D01*
X114088847Y-67517971D01*
X114088847Y-67613209D01*
X113612657Y-67708447D01*
X115231704Y-67756066D02*
X115707895Y-67756066D01*
X115136466Y-68041780D02*
X115469800Y-67041780D01*
X115803133Y-68041780D01*
X116136466Y-68041780D02*
X116136466Y-67041780D01*
X116374561Y-67041780D01*
X116517419Y-67089400D01*
X116612657Y-67184638D01*
X116660276Y-67279876D01*
X116707895Y-67470352D01*
X116707895Y-67613209D01*
X116660276Y-67803685D01*
X116612657Y-67898923D01*
X116517419Y-67994161D01*
X116374561Y-68041780D01*
X116136466Y-68041780D01*
X117707895Y-67946542D02*
X117660276Y-67994161D01*
X117517419Y-68041780D01*
X117422180Y-68041780D01*
X117279323Y-67994161D01*
X117184085Y-67898923D01*
X117136466Y-67803685D01*
X117088847Y-67613209D01*
X117088847Y-67470352D01*
X117136466Y-67279876D01*
X117184085Y-67184638D01*
X117279323Y-67089400D01*
X117422180Y-67041780D01*
X117517419Y-67041780D01*
X117660276Y-67089400D01*
X117707895Y-67137019D01*
X130020019Y-31618180D02*
X130020019Y-30618180D01*
X130400971Y-30618180D01*
X130496209Y-30665800D01*
X130543828Y-30713419D01*
X130591447Y-30808657D01*
X130591447Y-30951514D01*
X130543828Y-31046752D01*
X130496209Y-31094371D01*
X130400971Y-31141990D01*
X130020019Y-31141990D01*
X131591447Y-31522942D02*
X131543828Y-31570561D01*
X131400971Y-31618180D01*
X131305733Y-31618180D01*
X131162876Y-31570561D01*
X131067638Y-31475323D01*
X131020019Y-31380085D01*
X130972400Y-31189609D01*
X130972400Y-31046752D01*
X131020019Y-30856276D01*
X131067638Y-30761038D01*
X131162876Y-30665800D01*
X131305733Y-30618180D01*
X131400971Y-30618180D01*
X131543828Y-30665800D01*
X131591447Y-30713419D01*
X132353352Y-31094371D02*
X132496209Y-31141990D01*
X132543828Y-31189609D01*
X132591447Y-31284847D01*
X132591447Y-31427704D01*
X132543828Y-31522942D01*
X132496209Y-31570561D01*
X132400971Y-31618180D01*
X132020019Y-31618180D01*
X132020019Y-30618180D01*
X132353352Y-30618180D01*
X132448590Y-30665800D01*
X132496209Y-30713419D01*
X132543828Y-30808657D01*
X132543828Y-30903895D01*
X132496209Y-30999133D01*
X132448590Y-31046752D01*
X132353352Y-31094371D01*
X132020019Y-31094371D01*
X134210495Y-31618180D02*
X134210495Y-30618180D01*
X134210495Y-31570561D02*
X134115257Y-31618180D01*
X133924780Y-31618180D01*
X133829542Y-31570561D01*
X133781923Y-31522942D01*
X133734304Y-31427704D01*
X133734304Y-31141990D01*
X133781923Y-31046752D01*
X133829542Y-30999133D01*
X133924780Y-30951514D01*
X134115257Y-30951514D01*
X134210495Y-30999133D01*
X135067638Y-31570561D02*
X134972400Y-31618180D01*
X134781923Y-31618180D01*
X134686685Y-31570561D01*
X134639066Y-31475323D01*
X134639066Y-31094371D01*
X134686685Y-30999133D01*
X134781923Y-30951514D01*
X134972400Y-30951514D01*
X135067638Y-30999133D01*
X135115257Y-31094371D01*
X135115257Y-31189609D01*
X134639066Y-31284847D01*
X135496209Y-31570561D02*
X135591447Y-31618180D01*
X135781923Y-31618180D01*
X135877161Y-31570561D01*
X135924780Y-31475323D01*
X135924780Y-31427704D01*
X135877161Y-31332466D01*
X135781923Y-31284847D01*
X135639066Y-31284847D01*
X135543828Y-31237228D01*
X135496209Y-31141990D01*
X135496209Y-31094371D01*
X135543828Y-30999133D01*
X135639066Y-30951514D01*
X135781923Y-30951514D01*
X135877161Y-30999133D01*
X136353352Y-31618180D02*
X136353352Y-30951514D01*
X136353352Y-30618180D02*
X136305733Y-30665800D01*
X136353352Y-30713419D01*
X136400971Y-30665800D01*
X136353352Y-30618180D01*
X136353352Y-30713419D01*
X137258114Y-30951514D02*
X137258114Y-31761038D01*
X137210495Y-31856276D01*
X137162876Y-31903895D01*
X137067638Y-31951514D01*
X136924780Y-31951514D01*
X136829542Y-31903895D01*
X137258114Y-31570561D02*
X137162876Y-31618180D01*
X136972400Y-31618180D01*
X136877161Y-31570561D01*
X136829542Y-31522942D01*
X136781923Y-31427704D01*
X136781923Y-31141990D01*
X136829542Y-31046752D01*
X136877161Y-30999133D01*
X136972400Y-30951514D01*
X137162876Y-30951514D01*
X137258114Y-30999133D01*
X137734304Y-30951514D02*
X137734304Y-31618180D01*
X137734304Y-31046752D02*
X137781923Y-30999133D01*
X137877161Y-30951514D01*
X138020019Y-30951514D01*
X138115257Y-30999133D01*
X138162876Y-31094371D01*
X138162876Y-31618180D01*
X139400971Y-31618180D02*
X139400971Y-30618180D01*
X139400971Y-30999133D02*
X139496209Y-30951514D01*
X139686685Y-30951514D01*
X139781923Y-30999133D01*
X139829542Y-31046752D01*
X139877161Y-31141990D01*
X139877161Y-31427704D01*
X139829542Y-31522942D01*
X139781923Y-31570561D01*
X139686685Y-31618180D01*
X139496209Y-31618180D01*
X139400971Y-31570561D01*
X140210495Y-30951514D02*
X140448590Y-31618180D01*
X140686685Y-30951514D02*
X140448590Y-31618180D01*
X140353352Y-31856276D01*
X140305733Y-31903895D01*
X140210495Y-31951514D01*
X142400971Y-31618180D02*
X142067638Y-31141990D01*
X141829542Y-31618180D02*
X141829542Y-30618180D01*
X142210495Y-30618180D01*
X142305733Y-30665800D01*
X142353352Y-30713419D01*
X142400971Y-30808657D01*
X142400971Y-30951514D01*
X142353352Y-31046752D01*
X142305733Y-31094371D01*
X142210495Y-31141990D01*
X141829542Y-31141990D01*
X142972400Y-31618180D02*
X142877161Y-31570561D01*
X142829542Y-31522942D01*
X142781923Y-31427704D01*
X142781923Y-31141990D01*
X142829542Y-31046752D01*
X142877161Y-30999133D01*
X142972400Y-30951514D01*
X143115257Y-30951514D01*
X143210495Y-30999133D01*
X143258114Y-31046752D01*
X143305733Y-31141990D01*
X143305733Y-31427704D01*
X143258114Y-31522942D01*
X143210495Y-31570561D01*
X143115257Y-31618180D01*
X142972400Y-31618180D01*
X143734304Y-31618180D02*
X143734304Y-30618180D01*
X143734304Y-30999133D02*
X143829542Y-30951514D01*
X144020019Y-30951514D01*
X144115257Y-30999133D01*
X144162876Y-31046752D01*
X144210495Y-31141990D01*
X144210495Y-31427704D01*
X144162876Y-31522942D01*
X144115257Y-31570561D01*
X144020019Y-31618180D01*
X143829542Y-31618180D01*
X143734304Y-31570561D01*
X145020019Y-31570561D02*
X144924780Y-31618180D01*
X144734304Y-31618180D01*
X144639066Y-31570561D01*
X144591447Y-31475323D01*
X144591447Y-31094371D01*
X144639066Y-30999133D01*
X144734304Y-30951514D01*
X144924780Y-30951514D01*
X145020019Y-30999133D01*
X145067638Y-31094371D01*
X145067638Y-31189609D01*
X144591447Y-31284847D01*
X145496209Y-31618180D02*
X145496209Y-30951514D01*
X145496209Y-31141990D02*
X145543828Y-31046752D01*
X145591447Y-30999133D01*
X145686685Y-30951514D01*
X145781923Y-30951514D01*
X145972400Y-30951514D02*
X146353352Y-30951514D01*
X146115257Y-30618180D02*
X146115257Y-31475323D01*
X146162876Y-31570561D01*
X146258114Y-31618180D01*
X146353352Y-31618180D01*
X147448590Y-31618180D02*
X147448590Y-30618180D01*
X147448590Y-31094371D02*
X148020019Y-31094371D01*
X148020019Y-31618180D02*
X148020019Y-30618180D01*
X148496209Y-31618180D02*
X148496209Y-30951514D01*
X148496209Y-30618180D02*
X148448590Y-30665800D01*
X148496209Y-30713419D01*
X148543828Y-30665800D01*
X148496209Y-30618180D01*
X148496209Y-30713419D01*
X149353352Y-31570561D02*
X149258114Y-31618180D01*
X149067638Y-31618180D01*
X148972400Y-31570561D01*
X148924780Y-31475323D01*
X148924780Y-31094371D01*
X148972400Y-30999133D01*
X149067638Y-30951514D01*
X149258114Y-30951514D01*
X149353352Y-30999133D01*
X149400971Y-31094371D01*
X149400971Y-31189609D01*
X148924780Y-31284847D01*
X149829542Y-31618180D02*
X149829542Y-30618180D01*
X149829542Y-30999133D02*
X149924780Y-30951514D01*
X150115257Y-30951514D01*
X150210495Y-30999133D01*
X150258114Y-31046752D01*
X150305733Y-31141990D01*
X150305733Y-31427704D01*
X150258114Y-31522942D01*
X150210495Y-31570561D01*
X150115257Y-31618180D01*
X149924780Y-31618180D01*
X149829542Y-31570561D01*
X151115257Y-31570561D02*
X151020019Y-31618180D01*
X150829542Y-31618180D01*
X150734304Y-31570561D01*
X150686685Y-31475323D01*
X150686685Y-31094371D01*
X150734304Y-30999133D01*
X150829542Y-30951514D01*
X151020019Y-30951514D01*
X151115257Y-30999133D01*
X151162876Y-31094371D01*
X151162876Y-31189609D01*
X150686685Y-31284847D01*
X151591447Y-31618180D02*
X151591447Y-30951514D01*
X151591447Y-31141990D02*
X151639066Y-31046752D01*
X151686685Y-30999133D01*
X151781923Y-30951514D01*
X151877161Y-30951514D01*
X152067638Y-30951514D02*
X152448590Y-30951514D01*
X152210495Y-30618180D02*
X152210495Y-31475323D01*
X152258114Y-31570561D01*
X152353352Y-31618180D01*
X152448590Y-31618180D01*
X153543828Y-31618180D02*
X153543828Y-30618180D01*
X153781923Y-30618180D01*
X153924780Y-30665800D01*
X154020019Y-30761038D01*
X154067638Y-30856276D01*
X154115257Y-31046752D01*
X154115257Y-31189609D01*
X154067638Y-31380085D01*
X154020019Y-31475323D01*
X153924780Y-31570561D01*
X153781923Y-31618180D01*
X153543828Y-31618180D01*
X154924780Y-31570561D02*
X154829542Y-31618180D01*
X154639066Y-31618180D01*
X154543828Y-31570561D01*
X154496209Y-31475323D01*
X154496209Y-31094371D01*
X154543828Y-30999133D01*
X154639066Y-30951514D01*
X154829542Y-30951514D01*
X154924780Y-30999133D01*
X154972400Y-31094371D01*
X154972400Y-31189609D01*
X154496209Y-31284847D01*
X155829542Y-31570561D02*
X155734304Y-31618180D01*
X155543828Y-31618180D01*
X155448590Y-31570561D01*
X155400971Y-31522942D01*
X155353352Y-31427704D01*
X155353352Y-31141990D01*
X155400971Y-31046752D01*
X155448590Y-30999133D01*
X155543828Y-30951514D01*
X155734304Y-30951514D01*
X155829542Y-30999133D01*
X156639066Y-31570561D02*
X156543828Y-31618180D01*
X156353352Y-31618180D01*
X156258114Y-31570561D01*
X156210495Y-31475323D01*
X156210495Y-31094371D01*
X156258114Y-30999133D01*
X156353352Y-30951514D01*
X156543828Y-30951514D01*
X156639066Y-30999133D01*
X156686685Y-31094371D01*
X156686685Y-31189609D01*
X156210495Y-31284847D01*
X157115257Y-31618180D02*
X157115257Y-30951514D01*
X157115257Y-31046752D02*
X157162876Y-30999133D01*
X157258114Y-30951514D01*
X157400971Y-30951514D01*
X157496209Y-30999133D01*
X157543828Y-31094371D01*
X157543828Y-31618180D01*
X157543828Y-31094371D02*
X157591447Y-30999133D01*
X157686685Y-30951514D01*
X157829542Y-30951514D01*
X157924780Y-30999133D01*
X157972400Y-31094371D01*
X157972400Y-31618180D01*
X158448590Y-31618180D02*
X158448590Y-30618180D01*
X158448590Y-30999133D02*
X158543828Y-30951514D01*
X158734304Y-30951514D01*
X158829542Y-30999133D01*
X158877161Y-31046752D01*
X158924780Y-31141990D01*
X158924780Y-31427704D01*
X158877161Y-31522942D01*
X158829542Y-31570561D01*
X158734304Y-31618180D01*
X158543828Y-31618180D01*
X158448590Y-31570561D01*
X159734304Y-31570561D02*
X159639066Y-31618180D01*
X159448590Y-31618180D01*
X159353352Y-31570561D01*
X159305733Y-31475323D01*
X159305733Y-31094371D01*
X159353352Y-30999133D01*
X159448590Y-30951514D01*
X159639066Y-30951514D01*
X159734304Y-30999133D01*
X159781923Y-31094371D01*
X159781923Y-31189609D01*
X159305733Y-31284847D01*
X160210495Y-31618180D02*
X160210495Y-30951514D01*
X160210495Y-31141990D02*
X160258114Y-31046752D01*
X160305733Y-30999133D01*
X160400971Y-30951514D01*
X160496209Y-30951514D01*
X161543828Y-30713419D02*
X161591447Y-30665800D01*
X161686685Y-30618180D01*
X161924780Y-30618180D01*
X162020019Y-30665800D01*
X162067638Y-30713419D01*
X162115257Y-30808657D01*
X162115257Y-30903895D01*
X162067638Y-31046752D01*
X161496209Y-31618180D01*
X162115257Y-31618180D01*
X162734304Y-30618180D02*
X162829542Y-30618180D01*
X162924780Y-30665800D01*
X162972400Y-30713419D01*
X163020019Y-30808657D01*
X163067638Y-30999133D01*
X163067638Y-31237228D01*
X163020019Y-31427704D01*
X162972400Y-31522942D01*
X162924780Y-31570561D01*
X162829542Y-31618180D01*
X162734304Y-31618180D01*
X162639066Y-31570561D01*
X162591447Y-31522942D01*
X162543828Y-31427704D01*
X162496209Y-31237228D01*
X162496209Y-30999133D01*
X162543828Y-30808657D01*
X162591447Y-30713419D01*
X162639066Y-30665800D01*
X162734304Y-30618180D01*
X163448590Y-30713419D02*
X163496209Y-30665800D01*
X163591447Y-30618180D01*
X163829542Y-30618180D01*
X163924780Y-30665800D01*
X163972400Y-30713419D01*
X164020019Y-30808657D01*
X164020019Y-30903895D01*
X163972400Y-31046752D01*
X163400971Y-31618180D01*
X164020019Y-31618180D01*
X164400971Y-30713419D02*
X164448590Y-30665800D01*
X164543828Y-30618180D01*
X164781923Y-30618180D01*
X164877161Y-30665800D01*
X164924780Y-30713419D01*
X164972400Y-30808657D01*
X164972400Y-30903895D01*
X164924780Y-31046752D01*
X164353352Y-31618180D01*
X164972400Y-31618180D01*
X111819752Y-31745180D02*
X111819752Y-30745180D01*
X112153085Y-31459466D01*
X112486419Y-30745180D01*
X112486419Y-31745180D01*
X112914990Y-31459466D02*
X113391180Y-31459466D01*
X112819752Y-31745180D02*
X113153085Y-30745180D01*
X113486419Y-31745180D01*
X113819752Y-31745180D02*
X113819752Y-30745180D01*
X114057847Y-30745180D01*
X114200704Y-30792800D01*
X114295942Y-30888038D01*
X114343561Y-30983276D01*
X114391180Y-31173752D01*
X114391180Y-31316609D01*
X114343561Y-31507085D01*
X114295942Y-31602323D01*
X114200704Y-31697561D01*
X114057847Y-31745180D01*
X113819752Y-31745180D01*
X114819752Y-31221371D02*
X115153085Y-31221371D01*
X115295942Y-31745180D02*
X114819752Y-31745180D01*
X114819752Y-30745180D01*
X115295942Y-30745180D01*
X116819752Y-31221371D02*
X116486419Y-31221371D01*
X116486419Y-31745180D02*
X116486419Y-30745180D01*
X116962609Y-30745180D01*
X117534038Y-30745180D02*
X117724514Y-30745180D01*
X117819752Y-30792800D01*
X117914990Y-30888038D01*
X117962609Y-31078514D01*
X117962609Y-31411847D01*
X117914990Y-31602323D01*
X117819752Y-31697561D01*
X117724514Y-31745180D01*
X117534038Y-31745180D01*
X117438799Y-31697561D01*
X117343561Y-31602323D01*
X117295942Y-31411847D01*
X117295942Y-31078514D01*
X117343561Y-30888038D01*
X117438799Y-30792800D01*
X117534038Y-30745180D01*
X118962609Y-31745180D02*
X118629276Y-31268990D01*
X118391180Y-31745180D02*
X118391180Y-30745180D01*
X118772133Y-30745180D01*
X118867371Y-30792800D01*
X118914990Y-30840419D01*
X118962609Y-30935657D01*
X118962609Y-31078514D01*
X118914990Y-31173752D01*
X118867371Y-31221371D01*
X118772133Y-31268990D01*
X118391180Y-31268990D01*
X120105466Y-31697561D02*
X120248323Y-31745180D01*
X120486419Y-31745180D01*
X120581657Y-31697561D01*
X120629276Y-31649942D01*
X120676895Y-31554704D01*
X120676895Y-31459466D01*
X120629276Y-31364228D01*
X120581657Y-31316609D01*
X120486419Y-31268990D01*
X120295942Y-31221371D01*
X120200704Y-31173752D01*
X120153085Y-31126133D01*
X120105466Y-31030895D01*
X120105466Y-30935657D01*
X120153085Y-30840419D01*
X120200704Y-30792800D01*
X120295942Y-30745180D01*
X120534038Y-30745180D01*
X120676895Y-30792800D01*
X121105466Y-31745180D02*
X121105466Y-30745180D01*
X121486419Y-30745180D01*
X121581657Y-30792800D01*
X121629276Y-30840419D01*
X121676895Y-30935657D01*
X121676895Y-31078514D01*
X121629276Y-31173752D01*
X121581657Y-31221371D01*
X121486419Y-31268990D01*
X121105466Y-31268990D01*
X122105466Y-31221371D02*
X122438799Y-31221371D01*
X122581657Y-31745180D02*
X122105466Y-31745180D01*
X122105466Y-30745180D01*
X122581657Y-30745180D01*
X123010228Y-31221371D02*
X123343561Y-31221371D01*
X123486419Y-31745180D02*
X123010228Y-31745180D01*
X123010228Y-30745180D01*
X123486419Y-30745180D01*
X123914990Y-31745180D02*
X123914990Y-30745180D01*
X124153085Y-30745180D01*
X124295942Y-30792800D01*
X124391180Y-30888038D01*
X124438799Y-30983276D01*
X124486419Y-31173752D01*
X124486419Y-31316609D01*
X124438799Y-31507085D01*
X124391180Y-31602323D01*
X124295942Y-31697561D01*
X124153085Y-31745180D01*
X123914990Y-31745180D01*
X124914990Y-30745180D02*
X124914990Y-31554704D01*
X124962609Y-31649942D01*
X125010228Y-31697561D01*
X125105466Y-31745180D01*
X125295942Y-31745180D01*
X125391180Y-31697561D01*
X125438799Y-31649942D01*
X125486419Y-31554704D01*
X125486419Y-30745180D01*
X125962609Y-31745180D02*
X125962609Y-30745180D01*
X126438799Y-31745180D02*
X126438799Y-30745180D01*
X127010228Y-31745180D01*
X127010228Y-30745180D01*
X127676895Y-30745180D02*
X127867371Y-30745180D01*
X127962609Y-30792800D01*
X128057847Y-30888038D01*
X128105466Y-31078514D01*
X128105466Y-31411847D01*
X128057847Y-31602323D01*
X127962609Y-31697561D01*
X127867371Y-31745180D01*
X127676895Y-31745180D01*
X127581657Y-31697561D01*
X127486419Y-31602323D01*
X127438799Y-31411847D01*
X127438799Y-31078514D01*
X127486419Y-30888038D01*
X127581657Y-30792800D01*
X127676895Y-30745180D01*
D12*
%TO.C,R9*%
X203427000Y-105340400D02*
X200687000Y-105340400D01*
X200687000Y-105340400D02*
X200687000Y-111880400D01*
X200687000Y-111880400D02*
X203427000Y-111880400D01*
X203427000Y-111880400D02*
X203427000Y-105340400D01*
X202057000Y-104570400D02*
X202057000Y-105340400D01*
X202057000Y-112650400D02*
X202057000Y-111880400D01*
%TO.C,K1*%
X171260600Y-59503400D02*
X171260600Y-33003400D01*
X171260600Y-33003400D02*
X197760600Y-33003400D01*
X171260600Y-59503400D02*
X197760600Y-59503400D01*
X197760600Y-59503400D02*
X197760600Y-33003400D01*
%TO.C,K2*%
X144362000Y-59503400D02*
X144362000Y-33003400D01*
X144362000Y-33003400D02*
X170862000Y-33003400D01*
X144362000Y-59503400D02*
X170862000Y-59503400D01*
X170862000Y-59503400D02*
X170862000Y-33003400D01*
%TO.C,Q5*%
X194230600Y-81362800D02*
X194230600Y-82872800D01*
X190529600Y-81362800D02*
X190529600Y-82872800D01*
X187259600Y-82872800D02*
X197499600Y-82872800D01*
X197499600Y-81362800D02*
X197499600Y-86003800D01*
X187259600Y-81362800D02*
X187259600Y-86003800D01*
X187259600Y-86003800D02*
X197499600Y-86003800D01*
X187259600Y-81362800D02*
X197499600Y-81362800D01*
%TO.C,J9*%
X220776800Y-87452200D02*
X222046800Y-87452200D01*
X220776800Y-88976200D02*
X220776800Y-87452200D01*
X222046800Y-88976200D02*
X220776800Y-88976200D01*
X220776800Y-92532200D02*
X222046800Y-92532200D01*
X220776800Y-94056200D02*
X220776800Y-92532200D01*
X222046800Y-94056200D02*
X220776800Y-94056200D01*
X220776800Y-97358200D02*
X222046800Y-97358200D01*
X220776800Y-99136200D02*
X220776800Y-97358200D01*
X222046800Y-99136200D02*
X220776800Y-99136200D01*
X220776800Y-102438200D02*
X222046800Y-102438200D01*
X220776800Y-104216200D02*
X220776800Y-102438200D01*
X222046800Y-104216200D02*
X220776800Y-104216200D01*
X220776800Y-107518200D02*
X222046800Y-107518200D01*
X220776800Y-109296200D02*
X220776800Y-107518200D01*
X222046800Y-109296200D02*
X220776800Y-109296200D01*
X220776800Y-112598200D02*
X222046800Y-112598200D01*
X220776800Y-114122200D02*
X220776800Y-112598200D01*
X222046800Y-114122200D02*
X220776800Y-114122200D01*
X220776800Y-117424200D02*
X222046800Y-117424200D01*
X220776800Y-119202200D02*
X220776800Y-117424200D01*
X222046800Y-119202200D02*
X220776800Y-119202200D01*
X222032800Y-120794200D02*
X213932800Y-120794200D01*
X213932800Y-85794200D02*
X222032800Y-85794200D01*
X213982800Y-120794200D02*
X213982800Y-85794200D01*
X222032800Y-120794200D02*
X222032800Y-85794200D01*
%TO.C,J10*%
X101638600Y-29878600D02*
X101638600Y-69878600D01*
X109688600Y-29878600D02*
X109702600Y-69875400D01*
X109688600Y-69878600D02*
X101588600Y-69878600D01*
X101588600Y-29878600D02*
X109688600Y-29878600D01*
X101574600Y-31470600D02*
X102844600Y-31470600D01*
X102844600Y-31470600D02*
X102844600Y-33248600D01*
X102844600Y-33248600D02*
X101574600Y-33248600D01*
X101574600Y-36550600D02*
X102844600Y-36550600D01*
X102844600Y-36550600D02*
X102844600Y-38074600D01*
X102844600Y-38074600D02*
X101574600Y-38074600D01*
X101574600Y-41376600D02*
X102844600Y-41376600D01*
X102844600Y-41376600D02*
X102844600Y-43154600D01*
X102844600Y-43154600D02*
X101574600Y-43154600D01*
X101574600Y-46456600D02*
X102844600Y-46456600D01*
X102844600Y-46456600D02*
X102844600Y-48234600D01*
X102844600Y-48234600D02*
X101574600Y-48234600D01*
X101574600Y-51536600D02*
X102844600Y-51536600D01*
X102844600Y-51536600D02*
X102844600Y-53314600D01*
X102844600Y-53314600D02*
X101574600Y-53314600D01*
X101574600Y-56616600D02*
X102844600Y-56616600D01*
X102844600Y-56616600D02*
X102844600Y-58140600D01*
X102844600Y-58140600D02*
X101574600Y-58140600D01*
X101574600Y-61696600D02*
X102844600Y-61696600D01*
X102844600Y-61696600D02*
X102844600Y-63220600D01*
X102844600Y-63220600D02*
X101574600Y-63220600D01*
X101574600Y-66522600D02*
X102844600Y-66522600D01*
X102844600Y-66522600D02*
X102844600Y-68046600D01*
X102844600Y-68046600D02*
X101574600Y-68046600D01*
%TO.C,J8*%
X220802200Y-62179200D02*
X222072200Y-62179200D01*
X222072200Y-53797200D02*
X220802200Y-53797200D01*
X222072200Y-58877200D02*
X220802200Y-58877200D01*
X220802200Y-67259200D02*
X222072200Y-67259200D01*
X220802200Y-57353200D02*
X222072200Y-57353200D01*
X220802200Y-84023200D02*
X220802200Y-82245200D01*
X222072200Y-63957200D02*
X220802200Y-63957200D01*
X220802200Y-63957200D02*
X220802200Y-62179200D01*
X220802200Y-58877200D02*
X220802200Y-57353200D01*
X220802200Y-52273200D02*
X222072200Y-52273200D01*
X220802200Y-82245200D02*
X222072200Y-82245200D01*
X220802200Y-74117200D02*
X220802200Y-72339200D01*
X220802200Y-48971200D02*
X220802200Y-47447200D01*
X220802200Y-47447200D02*
X222072200Y-47447200D01*
X222072200Y-74117200D02*
X220802200Y-74117200D01*
X222008200Y-85615200D02*
X222008200Y-45615200D01*
X222072200Y-84023200D02*
X220802200Y-84023200D01*
X222072200Y-78943200D02*
X220802200Y-78943200D01*
X220802200Y-78943200D02*
X220802200Y-77419200D01*
X220802200Y-77419200D02*
X222072200Y-77419200D01*
X220802200Y-72339200D02*
X222072200Y-72339200D01*
X222072200Y-69037200D02*
X220802200Y-69037200D01*
X222072200Y-48971200D02*
X220802200Y-48971200D01*
X220802200Y-69037200D02*
X220802200Y-67259200D01*
X220802200Y-53797200D02*
X220802200Y-52273200D01*
X213957400Y-45626600D02*
X213957400Y-85626600D01*
X222007400Y-45626600D02*
X222021400Y-85623400D01*
X222007400Y-85626600D02*
X213907400Y-85626600D01*
X213907400Y-45626600D02*
X222007400Y-45626600D01*
%TO.C,J7*%
X209499200Y-32766000D02*
X209496600Y-45461000D01*
X221996000Y-32766000D02*
X221996000Y-45491400D01*
X221996600Y-45461000D02*
X209496600Y-45461000D01*
X209496600Y-32766000D02*
X221996600Y-32766000D01*
X221970600Y-34671000D02*
X219684600Y-34671000D01*
X219684600Y-34671000D02*
X219684600Y-36957000D01*
X219684600Y-36957000D02*
X221970600Y-36957000D01*
X221970600Y-41021000D02*
X219684600Y-41021000D01*
X219684600Y-41021000D02*
X219684600Y-43307000D01*
X219684600Y-43307000D02*
X221970600Y-43307000D01*
%TO.C,J1*%
X101627000Y-70816000D02*
X112107000Y-70816000D01*
X112107000Y-70816000D02*
X112107000Y-124036000D01*
X112107000Y-124036000D02*
X101627000Y-124036000D01*
X113001338Y-113796000D02*
X113001338Y-114296000D01*
X113001338Y-114296000D02*
X112568325Y-114046000D01*
X112568325Y-114046000D02*
X113001338Y-113796000D01*
%TO.C,RN1*%
X152595400Y-77244400D02*
X152595400Y-74444400D01*
X152595400Y-74444400D02*
X139555400Y-74444400D01*
X139555400Y-74444400D02*
X139555400Y-77244400D01*
X139555400Y-77244400D02*
X152595400Y-77244400D01*
X149885400Y-77244400D02*
X149885400Y-74444400D01*
%TO.C,R8*%
X150518800Y-105289600D02*
X147778800Y-105289600D01*
X147778800Y-105289600D02*
X147778800Y-111829600D01*
X147778800Y-111829600D02*
X150518800Y-111829600D01*
X150518800Y-111829600D02*
X150518800Y-105289600D01*
X149148800Y-104519600D02*
X149148800Y-105289600D01*
X149148800Y-112599600D02*
X149148800Y-111829600D01*
%TO.C,R7*%
X183462600Y-105365800D02*
X180722600Y-105365800D01*
X180722600Y-105365800D02*
X180722600Y-111905800D01*
X180722600Y-111905800D02*
X183462600Y-111905800D01*
X183462600Y-111905800D02*
X183462600Y-105365800D01*
X182092600Y-104595800D02*
X182092600Y-105365800D01*
X182092600Y-112675800D02*
X182092600Y-111905800D01*
%TO.C,R6*%
X190117400Y-105315000D02*
X187377400Y-105315000D01*
X187377400Y-105315000D02*
X187377400Y-111855000D01*
X187377400Y-111855000D02*
X190117400Y-111855000D01*
X190117400Y-111855000D02*
X190117400Y-105315000D01*
X188747400Y-104545000D02*
X188747400Y-105315000D01*
X188747400Y-112625000D02*
X188747400Y-111855000D01*
%TO.C,R5*%
X157173600Y-105340400D02*
X154433600Y-105340400D01*
X154433600Y-105340400D02*
X154433600Y-111880400D01*
X154433600Y-111880400D02*
X157173600Y-111880400D01*
X157173600Y-111880400D02*
X157173600Y-105340400D01*
X155803600Y-104570400D02*
X155803600Y-105340400D01*
X155803600Y-112650400D02*
X155803600Y-111880400D01*
%TO.C,R4*%
X163752200Y-105365800D02*
X161012200Y-105365800D01*
X161012200Y-105365800D02*
X161012200Y-111905800D01*
X161012200Y-111905800D02*
X163752200Y-111905800D01*
X163752200Y-111905800D02*
X163752200Y-105365800D01*
X162382200Y-104595800D02*
X162382200Y-105365800D01*
X162382200Y-112675800D02*
X162382200Y-111905800D01*
%TO.C,R3*%
X170457800Y-105315000D02*
X167717800Y-105315000D01*
X167717800Y-105315000D02*
X167717800Y-111855000D01*
X167717800Y-111855000D02*
X170457800Y-111855000D01*
X170457800Y-111855000D02*
X170457800Y-105315000D01*
X169087800Y-104545000D02*
X169087800Y-105315000D01*
X169087800Y-112625000D02*
X169087800Y-111855000D01*
%TO.C,R2*%
X176858600Y-105365800D02*
X174118600Y-105365800D01*
X174118600Y-105365800D02*
X174118600Y-111905800D01*
X174118600Y-111905800D02*
X176858600Y-111905800D01*
X176858600Y-111905800D02*
X176858600Y-105365800D01*
X175488600Y-104595800D02*
X175488600Y-105365800D01*
X175488600Y-112675800D02*
X175488600Y-111905800D01*
%TO.C,R1*%
X194032200Y-111905800D02*
X196772200Y-111905800D01*
X196772200Y-111905800D02*
X196772200Y-105365800D01*
X196772200Y-105365800D02*
X194032200Y-105365800D01*
X194032200Y-105365800D02*
X194032200Y-111905800D01*
X195402200Y-112675800D02*
X195402200Y-111905800D01*
X195402200Y-104595800D02*
X195402200Y-105365800D01*
%TO.C,Q6*%
X181302000Y-81261200D02*
X181302000Y-82771200D01*
X177601000Y-81261200D02*
X177601000Y-82771200D01*
X174331000Y-82771200D02*
X184571000Y-82771200D01*
X184571000Y-81261200D02*
X184571000Y-85902200D01*
X174331000Y-81261200D02*
X174331000Y-85902200D01*
X174331000Y-85902200D02*
X184571000Y-85902200D01*
X174331000Y-81261200D02*
X184571000Y-81261200D01*
%TO.C,Q4*%
X126793600Y-35617400D02*
X126793600Y-37127400D01*
X123092600Y-35617400D02*
X123092600Y-37127400D01*
X119822600Y-37127400D02*
X130062600Y-37127400D01*
X130062600Y-35617400D02*
X130062600Y-40258400D01*
X119822600Y-35617400D02*
X119822600Y-40258400D01*
X119822600Y-40258400D02*
X130062600Y-40258400D01*
X119822600Y-35617400D02*
X130062600Y-35617400D01*
%TO.C,Q3*%
X142262200Y-81210400D02*
X142262200Y-82720400D01*
X138561200Y-81210400D02*
X138561200Y-82720400D01*
X135291200Y-82720400D02*
X145531200Y-82720400D01*
X145531200Y-81210400D02*
X145531200Y-85851400D01*
X135291200Y-81210400D02*
X135291200Y-85851400D01*
X135291200Y-85851400D02*
X145531200Y-85851400D01*
X135291200Y-81210400D02*
X145531200Y-81210400D01*
%TO.C,Q2*%
X155216200Y-81210400D02*
X155216200Y-82720400D01*
X151515200Y-81210400D02*
X151515200Y-82720400D01*
X148245200Y-82720400D02*
X158485200Y-82720400D01*
X158485200Y-81210400D02*
X158485200Y-85851400D01*
X148245200Y-81210400D02*
X148245200Y-85851400D01*
X148245200Y-85851400D02*
X158485200Y-85851400D01*
X148245200Y-81210400D02*
X158485200Y-81210400D01*
%TO.C,Q1*%
X168398800Y-81210400D02*
X168398800Y-82720400D01*
X164697800Y-81210400D02*
X164697800Y-82720400D01*
X161427800Y-82720400D02*
X171667800Y-82720400D01*
X171667800Y-81210400D02*
X171667800Y-85851400D01*
X161427800Y-81210400D02*
X161427800Y-85851400D01*
X161427800Y-85851400D02*
X171667800Y-85851400D01*
X161427800Y-81210400D02*
X171667800Y-81210400D01*
%TO.C,F7*%
X197840600Y-59944000D02*
X190220600Y-59944000D01*
X197840600Y-77216000D02*
X197840600Y-59944000D01*
X190220600Y-77216000D02*
X190220600Y-59944000D01*
X197840600Y-77216000D02*
X190220600Y-77216000D01*
%TO.C,F6*%
X190093600Y-59944000D02*
X182473600Y-59944000D01*
X190093600Y-77216000D02*
X190093600Y-59944000D01*
X182473600Y-77216000D02*
X182473600Y-59944000D01*
X190093600Y-77216000D02*
X182473600Y-77216000D01*
%TO.C,F5*%
X182321200Y-59944000D02*
X174701200Y-59944000D01*
X182321200Y-77216000D02*
X182321200Y-59944000D01*
X174701200Y-77216000D02*
X174701200Y-59944000D01*
X182321200Y-77216000D02*
X174701200Y-77216000D01*
%TO.C,F4*%
X174523400Y-59969400D02*
X166903400Y-59969400D01*
X174523400Y-77241400D02*
X174523400Y-59969400D01*
X166903400Y-77241400D02*
X166903400Y-59969400D01*
X174523400Y-77241400D02*
X166903400Y-77241400D01*
%TO.C,F3*%
X166725600Y-59969400D02*
X159105600Y-59969400D01*
X166725600Y-77241400D02*
X166725600Y-59969400D01*
X159105600Y-77241400D02*
X159105600Y-59969400D01*
X166725600Y-77241400D02*
X159105600Y-77241400D01*
%TO.C,F2*%
X155311600Y-74146000D02*
X155311600Y-70475000D01*
X155311600Y-68717000D02*
X155311600Y-59946000D01*
X158511600Y-74146000D02*
X158511600Y-65374000D01*
X158511600Y-63617000D02*
X158511600Y-59946000D01*
X155311600Y-74146000D02*
X158511600Y-74146000D01*
X155311600Y-59946000D02*
X158511600Y-59946000D01*
%TO.C,F1*%
X198018400Y-50292000D02*
X205638400Y-50292000D01*
X198018400Y-33020000D02*
X198018400Y-50292000D01*
X205638400Y-33020000D02*
X205638400Y-50292000D01*
X198018400Y-33020000D02*
X205638400Y-33020000D01*
%TO.C,D17*%
X204506200Y-118008400D02*
G75*
G03*
X204506200Y-118008400I-2500000J0D01*
G01*
X203551200Y-115448400D02*
X200461200Y-115448400D01*
X202006662Y-120998400D02*
G75*
G02*
X200461370Y-115448400I-462J2990000D01*
G01*
X202005738Y-120998400D02*
G75*
G03*
X203551030Y-115448400I462J2990000D01*
G01*
%TO.C,D16*%
X143938600Y-49807200D02*
X140998600Y-49807200D01*
X140998600Y-49807200D02*
X140998600Y-55247200D01*
X140998600Y-55247200D02*
X143938600Y-55247200D01*
X143938600Y-55247200D02*
X143938600Y-49807200D01*
X142468600Y-48787200D02*
X142468600Y-49807200D01*
X142468600Y-56267200D02*
X142468600Y-55247200D01*
X143938600Y-50707200D02*
X140998600Y-50707200D01*
X143938600Y-50827200D02*
X140998600Y-50827200D01*
X143938600Y-50587200D02*
X140998600Y-50587200D01*
%TO.C,D15*%
X143989400Y-36777000D02*
X141049400Y-36777000D01*
X141049400Y-36777000D02*
X141049400Y-42217000D01*
X141049400Y-42217000D02*
X143989400Y-42217000D01*
X143989400Y-42217000D02*
X143989400Y-36777000D01*
X142519400Y-35757000D02*
X142519400Y-36777000D01*
X142519400Y-43237000D02*
X142519400Y-42217000D01*
X143989400Y-37677000D02*
X141049400Y-37677000D01*
X143989400Y-37797000D02*
X141049400Y-37797000D01*
X143989400Y-37557000D02*
X141049400Y-37557000D01*
%TO.C,D14*%
X151648800Y-118059200D02*
G75*
G03*
X151648800Y-118059200I-2500000J0D01*
G01*
X150693800Y-115499200D02*
X147603800Y-115499200D01*
X149149262Y-121049200D02*
G75*
G02*
X147603970Y-115499200I-462J2990000D01*
G01*
X149148338Y-121049200D02*
G75*
G03*
X150693630Y-115499200I462J2990000D01*
G01*
%TO.C,D13*%
X184618000Y-118059200D02*
G75*
G03*
X184618000Y-118059200I-2500000J0D01*
G01*
X180573000Y-120619200D02*
X183663000Y-120619200D01*
X182117538Y-115069200D02*
G75*
G02*
X183662830Y-120619200I462J-2990000D01*
G01*
X182118462Y-115069200D02*
G75*
G03*
X180573170Y-120619200I-462J-2990000D01*
G01*
%TO.C,D12*%
X191247400Y-118033800D02*
G75*
G03*
X191247400Y-118033800I-2500000J0D01*
G01*
X187202400Y-120593800D02*
X190292400Y-120593800D01*
X188746938Y-115043800D02*
G75*
G02*
X190292230Y-120593800I462J-2990000D01*
G01*
X188747862Y-115043800D02*
G75*
G03*
X187202570Y-120593800I-462J-2990000D01*
G01*
%TO.C,D10*%
X158227400Y-118033800D02*
G75*
G03*
X158227400Y-118033800I-2500000J0D01*
G01*
X154182400Y-120593800D02*
X157272400Y-120593800D01*
X155726938Y-115043800D02*
G75*
G02*
X157272230Y-120593800I462J-2990000D01*
G01*
X155727862Y-115043800D02*
G75*
G03*
X154182570Y-120593800I-462J-2990000D01*
G01*
%TO.C,D9*%
X164831400Y-118059200D02*
G75*
G03*
X164831400Y-118059200I-2500000J0D01*
G01*
X160786400Y-120619200D02*
X163876400Y-120619200D01*
X162330938Y-115069200D02*
G75*
G02*
X163876230Y-120619200I462J-2990000D01*
G01*
X162331862Y-115069200D02*
G75*
G03*
X160786570Y-120619200I-462J-2990000D01*
G01*
%TO.C,D8*%
X171435400Y-118084600D02*
G75*
G03*
X171435400Y-118084600I-2500000J0D01*
G01*
X167390400Y-120644600D02*
X170480400Y-120644600D01*
X168934938Y-115094600D02*
G75*
G02*
X170480230Y-120644600I462J-2990000D01*
G01*
X168935862Y-115094600D02*
G75*
G03*
X167390570Y-120644600I-462J-2990000D01*
G01*
%TO.C,D7*%
X178039400Y-118059200D02*
G75*
G03*
X178039400Y-118059200I-2500000J0D01*
G01*
X173994400Y-120619200D02*
X177084400Y-120619200D01*
X175538938Y-115069200D02*
G75*
G02*
X177084230Y-120619200I462J-2990000D01*
G01*
X175539862Y-115069200D02*
G75*
G03*
X173994570Y-120619200I-462J-2990000D01*
G01*
%TO.C,D5*%
X122248000Y-40770200D02*
X122248000Y-43710200D01*
X122248000Y-43710200D02*
X127688000Y-43710200D01*
X127688000Y-43710200D02*
X127688000Y-40770200D01*
X127688000Y-40770200D02*
X122248000Y-40770200D01*
X121228000Y-42240200D02*
X122248000Y-42240200D01*
X128708000Y-42240200D02*
X127688000Y-42240200D01*
X123148000Y-40770200D02*
X123148000Y-43710200D01*
X123268000Y-40770200D02*
X123268000Y-43710200D01*
X123028000Y-40770200D02*
X123028000Y-43710200D01*
%TO.C,D4*%
X137513400Y-86363200D02*
X137513400Y-89303200D01*
X137513400Y-89303200D02*
X142953400Y-89303200D01*
X142953400Y-89303200D02*
X142953400Y-86363200D01*
X142953400Y-86363200D02*
X137513400Y-86363200D01*
X136493400Y-87833200D02*
X137513400Y-87833200D01*
X143973400Y-87833200D02*
X142953400Y-87833200D01*
X138413400Y-86363200D02*
X138413400Y-89303200D01*
X138533400Y-86363200D02*
X138533400Y-89303200D01*
X138293400Y-86363200D02*
X138293400Y-89303200D01*
%TO.C,D3*%
X150543600Y-86363200D02*
X150543600Y-89303200D01*
X150543600Y-89303200D02*
X155983600Y-89303200D01*
X155983600Y-89303200D02*
X155983600Y-86363200D01*
X155983600Y-86363200D02*
X150543600Y-86363200D01*
X149523600Y-87833200D02*
X150543600Y-87833200D01*
X157003600Y-87833200D02*
X155983600Y-87833200D01*
X151443600Y-86363200D02*
X151443600Y-89303200D01*
X151563600Y-86363200D02*
X151563600Y-89303200D01*
X151323600Y-86363200D02*
X151323600Y-89303200D01*
%TO.C,D2*%
X163599200Y-86363200D02*
X163599200Y-89303200D01*
X163599200Y-89303200D02*
X169039200Y-89303200D01*
X169039200Y-89303200D02*
X169039200Y-86363200D01*
X169039200Y-86363200D02*
X163599200Y-86363200D01*
X162579200Y-87833200D02*
X163599200Y-87833200D01*
X170059200Y-87833200D02*
X169039200Y-87833200D01*
X164499200Y-86363200D02*
X164499200Y-89303200D01*
X164619200Y-86363200D02*
X164619200Y-89303200D01*
X164379200Y-86363200D02*
X164379200Y-89303200D01*
%TO.C,D1*%
X197876800Y-118008400D02*
G75*
G03*
X197876800Y-118008400I-2500000J0D01*
G01*
X196921800Y-115448400D02*
X193831800Y-115448400D01*
X195377262Y-120998400D02*
G75*
G02*
X193831970Y-115448400I-462J2990000D01*
G01*
X195376338Y-120998400D02*
G75*
G03*
X196921630Y-115448400I462J2990000D01*
G01*
%TO.C,R9*%
D10*
X200223380Y-108853266D02*
X199747190Y-109186600D01*
X200223380Y-109424695D02*
X199223380Y-109424695D01*
X199223380Y-109043742D01*
X199271000Y-108948504D01*
X199318619Y-108900885D01*
X199413857Y-108853266D01*
X199556714Y-108853266D01*
X199651952Y-108900885D01*
X199699571Y-108948504D01*
X199747190Y-109043742D01*
X199747190Y-109424695D01*
X200223380Y-108377076D02*
X200223380Y-108186600D01*
X200175761Y-108091361D01*
X200128142Y-108043742D01*
X199985285Y-107948504D01*
X199794809Y-107900885D01*
X199413857Y-107900885D01*
X199318619Y-107948504D01*
X199271000Y-107996123D01*
X199223380Y-108091361D01*
X199223380Y-108281838D01*
X199271000Y-108377076D01*
X199318619Y-108424695D01*
X199413857Y-108472314D01*
X199651952Y-108472314D01*
X199747190Y-108424695D01*
X199794809Y-108377076D01*
X199842428Y-108281838D01*
X199842428Y-108091361D01*
X199794809Y-107996123D01*
X199747190Y-107948504D01*
X199651952Y-107900885D01*
X201452219Y-110135800D02*
X201404600Y-110088180D01*
X201356980Y-109992942D01*
X201356980Y-109754847D01*
X201404600Y-109659609D01*
X201452219Y-109611990D01*
X201547457Y-109564371D01*
X201642695Y-109564371D01*
X201785552Y-109611990D01*
X202356980Y-110183419D01*
X202356980Y-109564371D01*
X202261742Y-109135800D02*
X202309361Y-109088180D01*
X202356980Y-109135800D01*
X202309361Y-109183419D01*
X202261742Y-109135800D01*
X202356980Y-109135800D01*
X201690314Y-108231038D02*
X202356980Y-108231038D01*
X201309361Y-108469133D02*
X202023647Y-108707228D01*
X202023647Y-108088180D01*
X202356980Y-107707228D02*
X201356980Y-107707228D01*
X202356980Y-107135800D02*
X201785552Y-107564371D01*
X201356980Y-107135800D02*
X201928409Y-107707228D01*
%TO.C,K1*%
X194054504Y-31745180D02*
X194054504Y-30745180D01*
X194625933Y-31745180D02*
X194197361Y-31173752D01*
X194625933Y-30745180D02*
X194054504Y-31316609D01*
X195578314Y-31745180D02*
X195006885Y-31745180D01*
X195292600Y-31745180D02*
X195292600Y-30745180D01*
X195197361Y-30888038D01*
X195102123Y-30983276D01*
X195006885Y-31030895D01*
X176142142Y-34412180D02*
X176142142Y-33412180D01*
X176523095Y-33412180D01*
X176618333Y-33459800D01*
X176665952Y-33507419D01*
X176713571Y-33602657D01*
X176713571Y-33745514D01*
X176665952Y-33840752D01*
X176618333Y-33888371D01*
X176523095Y-33935990D01*
X176142142Y-33935990D01*
X177570714Y-34412180D02*
X177570714Y-33888371D01*
X177523095Y-33793133D01*
X177427857Y-33745514D01*
X177237380Y-33745514D01*
X177142142Y-33793133D01*
X177570714Y-34364561D02*
X177475476Y-34412180D01*
X177237380Y-34412180D01*
X177142142Y-34364561D01*
X177094523Y-34269323D01*
X177094523Y-34174085D01*
X177142142Y-34078847D01*
X177237380Y-34031228D01*
X177475476Y-34031228D01*
X177570714Y-33983609D01*
X178046904Y-33745514D02*
X178046904Y-34412180D01*
X178046904Y-33840752D02*
X178094523Y-33793133D01*
X178189761Y-33745514D01*
X178332619Y-33745514D01*
X178427857Y-33793133D01*
X178475476Y-33888371D01*
X178475476Y-34412180D01*
X179380238Y-34412180D02*
X179380238Y-33888371D01*
X179332619Y-33793133D01*
X179237380Y-33745514D01*
X179046904Y-33745514D01*
X178951666Y-33793133D01*
X179380238Y-34364561D02*
X179285000Y-34412180D01*
X179046904Y-34412180D01*
X178951666Y-34364561D01*
X178904047Y-34269323D01*
X178904047Y-34174085D01*
X178951666Y-34078847D01*
X179046904Y-34031228D01*
X179285000Y-34031228D01*
X179380238Y-33983609D01*
X179808809Y-34364561D02*
X179904047Y-34412180D01*
X180094523Y-34412180D01*
X180189761Y-34364561D01*
X180237380Y-34269323D01*
X180237380Y-34221704D01*
X180189761Y-34126466D01*
X180094523Y-34078847D01*
X179951666Y-34078847D01*
X179856428Y-34031228D01*
X179808809Y-33935990D01*
X179808809Y-33888371D01*
X179856428Y-33793133D01*
X179951666Y-33745514D01*
X180094523Y-33745514D01*
X180189761Y-33793133D01*
X180808809Y-34412180D02*
X180713571Y-34364561D01*
X180665952Y-34316942D01*
X180618333Y-34221704D01*
X180618333Y-33935990D01*
X180665952Y-33840752D01*
X180713571Y-33793133D01*
X180808809Y-33745514D01*
X180951666Y-33745514D01*
X181046904Y-33793133D01*
X181094523Y-33840752D01*
X181142142Y-33935990D01*
X181142142Y-34221704D01*
X181094523Y-34316942D01*
X181046904Y-34364561D01*
X180951666Y-34412180D01*
X180808809Y-34412180D01*
X181570714Y-33745514D02*
X181570714Y-34412180D01*
X181570714Y-33840752D02*
X181618333Y-33793133D01*
X181713571Y-33745514D01*
X181856428Y-33745514D01*
X181951666Y-33793133D01*
X181999285Y-33888371D01*
X181999285Y-34412180D01*
X182475476Y-34412180D02*
X182475476Y-33745514D01*
X182475476Y-33412180D02*
X182427857Y-33459800D01*
X182475476Y-33507419D01*
X182523095Y-33459800D01*
X182475476Y-33412180D01*
X182475476Y-33507419D01*
X183380238Y-34364561D02*
X183285000Y-34412180D01*
X183094523Y-34412180D01*
X182999285Y-34364561D01*
X182951666Y-34316942D01*
X182904047Y-34221704D01*
X182904047Y-33935990D01*
X182951666Y-33840752D01*
X182999285Y-33793133D01*
X183094523Y-33745514D01*
X183285000Y-33745514D01*
X183380238Y-33793133D01*
X183570714Y-34507419D02*
X184332619Y-34507419D01*
X185142142Y-34316942D02*
X185094523Y-34364561D01*
X184951666Y-34412180D01*
X184856428Y-34412180D01*
X184713571Y-34364561D01*
X184618333Y-34269323D01*
X184570714Y-34174085D01*
X184523095Y-33983609D01*
X184523095Y-33840752D01*
X184570714Y-33650276D01*
X184618333Y-33555038D01*
X184713571Y-33459800D01*
X184856428Y-33412180D01*
X184951666Y-33412180D01*
X185094523Y-33459800D01*
X185142142Y-33507419D01*
X185570714Y-34412180D02*
X185570714Y-33412180D01*
X185904047Y-34126466D01*
X186237380Y-33412180D01*
X186237380Y-34412180D01*
X187237380Y-34412180D02*
X186665952Y-34412180D01*
X186951666Y-34412180D02*
X186951666Y-33412180D01*
X186856428Y-33555038D01*
X186761190Y-33650276D01*
X186665952Y-33697895D01*
X187665952Y-34031228D02*
X188427857Y-34031228D01*
X189475476Y-34412180D02*
X189142142Y-33935990D01*
X188904047Y-34412180D02*
X188904047Y-33412180D01*
X189285000Y-33412180D01*
X189380238Y-33459800D01*
X189427857Y-33507419D01*
X189475476Y-33602657D01*
X189475476Y-33745514D01*
X189427857Y-33840752D01*
X189380238Y-33888371D01*
X189285000Y-33935990D01*
X188904047Y-33935990D01*
X189904047Y-34031228D02*
X190665952Y-34031228D01*
X191665952Y-34412180D02*
X191094523Y-34412180D01*
X191380238Y-34412180D02*
X191380238Y-33412180D01*
X191285000Y-33555038D01*
X191189761Y-33650276D01*
X191094523Y-33697895D01*
X192046904Y-33507419D02*
X192094523Y-33459800D01*
X192189761Y-33412180D01*
X192427857Y-33412180D01*
X192523095Y-33459800D01*
X192570714Y-33507419D01*
X192618333Y-33602657D01*
X192618333Y-33697895D01*
X192570714Y-33840752D01*
X191999285Y-34412180D01*
X192618333Y-34412180D01*
X192904047Y-33412180D02*
X193237380Y-34412180D01*
X193570714Y-33412180D01*
%TO.C,K2*%
X167790904Y-31999180D02*
X167790904Y-30999180D01*
X168362333Y-31999180D02*
X167933761Y-31427752D01*
X168362333Y-30999180D02*
X167790904Y-31570609D01*
X168743285Y-31094419D02*
X168790904Y-31046800D01*
X168886142Y-30999180D01*
X169124238Y-30999180D01*
X169219476Y-31046800D01*
X169267095Y-31094419D01*
X169314714Y-31189657D01*
X169314714Y-31284895D01*
X169267095Y-31427752D01*
X168695666Y-31999180D01*
X169314714Y-31999180D01*
X148481542Y-34361380D02*
X148481542Y-33361380D01*
X148862495Y-33361380D01*
X148957733Y-33409000D01*
X149005352Y-33456619D01*
X149052971Y-33551857D01*
X149052971Y-33694714D01*
X149005352Y-33789952D01*
X148957733Y-33837571D01*
X148862495Y-33885190D01*
X148481542Y-33885190D01*
X149910114Y-34361380D02*
X149910114Y-33837571D01*
X149862495Y-33742333D01*
X149767257Y-33694714D01*
X149576780Y-33694714D01*
X149481542Y-33742333D01*
X149910114Y-34313761D02*
X149814876Y-34361380D01*
X149576780Y-34361380D01*
X149481542Y-34313761D01*
X149433923Y-34218523D01*
X149433923Y-34123285D01*
X149481542Y-34028047D01*
X149576780Y-33980428D01*
X149814876Y-33980428D01*
X149910114Y-33932809D01*
X150386304Y-33694714D02*
X150386304Y-34361380D01*
X150386304Y-33789952D02*
X150433923Y-33742333D01*
X150529161Y-33694714D01*
X150672019Y-33694714D01*
X150767257Y-33742333D01*
X150814876Y-33837571D01*
X150814876Y-34361380D01*
X151719638Y-34361380D02*
X151719638Y-33837571D01*
X151672019Y-33742333D01*
X151576780Y-33694714D01*
X151386304Y-33694714D01*
X151291066Y-33742333D01*
X151719638Y-34313761D02*
X151624400Y-34361380D01*
X151386304Y-34361380D01*
X151291066Y-34313761D01*
X151243447Y-34218523D01*
X151243447Y-34123285D01*
X151291066Y-34028047D01*
X151386304Y-33980428D01*
X151624400Y-33980428D01*
X151719638Y-33932809D01*
X152148209Y-34313761D02*
X152243447Y-34361380D01*
X152433923Y-34361380D01*
X152529161Y-34313761D01*
X152576780Y-34218523D01*
X152576780Y-34170904D01*
X152529161Y-34075666D01*
X152433923Y-34028047D01*
X152291066Y-34028047D01*
X152195828Y-33980428D01*
X152148209Y-33885190D01*
X152148209Y-33837571D01*
X152195828Y-33742333D01*
X152291066Y-33694714D01*
X152433923Y-33694714D01*
X152529161Y-33742333D01*
X153148209Y-34361380D02*
X153052971Y-34313761D01*
X153005352Y-34266142D01*
X152957733Y-34170904D01*
X152957733Y-33885190D01*
X153005352Y-33789952D01*
X153052971Y-33742333D01*
X153148209Y-33694714D01*
X153291066Y-33694714D01*
X153386304Y-33742333D01*
X153433923Y-33789952D01*
X153481542Y-33885190D01*
X153481542Y-34170904D01*
X153433923Y-34266142D01*
X153386304Y-34313761D01*
X153291066Y-34361380D01*
X153148209Y-34361380D01*
X153910114Y-33694714D02*
X153910114Y-34361380D01*
X153910114Y-33789952D02*
X153957733Y-33742333D01*
X154052971Y-33694714D01*
X154195828Y-33694714D01*
X154291066Y-33742333D01*
X154338685Y-33837571D01*
X154338685Y-34361380D01*
X154814876Y-34361380D02*
X154814876Y-33694714D01*
X154814876Y-33361380D02*
X154767257Y-33409000D01*
X154814876Y-33456619D01*
X154862495Y-33409000D01*
X154814876Y-33361380D01*
X154814876Y-33456619D01*
X155719638Y-34313761D02*
X155624400Y-34361380D01*
X155433923Y-34361380D01*
X155338685Y-34313761D01*
X155291066Y-34266142D01*
X155243447Y-34170904D01*
X155243447Y-33885190D01*
X155291066Y-33789952D01*
X155338685Y-33742333D01*
X155433923Y-33694714D01*
X155624400Y-33694714D01*
X155719638Y-33742333D01*
X155910114Y-34456619D02*
X156672019Y-34456619D01*
X157481542Y-34266142D02*
X157433923Y-34313761D01*
X157291066Y-34361380D01*
X157195828Y-34361380D01*
X157052971Y-34313761D01*
X156957733Y-34218523D01*
X156910114Y-34123285D01*
X156862495Y-33932809D01*
X156862495Y-33789952D01*
X156910114Y-33599476D01*
X156957733Y-33504238D01*
X157052971Y-33409000D01*
X157195828Y-33361380D01*
X157291066Y-33361380D01*
X157433923Y-33409000D01*
X157481542Y-33456619D01*
X157910114Y-34361380D02*
X157910114Y-33361380D01*
X158243447Y-34075666D01*
X158576780Y-33361380D01*
X158576780Y-34361380D01*
X159576780Y-34361380D02*
X159005352Y-34361380D01*
X159291066Y-34361380D02*
X159291066Y-33361380D01*
X159195828Y-33504238D01*
X159100590Y-33599476D01*
X159005352Y-33647095D01*
X160005352Y-33980428D02*
X160767257Y-33980428D01*
X161814876Y-34361380D02*
X161481542Y-33885190D01*
X161243447Y-34361380D02*
X161243447Y-33361380D01*
X161624400Y-33361380D01*
X161719638Y-33409000D01*
X161767257Y-33456619D01*
X161814876Y-33551857D01*
X161814876Y-33694714D01*
X161767257Y-33789952D01*
X161719638Y-33837571D01*
X161624400Y-33885190D01*
X161243447Y-33885190D01*
X162243447Y-33980428D02*
X163005352Y-33980428D01*
X164005352Y-34361380D02*
X163433923Y-34361380D01*
X163719638Y-34361380D02*
X163719638Y-33361380D01*
X163624400Y-33504238D01*
X163529161Y-33599476D01*
X163433923Y-33647095D01*
X164386304Y-33456619D02*
X164433923Y-33409000D01*
X164529161Y-33361380D01*
X164767257Y-33361380D01*
X164862495Y-33409000D01*
X164910114Y-33456619D01*
X164957733Y-33551857D01*
X164957733Y-33647095D01*
X164910114Y-33789952D01*
X164338685Y-34361380D01*
X164957733Y-34361380D01*
X165243447Y-33361380D02*
X165576780Y-34361380D01*
X165910114Y-33361380D01*
%TO.C,Q5*%
X198786761Y-84189819D02*
X198691523Y-84142200D01*
X198596285Y-84046961D01*
X198453428Y-83904104D01*
X198358190Y-83856485D01*
X198262952Y-83856485D01*
X198310571Y-84094580D02*
X198215333Y-84046961D01*
X198120095Y-83951723D01*
X198072476Y-83761247D01*
X198072476Y-83427914D01*
X198120095Y-83237438D01*
X198215333Y-83142200D01*
X198310571Y-83094580D01*
X198501047Y-83094580D01*
X198596285Y-83142200D01*
X198691523Y-83237438D01*
X198739142Y-83427914D01*
X198739142Y-83761247D01*
X198691523Y-83951723D01*
X198596285Y-84046961D01*
X198501047Y-84094580D01*
X198310571Y-84094580D01*
X199643904Y-83094580D02*
X199167714Y-83094580D01*
X199120095Y-83570771D01*
X199167714Y-83523152D01*
X199262952Y-83475533D01*
X199501047Y-83475533D01*
X199596285Y-83523152D01*
X199643904Y-83570771D01*
X199691523Y-83666009D01*
X199691523Y-83904104D01*
X199643904Y-83999342D01*
X199596285Y-84046961D01*
X199501047Y-84094580D01*
X199262952Y-84094580D01*
X199167714Y-84046961D01*
X199120095Y-83999342D01*
X187814533Y-80919580D02*
X187814533Y-79919580D01*
X188243104Y-80871961D02*
X188385961Y-80919580D01*
X188624057Y-80919580D01*
X188719295Y-80871961D01*
X188766914Y-80824342D01*
X188814533Y-80729104D01*
X188814533Y-80633866D01*
X188766914Y-80538628D01*
X188719295Y-80491009D01*
X188624057Y-80443390D01*
X188433580Y-80395771D01*
X188338342Y-80348152D01*
X188290723Y-80300533D01*
X188243104Y-80205295D01*
X188243104Y-80110057D01*
X188290723Y-80014819D01*
X188338342Y-79967200D01*
X188433580Y-79919580D01*
X188671676Y-79919580D01*
X188814533Y-79967200D01*
X189719295Y-80919580D02*
X189243104Y-80919580D01*
X189243104Y-79919580D01*
X190100247Y-80919580D02*
X190290723Y-80919580D01*
X190385961Y-80871961D01*
X190433580Y-80824342D01*
X190528819Y-80681485D01*
X190576438Y-80491009D01*
X190576438Y-80110057D01*
X190528819Y-80014819D01*
X190481200Y-79967200D01*
X190385961Y-79919580D01*
X190195485Y-79919580D01*
X190100247Y-79967200D01*
X190052628Y-80014819D01*
X190005009Y-80110057D01*
X190005009Y-80348152D01*
X190052628Y-80443390D01*
X190100247Y-80491009D01*
X190195485Y-80538628D01*
X190385961Y-80538628D01*
X190481200Y-80491009D01*
X190528819Y-80443390D01*
X190576438Y-80348152D01*
X190862152Y-79919580D02*
X191195485Y-80919580D01*
X191528819Y-79919580D01*
X191766914Y-79919580D02*
X192385961Y-79919580D01*
X192052628Y-80300533D01*
X192195485Y-80300533D01*
X192290723Y-80348152D01*
X192338342Y-80395771D01*
X192385961Y-80491009D01*
X192385961Y-80729104D01*
X192338342Y-80824342D01*
X192290723Y-80871961D01*
X192195485Y-80919580D01*
X191909771Y-80919580D01*
X191814533Y-80871961D01*
X191766914Y-80824342D01*
X193005009Y-79919580D02*
X193100247Y-79919580D01*
X193195485Y-79967200D01*
X193243104Y-80014819D01*
X193290723Y-80110057D01*
X193338342Y-80300533D01*
X193338342Y-80538628D01*
X193290723Y-80729104D01*
X193243104Y-80824342D01*
X193195485Y-80871961D01*
X193100247Y-80919580D01*
X193005009Y-80919580D01*
X192909771Y-80871961D01*
X192862152Y-80824342D01*
X192814533Y-80729104D01*
X192766914Y-80538628D01*
X192766914Y-80300533D01*
X192814533Y-80110057D01*
X192862152Y-80014819D01*
X192909771Y-79967200D01*
X193005009Y-79919580D01*
X194195485Y-80252914D02*
X194195485Y-80919580D01*
X193957390Y-79871961D02*
X193719295Y-80586247D01*
X194338342Y-80586247D01*
X194909771Y-79919580D02*
X195005009Y-79919580D01*
X195100247Y-79967200D01*
X195147866Y-80014819D01*
X195195485Y-80110057D01*
X195243104Y-80300533D01*
X195243104Y-80538628D01*
X195195485Y-80729104D01*
X195147866Y-80824342D01*
X195100247Y-80871961D01*
X195005009Y-80919580D01*
X194909771Y-80919580D01*
X194814533Y-80871961D01*
X194766914Y-80824342D01*
X194719295Y-80729104D01*
X194671676Y-80538628D01*
X194671676Y-80300533D01*
X194719295Y-80110057D01*
X194766914Y-80014819D01*
X194814533Y-79967200D01*
X194909771Y-79919580D01*
X195671676Y-80919580D02*
X195671676Y-79919580D01*
X196052628Y-79919580D01*
X196147866Y-79967200D01*
X196195485Y-80014819D01*
X196243104Y-80110057D01*
X196243104Y-80252914D01*
X196195485Y-80348152D01*
X196147866Y-80395771D01*
X196052628Y-80443390D01*
X195671676Y-80443390D01*
X196576438Y-79919580D02*
X197195485Y-79919580D01*
X196862152Y-80300533D01*
X197005009Y-80300533D01*
X197100247Y-80348152D01*
X197147866Y-80395771D01*
X197195485Y-80491009D01*
X197195485Y-80729104D01*
X197147866Y-80824342D01*
X197100247Y-80871961D01*
X197005009Y-80919580D01*
X196719295Y-80919580D01*
X196624057Y-80871961D01*
X196576438Y-80824342D01*
%TO.C,J9*%
X212380580Y-101399933D02*
X213094866Y-101399933D01*
X213237723Y-101447552D01*
X213332961Y-101542790D01*
X213380580Y-101685647D01*
X213380580Y-101780885D01*
X213380580Y-100876123D02*
X213380580Y-100685647D01*
X213332961Y-100590409D01*
X213285342Y-100542790D01*
X213142485Y-100447552D01*
X212952009Y-100399933D01*
X212571057Y-100399933D01*
X212475819Y-100447552D01*
X212428200Y-100495171D01*
X212380580Y-100590409D01*
X212380580Y-100780885D01*
X212428200Y-100876123D01*
X212475819Y-100923742D01*
X212571057Y-100971361D01*
X212809152Y-100971361D01*
X212904390Y-100923742D01*
X212952009Y-100876123D01*
X212999628Y-100780885D01*
X212999628Y-100590409D01*
X212952009Y-100495171D01*
X212904390Y-100447552D01*
X212809152Y-100399933D01*
%TO.C,J10*%
X110297980Y-50898323D02*
X111012266Y-50898323D01*
X111155123Y-50945942D01*
X111250361Y-51041180D01*
X111297980Y-51184038D01*
X111297980Y-51279276D01*
X111297980Y-49898323D02*
X111297980Y-50469752D01*
X111297980Y-50184038D02*
X110297980Y-50184038D01*
X110440838Y-50279276D01*
X110536076Y-50374514D01*
X110583695Y-50469752D01*
X110297980Y-49279276D02*
X110297980Y-49184038D01*
X110345600Y-49088800D01*
X110393219Y-49041180D01*
X110488457Y-48993561D01*
X110678933Y-48945942D01*
X110917028Y-48945942D01*
X111107504Y-48993561D01*
X111202742Y-49041180D01*
X111250361Y-49088800D01*
X111297980Y-49184038D01*
X111297980Y-49279276D01*
X111250361Y-49374514D01*
X111202742Y-49422133D01*
X111107504Y-49469752D01*
X110917028Y-49517371D01*
X110678933Y-49517371D01*
X110488457Y-49469752D01*
X110393219Y-49422133D01*
X110345600Y-49374514D01*
X110297980Y-49279276D01*
%TO.C,J8*%
X212380580Y-65662133D02*
X213094866Y-65662133D01*
X213237723Y-65709752D01*
X213332961Y-65804990D01*
X213380580Y-65947847D01*
X213380580Y-66043085D01*
X212809152Y-65043085D02*
X212761533Y-65138323D01*
X212713914Y-65185942D01*
X212618676Y-65233561D01*
X212571057Y-65233561D01*
X212475819Y-65185942D01*
X212428200Y-65138323D01*
X212380580Y-65043085D01*
X212380580Y-64852609D01*
X212428200Y-64757371D01*
X212475819Y-64709752D01*
X212571057Y-64662133D01*
X212618676Y-64662133D01*
X212713914Y-64709752D01*
X212761533Y-64757371D01*
X212809152Y-64852609D01*
X212809152Y-65043085D01*
X212856771Y-65138323D01*
X212904390Y-65185942D01*
X212999628Y-65233561D01*
X213190104Y-65233561D01*
X213285342Y-65185942D01*
X213332961Y-65138323D01*
X213380580Y-65043085D01*
X213380580Y-64852609D01*
X213332961Y-64757371D01*
X213285342Y-64709752D01*
X213190104Y-64662133D01*
X212999628Y-64662133D01*
X212904390Y-64709752D01*
X212856771Y-64757371D01*
X212809152Y-64852609D01*
%TO.C,J7*%
X208087980Y-39855733D02*
X208802266Y-39855733D01*
X208945123Y-39903352D01*
X209040361Y-39998590D01*
X209087980Y-40141447D01*
X209087980Y-40236685D01*
X208087980Y-39474780D02*
X208087980Y-38808114D01*
X209087980Y-39236685D01*
%TO.C,J1*%
X112499380Y-97759333D02*
X113213666Y-97759333D01*
X113356523Y-97806952D01*
X113451761Y-97902190D01*
X113499380Y-98045047D01*
X113499380Y-98140285D01*
X113499380Y-96759333D02*
X113499380Y-97330761D01*
X113499380Y-97045047D02*
X112499380Y-97045047D01*
X112642238Y-97140285D01*
X112737476Y-97235523D01*
X112785095Y-97330761D01*
%TO.C,RN1*%
X145384923Y-79192380D02*
X145051590Y-78716190D01*
X144813495Y-79192380D02*
X144813495Y-78192380D01*
X145194447Y-78192380D01*
X145289685Y-78240000D01*
X145337304Y-78287619D01*
X145384923Y-78382857D01*
X145384923Y-78525714D01*
X145337304Y-78620952D01*
X145289685Y-78668571D01*
X145194447Y-78716190D01*
X144813495Y-78716190D01*
X145813495Y-79192380D02*
X145813495Y-78192380D01*
X146384923Y-79192380D01*
X146384923Y-78192380D01*
X147384923Y-79192380D02*
X146813495Y-79192380D01*
X147099209Y-79192380D02*
X147099209Y-78192380D01*
X147003971Y-78335238D01*
X146908733Y-78430476D01*
X146813495Y-78478095D01*
%TO.C,R8*%
X147289780Y-109031066D02*
X146813590Y-109364400D01*
X147289780Y-109602495D02*
X146289780Y-109602495D01*
X146289780Y-109221542D01*
X146337400Y-109126304D01*
X146385019Y-109078685D01*
X146480257Y-109031066D01*
X146623114Y-109031066D01*
X146718352Y-109078685D01*
X146765971Y-109126304D01*
X146813590Y-109221542D01*
X146813590Y-109602495D01*
X146718352Y-108459638D02*
X146670733Y-108554876D01*
X146623114Y-108602495D01*
X146527876Y-108650114D01*
X146480257Y-108650114D01*
X146385019Y-108602495D01*
X146337400Y-108554876D01*
X146289780Y-108459638D01*
X146289780Y-108269161D01*
X146337400Y-108173923D01*
X146385019Y-108126304D01*
X146480257Y-108078685D01*
X146527876Y-108078685D01*
X146623114Y-108126304D01*
X146670733Y-108173923D01*
X146718352Y-108269161D01*
X146718352Y-108459638D01*
X146765971Y-108554876D01*
X146813590Y-108602495D01*
X146908828Y-108650114D01*
X147099304Y-108650114D01*
X147194542Y-108602495D01*
X147242161Y-108554876D01*
X147289780Y-108459638D01*
X147289780Y-108269161D01*
X147242161Y-108173923D01*
X147194542Y-108126304D01*
X147099304Y-108078685D01*
X146908828Y-108078685D01*
X146813590Y-108126304D01*
X146765971Y-108173923D01*
X146718352Y-108269161D01*
X148569419Y-109907200D02*
X148521800Y-109859580D01*
X148474180Y-109764342D01*
X148474180Y-109526247D01*
X148521800Y-109431009D01*
X148569419Y-109383390D01*
X148664657Y-109335771D01*
X148759895Y-109335771D01*
X148902752Y-109383390D01*
X149474180Y-109954819D01*
X149474180Y-109335771D01*
X149378942Y-108907200D02*
X149426561Y-108859580D01*
X149474180Y-108907200D01*
X149426561Y-108954819D01*
X149378942Y-108907200D01*
X149474180Y-108907200D01*
X148807514Y-108002438D02*
X149474180Y-108002438D01*
X148426561Y-108240533D02*
X149140847Y-108478628D01*
X149140847Y-107859580D01*
X149474180Y-107478628D02*
X148474180Y-107478628D01*
X149474180Y-106907200D02*
X148902752Y-107335771D01*
X148474180Y-106907200D02*
X149045609Y-107478628D01*
%TO.C,R7*%
X180208180Y-108599266D02*
X179731990Y-108932600D01*
X180208180Y-109170695D02*
X179208180Y-109170695D01*
X179208180Y-108789742D01*
X179255800Y-108694504D01*
X179303419Y-108646885D01*
X179398657Y-108599266D01*
X179541514Y-108599266D01*
X179636752Y-108646885D01*
X179684371Y-108694504D01*
X179731990Y-108789742D01*
X179731990Y-109170695D01*
X179208180Y-108265933D02*
X179208180Y-107599266D01*
X180208180Y-108027838D01*
X181487819Y-109888161D02*
X181440200Y-109840542D01*
X181392580Y-109745304D01*
X181392580Y-109507209D01*
X181440200Y-109411971D01*
X181487819Y-109364352D01*
X181583057Y-109316733D01*
X181678295Y-109316733D01*
X181821152Y-109364352D01*
X182392580Y-109935780D01*
X182392580Y-109316733D01*
X182297342Y-108888161D02*
X182344961Y-108840542D01*
X182392580Y-108888161D01*
X182344961Y-108935780D01*
X182297342Y-108888161D01*
X182392580Y-108888161D01*
X181725914Y-107983400D02*
X182392580Y-107983400D01*
X181344961Y-108221495D02*
X182059247Y-108459590D01*
X182059247Y-107840542D01*
X182392580Y-107459590D02*
X181392580Y-107459590D01*
X182011628Y-107364352D02*
X182392580Y-107078638D01*
X181725914Y-107078638D02*
X182106866Y-107459590D01*
%TO.C,R6*%
X186862980Y-108548466D02*
X186386790Y-108881800D01*
X186862980Y-109119895D02*
X185862980Y-109119895D01*
X185862980Y-108738942D01*
X185910600Y-108643704D01*
X185958219Y-108596085D01*
X186053457Y-108548466D01*
X186196314Y-108548466D01*
X186291552Y-108596085D01*
X186339171Y-108643704D01*
X186386790Y-108738942D01*
X186386790Y-109119895D01*
X185862980Y-107691323D02*
X185862980Y-107881800D01*
X185910600Y-107977038D01*
X185958219Y-108024657D01*
X186101076Y-108119895D01*
X186291552Y-108167514D01*
X186672504Y-108167514D01*
X186767742Y-108119895D01*
X186815361Y-108072276D01*
X186862980Y-107977038D01*
X186862980Y-107786561D01*
X186815361Y-107691323D01*
X186767742Y-107643704D01*
X186672504Y-107596085D01*
X186434409Y-107596085D01*
X186339171Y-107643704D01*
X186291552Y-107691323D01*
X186243933Y-107786561D01*
X186243933Y-107977038D01*
X186291552Y-108072276D01*
X186339171Y-108119895D01*
X186434409Y-108167514D01*
X188193419Y-109938961D02*
X188145800Y-109891342D01*
X188098180Y-109796104D01*
X188098180Y-109558009D01*
X188145800Y-109462771D01*
X188193419Y-109415152D01*
X188288657Y-109367533D01*
X188383895Y-109367533D01*
X188526752Y-109415152D01*
X189098180Y-109986580D01*
X189098180Y-109367533D01*
X189002942Y-108938961D02*
X189050561Y-108891342D01*
X189098180Y-108938961D01*
X189050561Y-108986580D01*
X189002942Y-108938961D01*
X189098180Y-108938961D01*
X188431514Y-108034200D02*
X189098180Y-108034200D01*
X188050561Y-108272295D02*
X188764847Y-108510390D01*
X188764847Y-107891342D01*
X189098180Y-107510390D02*
X188098180Y-107510390D01*
X188717228Y-107415152D02*
X189098180Y-107129438D01*
X188431514Y-107129438D02*
X188812466Y-107510390D01*
%TO.C,R5*%
X154020780Y-108726266D02*
X153544590Y-109059600D01*
X154020780Y-109297695D02*
X153020780Y-109297695D01*
X153020780Y-108916742D01*
X153068400Y-108821504D01*
X153116019Y-108773885D01*
X153211257Y-108726266D01*
X153354114Y-108726266D01*
X153449352Y-108773885D01*
X153496971Y-108821504D01*
X153544590Y-108916742D01*
X153544590Y-109297695D01*
X153020780Y-107821504D02*
X153020780Y-108297695D01*
X153496971Y-108345314D01*
X153449352Y-108297695D01*
X153401733Y-108202457D01*
X153401733Y-107964361D01*
X153449352Y-107869123D01*
X153496971Y-107821504D01*
X153592209Y-107773885D01*
X153830304Y-107773885D01*
X153925542Y-107821504D01*
X153973161Y-107869123D01*
X154020780Y-107964361D01*
X154020780Y-108202457D01*
X153973161Y-108297695D01*
X153925542Y-108345314D01*
X155249619Y-109862761D02*
X155202000Y-109815142D01*
X155154380Y-109719904D01*
X155154380Y-109481809D01*
X155202000Y-109386571D01*
X155249619Y-109338952D01*
X155344857Y-109291333D01*
X155440095Y-109291333D01*
X155582952Y-109338952D01*
X156154380Y-109910380D01*
X156154380Y-109291333D01*
X156059142Y-108862761D02*
X156106761Y-108815142D01*
X156154380Y-108862761D01*
X156106761Y-108910380D01*
X156059142Y-108862761D01*
X156154380Y-108862761D01*
X155487714Y-107958000D02*
X156154380Y-107958000D01*
X155106761Y-108196095D02*
X155821047Y-108434190D01*
X155821047Y-107815142D01*
X156154380Y-107434190D02*
X155154380Y-107434190D01*
X155773428Y-107338952D02*
X156154380Y-107053238D01*
X155487714Y-107053238D02*
X155868666Y-107434190D01*
%TO.C,R4*%
X160446980Y-108751666D02*
X159970790Y-109085000D01*
X160446980Y-109323095D02*
X159446980Y-109323095D01*
X159446980Y-108942142D01*
X159494600Y-108846904D01*
X159542219Y-108799285D01*
X159637457Y-108751666D01*
X159780314Y-108751666D01*
X159875552Y-108799285D01*
X159923171Y-108846904D01*
X159970790Y-108942142D01*
X159970790Y-109323095D01*
X159780314Y-107894523D02*
X160446980Y-107894523D01*
X159399361Y-108132619D02*
X160113647Y-108370714D01*
X160113647Y-107751666D01*
%TO.C,R3*%
X167203380Y-108599266D02*
X166727190Y-108932600D01*
X167203380Y-109170695D02*
X166203380Y-109170695D01*
X166203380Y-108789742D01*
X166251000Y-108694504D01*
X166298619Y-108646885D01*
X166393857Y-108599266D01*
X166536714Y-108599266D01*
X166631952Y-108646885D01*
X166679571Y-108694504D01*
X166727190Y-108789742D01*
X166727190Y-109170695D01*
X166203380Y-108265933D02*
X166203380Y-107646885D01*
X166584333Y-107980219D01*
X166584333Y-107837361D01*
X166631952Y-107742123D01*
X166679571Y-107694504D01*
X166774809Y-107646885D01*
X167012904Y-107646885D01*
X167108142Y-107694504D01*
X167155761Y-107742123D01*
X167203380Y-107837361D01*
X167203380Y-108123076D01*
X167155761Y-108218314D01*
X167108142Y-108265933D01*
X168432219Y-109786561D02*
X168384600Y-109738942D01*
X168336980Y-109643704D01*
X168336980Y-109405609D01*
X168384600Y-109310371D01*
X168432219Y-109262752D01*
X168527457Y-109215133D01*
X168622695Y-109215133D01*
X168765552Y-109262752D01*
X169336980Y-109834180D01*
X169336980Y-109215133D01*
X169241742Y-108786561D02*
X169289361Y-108738942D01*
X169336980Y-108786561D01*
X169289361Y-108834180D01*
X169241742Y-108786561D01*
X169336980Y-108786561D01*
X168670314Y-107881800D02*
X169336980Y-107881800D01*
X168289361Y-108119895D02*
X169003647Y-108357990D01*
X169003647Y-107738942D01*
X169336980Y-107357990D02*
X168336980Y-107357990D01*
X168956028Y-107262752D02*
X169336980Y-106977038D01*
X168670314Y-106977038D02*
X169051266Y-107357990D01*
%TO.C,R2*%
X173604180Y-108853266D02*
X173127990Y-109186600D01*
X173604180Y-109424695D02*
X172604180Y-109424695D01*
X172604180Y-109043742D01*
X172651800Y-108948504D01*
X172699419Y-108900885D01*
X172794657Y-108853266D01*
X172937514Y-108853266D01*
X173032752Y-108900885D01*
X173080371Y-108948504D01*
X173127990Y-109043742D01*
X173127990Y-109424695D01*
X172699419Y-108472314D02*
X172651800Y-108424695D01*
X172604180Y-108329457D01*
X172604180Y-108091361D01*
X172651800Y-107996123D01*
X172699419Y-107948504D01*
X172794657Y-107900885D01*
X172889895Y-107900885D01*
X173032752Y-107948504D01*
X173604180Y-108519933D01*
X173604180Y-107900885D01*
X174833019Y-109989761D02*
X174785400Y-109942142D01*
X174737780Y-109846904D01*
X174737780Y-109608809D01*
X174785400Y-109513571D01*
X174833019Y-109465952D01*
X174928257Y-109418333D01*
X175023495Y-109418333D01*
X175166352Y-109465952D01*
X175737780Y-110037380D01*
X175737780Y-109418333D01*
X175642542Y-108989761D02*
X175690161Y-108942142D01*
X175737780Y-108989761D01*
X175690161Y-109037380D01*
X175642542Y-108989761D01*
X175737780Y-108989761D01*
X175071114Y-108085000D02*
X175737780Y-108085000D01*
X174690161Y-108323095D02*
X175404447Y-108561190D01*
X175404447Y-107942142D01*
X175737780Y-107561190D02*
X174737780Y-107561190D01*
X175356828Y-107465952D02*
X175737780Y-107180238D01*
X175071114Y-107180238D02*
X175452066Y-107561190D01*
%TO.C,R1*%
X193484580Y-108802466D02*
X193008390Y-109135800D01*
X193484580Y-109373895D02*
X192484580Y-109373895D01*
X192484580Y-108992942D01*
X192532200Y-108897704D01*
X192579819Y-108850085D01*
X192675057Y-108802466D01*
X192817914Y-108802466D01*
X192913152Y-108850085D01*
X192960771Y-108897704D01*
X193008390Y-108992942D01*
X193008390Y-109373895D01*
X193484580Y-107850085D02*
X193484580Y-108421514D01*
X193484580Y-108135800D02*
X192484580Y-108135800D01*
X192627438Y-108231038D01*
X192722676Y-108326276D01*
X192770295Y-108421514D01*
X194848219Y-109659561D02*
X194800600Y-109611942D01*
X194752980Y-109516704D01*
X194752980Y-109278609D01*
X194800600Y-109183371D01*
X194848219Y-109135752D01*
X194943457Y-109088133D01*
X195038695Y-109088133D01*
X195181552Y-109135752D01*
X195752980Y-109707180D01*
X195752980Y-109088133D01*
X195657742Y-108659561D02*
X195705361Y-108611942D01*
X195752980Y-108659561D01*
X195705361Y-108707180D01*
X195657742Y-108659561D01*
X195752980Y-108659561D01*
X195086314Y-107754800D02*
X195752980Y-107754800D01*
X194705361Y-107992895D02*
X195419647Y-108230990D01*
X195419647Y-107611942D01*
X195752980Y-107230990D02*
X194752980Y-107230990D01*
X195372028Y-107135752D02*
X195752980Y-106850038D01*
X195086314Y-106850038D02*
X195467266Y-107230990D01*
%TO.C,Q6*%
X185756561Y-83935819D02*
X185661323Y-83888200D01*
X185566085Y-83792961D01*
X185423228Y-83650104D01*
X185327990Y-83602485D01*
X185232752Y-83602485D01*
X185280371Y-83840580D02*
X185185133Y-83792961D01*
X185089895Y-83697723D01*
X185042276Y-83507247D01*
X185042276Y-83173914D01*
X185089895Y-82983438D01*
X185185133Y-82888200D01*
X185280371Y-82840580D01*
X185470847Y-82840580D01*
X185566085Y-82888200D01*
X185661323Y-82983438D01*
X185708942Y-83173914D01*
X185708942Y-83507247D01*
X185661323Y-83697723D01*
X185566085Y-83792961D01*
X185470847Y-83840580D01*
X185280371Y-83840580D01*
X186566085Y-82840580D02*
X186375609Y-82840580D01*
X186280371Y-82888200D01*
X186232752Y-82935819D01*
X186137514Y-83078676D01*
X186089895Y-83269152D01*
X186089895Y-83650104D01*
X186137514Y-83745342D01*
X186185133Y-83792961D01*
X186280371Y-83840580D01*
X186470847Y-83840580D01*
X186566085Y-83792961D01*
X186613704Y-83745342D01*
X186661323Y-83650104D01*
X186661323Y-83412009D01*
X186613704Y-83316771D01*
X186566085Y-83269152D01*
X186470847Y-83221533D01*
X186280371Y-83221533D01*
X186185133Y-83269152D01*
X186137514Y-83316771D01*
X186089895Y-83412009D01*
X174809733Y-80716380D02*
X174809733Y-79716380D01*
X175238304Y-80668761D02*
X175381161Y-80716380D01*
X175619257Y-80716380D01*
X175714495Y-80668761D01*
X175762114Y-80621142D01*
X175809733Y-80525904D01*
X175809733Y-80430666D01*
X175762114Y-80335428D01*
X175714495Y-80287809D01*
X175619257Y-80240190D01*
X175428780Y-80192571D01*
X175333542Y-80144952D01*
X175285923Y-80097333D01*
X175238304Y-80002095D01*
X175238304Y-79906857D01*
X175285923Y-79811619D01*
X175333542Y-79764000D01*
X175428780Y-79716380D01*
X175666876Y-79716380D01*
X175809733Y-79764000D01*
X176714495Y-80716380D02*
X176238304Y-80716380D01*
X176238304Y-79716380D01*
X177095447Y-80716380D02*
X177285923Y-80716380D01*
X177381161Y-80668761D01*
X177428780Y-80621142D01*
X177524019Y-80478285D01*
X177571638Y-80287809D01*
X177571638Y-79906857D01*
X177524019Y-79811619D01*
X177476400Y-79764000D01*
X177381161Y-79716380D01*
X177190685Y-79716380D01*
X177095447Y-79764000D01*
X177047828Y-79811619D01*
X177000209Y-79906857D01*
X177000209Y-80144952D01*
X177047828Y-80240190D01*
X177095447Y-80287809D01*
X177190685Y-80335428D01*
X177381161Y-80335428D01*
X177476400Y-80287809D01*
X177524019Y-80240190D01*
X177571638Y-80144952D01*
X177857352Y-79716380D02*
X178190685Y-80716380D01*
X178524019Y-79716380D01*
X178762114Y-79716380D02*
X179381161Y-79716380D01*
X179047828Y-80097333D01*
X179190685Y-80097333D01*
X179285923Y-80144952D01*
X179333542Y-80192571D01*
X179381161Y-80287809D01*
X179381161Y-80525904D01*
X179333542Y-80621142D01*
X179285923Y-80668761D01*
X179190685Y-80716380D01*
X178904971Y-80716380D01*
X178809733Y-80668761D01*
X178762114Y-80621142D01*
X180000209Y-79716380D02*
X180095447Y-79716380D01*
X180190685Y-79764000D01*
X180238304Y-79811619D01*
X180285923Y-79906857D01*
X180333542Y-80097333D01*
X180333542Y-80335428D01*
X180285923Y-80525904D01*
X180238304Y-80621142D01*
X180190685Y-80668761D01*
X180095447Y-80716380D01*
X180000209Y-80716380D01*
X179904971Y-80668761D01*
X179857352Y-80621142D01*
X179809733Y-80525904D01*
X179762114Y-80335428D01*
X179762114Y-80097333D01*
X179809733Y-79906857D01*
X179857352Y-79811619D01*
X179904971Y-79764000D01*
X180000209Y-79716380D01*
X181190685Y-80049714D02*
X181190685Y-80716380D01*
X180952590Y-79668761D02*
X180714495Y-80383047D01*
X181333542Y-80383047D01*
X181904971Y-79716380D02*
X182000209Y-79716380D01*
X182095447Y-79764000D01*
X182143066Y-79811619D01*
X182190685Y-79906857D01*
X182238304Y-80097333D01*
X182238304Y-80335428D01*
X182190685Y-80525904D01*
X182143066Y-80621142D01*
X182095447Y-80668761D01*
X182000209Y-80716380D01*
X181904971Y-80716380D01*
X181809733Y-80668761D01*
X181762114Y-80621142D01*
X181714495Y-80525904D01*
X181666876Y-80335428D01*
X181666876Y-80097333D01*
X181714495Y-79906857D01*
X181762114Y-79811619D01*
X181809733Y-79764000D01*
X181904971Y-79716380D01*
X182666876Y-80716380D02*
X182666876Y-79716380D01*
X183047828Y-79716380D01*
X183143066Y-79764000D01*
X183190685Y-79811619D01*
X183238304Y-79906857D01*
X183238304Y-80049714D01*
X183190685Y-80144952D01*
X183143066Y-80192571D01*
X183047828Y-80240190D01*
X182666876Y-80240190D01*
X183571638Y-79716380D02*
X184190685Y-79716380D01*
X183857352Y-80097333D01*
X184000209Y-80097333D01*
X184095447Y-80144952D01*
X184143066Y-80192571D01*
X184190685Y-80287809D01*
X184190685Y-80525904D01*
X184143066Y-80621142D01*
X184095447Y-80668761D01*
X184000209Y-80716380D01*
X183714495Y-80716380D01*
X183619257Y-80668761D01*
X183571638Y-80621142D01*
%TO.C,Q4*%
X131349761Y-38444419D02*
X131254523Y-38396800D01*
X131159285Y-38301561D01*
X131016428Y-38158704D01*
X130921190Y-38111085D01*
X130825952Y-38111085D01*
X130873571Y-38349180D02*
X130778333Y-38301561D01*
X130683095Y-38206323D01*
X130635476Y-38015847D01*
X130635476Y-37682514D01*
X130683095Y-37492038D01*
X130778333Y-37396800D01*
X130873571Y-37349180D01*
X131064047Y-37349180D01*
X131159285Y-37396800D01*
X131254523Y-37492038D01*
X131302142Y-37682514D01*
X131302142Y-38015847D01*
X131254523Y-38206323D01*
X131159285Y-38301561D01*
X131064047Y-38349180D01*
X130873571Y-38349180D01*
X132159285Y-37682514D02*
X132159285Y-38349180D01*
X131921190Y-37301561D02*
X131683095Y-38015847D01*
X132302142Y-38015847D01*
X121388666Y-34609066D02*
X121864857Y-34609066D01*
X121293428Y-34894780D02*
X121626761Y-33894780D01*
X121960095Y-34894780D01*
X122293428Y-33894780D02*
X122293428Y-34704304D01*
X122341047Y-34799542D01*
X122388666Y-34847161D01*
X122483904Y-34894780D01*
X122674380Y-34894780D01*
X122769619Y-34847161D01*
X122817238Y-34799542D01*
X122864857Y-34704304D01*
X122864857Y-33894780D01*
X123341047Y-34894780D02*
X123341047Y-33894780D01*
X124388666Y-34894780D02*
X124055333Y-34418590D01*
X123817238Y-34894780D02*
X123817238Y-33894780D01*
X124198190Y-33894780D01*
X124293428Y-33942400D01*
X124341047Y-33990019D01*
X124388666Y-34085257D01*
X124388666Y-34228114D01*
X124341047Y-34323352D01*
X124293428Y-34370971D01*
X124198190Y-34418590D01*
X123817238Y-34418590D01*
X125150571Y-34370971D02*
X124817238Y-34370971D01*
X124817238Y-34894780D02*
X124817238Y-33894780D01*
X125293428Y-33894780D01*
X125579142Y-33894780D02*
X126198190Y-33894780D01*
X125864857Y-34275733D01*
X126007714Y-34275733D01*
X126102952Y-34323352D01*
X126150571Y-34370971D01*
X126198190Y-34466209D01*
X126198190Y-34704304D01*
X126150571Y-34799542D01*
X126102952Y-34847161D01*
X126007714Y-34894780D01*
X125722000Y-34894780D01*
X125626761Y-34847161D01*
X125579142Y-34799542D01*
X126579142Y-33990019D02*
X126626761Y-33942400D01*
X126722000Y-33894780D01*
X126960095Y-33894780D01*
X127055333Y-33942400D01*
X127102952Y-33990019D01*
X127150571Y-34085257D01*
X127150571Y-34180495D01*
X127102952Y-34323352D01*
X126531523Y-34894780D01*
X127150571Y-34894780D01*
X127769619Y-33894780D02*
X127864857Y-33894780D01*
X127960095Y-33942400D01*
X128007714Y-33990019D01*
X128055333Y-34085257D01*
X128102952Y-34275733D01*
X128102952Y-34513828D01*
X128055333Y-34704304D01*
X128007714Y-34799542D01*
X127960095Y-34847161D01*
X127864857Y-34894780D01*
X127769619Y-34894780D01*
X127674380Y-34847161D01*
X127626761Y-34799542D01*
X127579142Y-34704304D01*
X127531523Y-34513828D01*
X127531523Y-34275733D01*
X127579142Y-34085257D01*
X127626761Y-33990019D01*
X127674380Y-33942400D01*
X127769619Y-33894780D01*
X129007714Y-33894780D02*
X128531523Y-33894780D01*
X128483904Y-34370971D01*
X128531523Y-34323352D01*
X128626761Y-34275733D01*
X128864857Y-34275733D01*
X128960095Y-34323352D01*
X129007714Y-34370971D01*
X129055333Y-34466209D01*
X129055333Y-34704304D01*
X129007714Y-34799542D01*
X128960095Y-34847161D01*
X128864857Y-34894780D01*
X128626761Y-34894780D01*
X128531523Y-34847161D01*
X128483904Y-34799542D01*
%TO.C,Q3*%
X146665961Y-84062819D02*
X146570723Y-84015200D01*
X146475485Y-83919961D01*
X146332628Y-83777104D01*
X146237390Y-83729485D01*
X146142152Y-83729485D01*
X146189771Y-83967580D02*
X146094533Y-83919961D01*
X145999295Y-83824723D01*
X145951676Y-83634247D01*
X145951676Y-83300914D01*
X145999295Y-83110438D01*
X146094533Y-83015200D01*
X146189771Y-82967580D01*
X146380247Y-82967580D01*
X146475485Y-83015200D01*
X146570723Y-83110438D01*
X146618342Y-83300914D01*
X146618342Y-83634247D01*
X146570723Y-83824723D01*
X146475485Y-83919961D01*
X146380247Y-83967580D01*
X146189771Y-83967580D01*
X146951676Y-82967580D02*
X147570723Y-82967580D01*
X147237390Y-83348533D01*
X147380247Y-83348533D01*
X147475485Y-83396152D01*
X147523104Y-83443771D01*
X147570723Y-83539009D01*
X147570723Y-83777104D01*
X147523104Y-83872342D01*
X147475485Y-83919961D01*
X147380247Y-83967580D01*
X147094533Y-83967580D01*
X146999295Y-83919961D01*
X146951676Y-83872342D01*
X136349266Y-80481466D02*
X136825457Y-80481466D01*
X136254028Y-80767180D02*
X136587361Y-79767180D01*
X136920695Y-80767180D01*
X137254028Y-79767180D02*
X137254028Y-80576704D01*
X137301647Y-80671942D01*
X137349266Y-80719561D01*
X137444504Y-80767180D01*
X137634980Y-80767180D01*
X137730219Y-80719561D01*
X137777838Y-80671942D01*
X137825457Y-80576704D01*
X137825457Y-79767180D01*
X138301647Y-80767180D02*
X138301647Y-79767180D01*
X139349266Y-80767180D02*
X139015933Y-80290990D01*
X138777838Y-80767180D02*
X138777838Y-79767180D01*
X139158790Y-79767180D01*
X139254028Y-79814800D01*
X139301647Y-79862419D01*
X139349266Y-79957657D01*
X139349266Y-80100514D01*
X139301647Y-80195752D01*
X139254028Y-80243371D01*
X139158790Y-80290990D01*
X138777838Y-80290990D01*
X140111171Y-80243371D02*
X139777838Y-80243371D01*
X139777838Y-80767180D02*
X139777838Y-79767180D01*
X140254028Y-79767180D01*
X140539742Y-79767180D02*
X141158790Y-79767180D01*
X140825457Y-80148133D01*
X140968314Y-80148133D01*
X141063552Y-80195752D01*
X141111171Y-80243371D01*
X141158790Y-80338609D01*
X141158790Y-80576704D01*
X141111171Y-80671942D01*
X141063552Y-80719561D01*
X140968314Y-80767180D01*
X140682600Y-80767180D01*
X140587361Y-80719561D01*
X140539742Y-80671942D01*
X141539742Y-79862419D02*
X141587361Y-79814800D01*
X141682600Y-79767180D01*
X141920695Y-79767180D01*
X142015933Y-79814800D01*
X142063552Y-79862419D01*
X142111171Y-79957657D01*
X142111171Y-80052895D01*
X142063552Y-80195752D01*
X141492123Y-80767180D01*
X142111171Y-80767180D01*
X142730219Y-79767180D02*
X142825457Y-79767180D01*
X142920695Y-79814800D01*
X142968314Y-79862419D01*
X143015933Y-79957657D01*
X143063552Y-80148133D01*
X143063552Y-80386228D01*
X143015933Y-80576704D01*
X142968314Y-80671942D01*
X142920695Y-80719561D01*
X142825457Y-80767180D01*
X142730219Y-80767180D01*
X142634980Y-80719561D01*
X142587361Y-80671942D01*
X142539742Y-80576704D01*
X142492123Y-80386228D01*
X142492123Y-80148133D01*
X142539742Y-79957657D01*
X142587361Y-79862419D01*
X142634980Y-79814800D01*
X142730219Y-79767180D01*
X143968314Y-79767180D02*
X143492123Y-79767180D01*
X143444504Y-80243371D01*
X143492123Y-80195752D01*
X143587361Y-80148133D01*
X143825457Y-80148133D01*
X143920695Y-80195752D01*
X143968314Y-80243371D01*
X144015933Y-80338609D01*
X144015933Y-80576704D01*
X143968314Y-80671942D01*
X143920695Y-80719561D01*
X143825457Y-80767180D01*
X143587361Y-80767180D01*
X143492123Y-80719561D01*
X143444504Y-80671942D01*
%TO.C,Q2*%
X159645361Y-83859619D02*
X159550123Y-83812000D01*
X159454885Y-83716761D01*
X159312028Y-83573904D01*
X159216790Y-83526285D01*
X159121552Y-83526285D01*
X159169171Y-83764380D02*
X159073933Y-83716761D01*
X158978695Y-83621523D01*
X158931076Y-83431047D01*
X158931076Y-83097714D01*
X158978695Y-82907238D01*
X159073933Y-82812000D01*
X159169171Y-82764380D01*
X159359647Y-82764380D01*
X159454885Y-82812000D01*
X159550123Y-82907238D01*
X159597742Y-83097714D01*
X159597742Y-83431047D01*
X159550123Y-83621523D01*
X159454885Y-83716761D01*
X159359647Y-83764380D01*
X159169171Y-83764380D01*
X159978695Y-82859619D02*
X160026314Y-82812000D01*
X160121552Y-82764380D01*
X160359647Y-82764380D01*
X160454885Y-82812000D01*
X160502504Y-82859619D01*
X160550123Y-82954857D01*
X160550123Y-83050095D01*
X160502504Y-83192952D01*
X159931076Y-83764380D01*
X160550123Y-83764380D01*
X149430266Y-80379866D02*
X149906457Y-80379866D01*
X149335028Y-80665580D02*
X149668361Y-79665580D01*
X150001695Y-80665580D01*
X150335028Y-79665580D02*
X150335028Y-80475104D01*
X150382647Y-80570342D01*
X150430266Y-80617961D01*
X150525504Y-80665580D01*
X150715980Y-80665580D01*
X150811219Y-80617961D01*
X150858838Y-80570342D01*
X150906457Y-80475104D01*
X150906457Y-79665580D01*
X151382647Y-80665580D02*
X151382647Y-79665580D01*
X152430266Y-80665580D02*
X152096933Y-80189390D01*
X151858838Y-80665580D02*
X151858838Y-79665580D01*
X152239790Y-79665580D01*
X152335028Y-79713200D01*
X152382647Y-79760819D01*
X152430266Y-79856057D01*
X152430266Y-79998914D01*
X152382647Y-80094152D01*
X152335028Y-80141771D01*
X152239790Y-80189390D01*
X151858838Y-80189390D01*
X153192171Y-80141771D02*
X152858838Y-80141771D01*
X152858838Y-80665580D02*
X152858838Y-79665580D01*
X153335028Y-79665580D01*
X153620742Y-79665580D02*
X154239790Y-79665580D01*
X153906457Y-80046533D01*
X154049314Y-80046533D01*
X154144552Y-80094152D01*
X154192171Y-80141771D01*
X154239790Y-80237009D01*
X154239790Y-80475104D01*
X154192171Y-80570342D01*
X154144552Y-80617961D01*
X154049314Y-80665580D01*
X153763600Y-80665580D01*
X153668361Y-80617961D01*
X153620742Y-80570342D01*
X154620742Y-79760819D02*
X154668361Y-79713200D01*
X154763600Y-79665580D01*
X155001695Y-79665580D01*
X155096933Y-79713200D01*
X155144552Y-79760819D01*
X155192171Y-79856057D01*
X155192171Y-79951295D01*
X155144552Y-80094152D01*
X154573123Y-80665580D01*
X155192171Y-80665580D01*
X155811219Y-79665580D02*
X155906457Y-79665580D01*
X156001695Y-79713200D01*
X156049314Y-79760819D01*
X156096933Y-79856057D01*
X156144552Y-80046533D01*
X156144552Y-80284628D01*
X156096933Y-80475104D01*
X156049314Y-80570342D01*
X156001695Y-80617961D01*
X155906457Y-80665580D01*
X155811219Y-80665580D01*
X155715980Y-80617961D01*
X155668361Y-80570342D01*
X155620742Y-80475104D01*
X155573123Y-80284628D01*
X155573123Y-80046533D01*
X155620742Y-79856057D01*
X155668361Y-79760819D01*
X155715980Y-79713200D01*
X155811219Y-79665580D01*
X157049314Y-79665580D02*
X156573123Y-79665580D01*
X156525504Y-80141771D01*
X156573123Y-80094152D01*
X156668361Y-80046533D01*
X156906457Y-80046533D01*
X157001695Y-80094152D01*
X157049314Y-80141771D01*
X157096933Y-80237009D01*
X157096933Y-80475104D01*
X157049314Y-80570342D01*
X157001695Y-80617961D01*
X156906457Y-80665580D01*
X156668361Y-80665580D01*
X156573123Y-80617961D01*
X156525504Y-80570342D01*
%TO.C,Q1*%
X172802561Y-83885019D02*
X172707323Y-83837400D01*
X172612085Y-83742161D01*
X172469228Y-83599304D01*
X172373990Y-83551685D01*
X172278752Y-83551685D01*
X172326371Y-83789780D02*
X172231133Y-83742161D01*
X172135895Y-83646923D01*
X172088276Y-83456447D01*
X172088276Y-83123114D01*
X172135895Y-82932638D01*
X172231133Y-82837400D01*
X172326371Y-82789780D01*
X172516847Y-82789780D01*
X172612085Y-82837400D01*
X172707323Y-82932638D01*
X172754942Y-83123114D01*
X172754942Y-83456447D01*
X172707323Y-83646923D01*
X172612085Y-83742161D01*
X172516847Y-83789780D01*
X172326371Y-83789780D01*
X173707323Y-83789780D02*
X173135895Y-83789780D01*
X173421609Y-83789780D02*
X173421609Y-82789780D01*
X173326371Y-82932638D01*
X173231133Y-83027876D01*
X173135895Y-83075495D01*
X162765266Y-80405266D02*
X163241457Y-80405266D01*
X162670028Y-80690980D02*
X163003361Y-79690980D01*
X163336695Y-80690980D01*
X163670028Y-79690980D02*
X163670028Y-80500504D01*
X163717647Y-80595742D01*
X163765266Y-80643361D01*
X163860504Y-80690980D01*
X164050980Y-80690980D01*
X164146219Y-80643361D01*
X164193838Y-80595742D01*
X164241457Y-80500504D01*
X164241457Y-79690980D01*
X164717647Y-80690980D02*
X164717647Y-79690980D01*
X165765266Y-80690980D02*
X165431933Y-80214790D01*
X165193838Y-80690980D02*
X165193838Y-79690980D01*
X165574790Y-79690980D01*
X165670028Y-79738600D01*
X165717647Y-79786219D01*
X165765266Y-79881457D01*
X165765266Y-80024314D01*
X165717647Y-80119552D01*
X165670028Y-80167171D01*
X165574790Y-80214790D01*
X165193838Y-80214790D01*
X166527171Y-80167171D02*
X166193838Y-80167171D01*
X166193838Y-80690980D02*
X166193838Y-79690980D01*
X166670028Y-79690980D01*
X166955742Y-79690980D02*
X167574790Y-79690980D01*
X167241457Y-80071933D01*
X167384314Y-80071933D01*
X167479552Y-80119552D01*
X167527171Y-80167171D01*
X167574790Y-80262409D01*
X167574790Y-80500504D01*
X167527171Y-80595742D01*
X167479552Y-80643361D01*
X167384314Y-80690980D01*
X167098600Y-80690980D01*
X167003361Y-80643361D01*
X166955742Y-80595742D01*
X167955742Y-79786219D02*
X168003361Y-79738600D01*
X168098600Y-79690980D01*
X168336695Y-79690980D01*
X168431933Y-79738600D01*
X168479552Y-79786219D01*
X168527171Y-79881457D01*
X168527171Y-79976695D01*
X168479552Y-80119552D01*
X167908123Y-80690980D01*
X168527171Y-80690980D01*
X169146219Y-79690980D02*
X169241457Y-79690980D01*
X169336695Y-79738600D01*
X169384314Y-79786219D01*
X169431933Y-79881457D01*
X169479552Y-80071933D01*
X169479552Y-80310028D01*
X169431933Y-80500504D01*
X169384314Y-80595742D01*
X169336695Y-80643361D01*
X169241457Y-80690980D01*
X169146219Y-80690980D01*
X169050980Y-80643361D01*
X169003361Y-80595742D01*
X168955742Y-80500504D01*
X168908123Y-80310028D01*
X168908123Y-80071933D01*
X168955742Y-79881457D01*
X169003361Y-79786219D01*
X169050980Y-79738600D01*
X169146219Y-79690980D01*
X170384314Y-79690980D02*
X169908123Y-79690980D01*
X169860504Y-80167171D01*
X169908123Y-80119552D01*
X170003361Y-80071933D01*
X170241457Y-80071933D01*
X170336695Y-80119552D01*
X170384314Y-80167171D01*
X170431933Y-80262409D01*
X170431933Y-80500504D01*
X170384314Y-80595742D01*
X170336695Y-80643361D01*
X170241457Y-80690980D01*
X170003361Y-80690980D01*
X169908123Y-80643361D01*
X169860504Y-80595742D01*
%TO.C,F7*%
X191385866Y-78058971D02*
X191052533Y-78058971D01*
X191052533Y-78582780D02*
X191052533Y-77582780D01*
X191528723Y-77582780D01*
X191814438Y-77582780D02*
X192481104Y-77582780D01*
X192052533Y-78582780D01*
X195291152Y-78506580D02*
X194719723Y-78506580D01*
X195005438Y-78506580D02*
X195005438Y-77506580D01*
X194910200Y-77649438D01*
X194814961Y-77744676D01*
X194719723Y-77792295D01*
X195910200Y-77506580D02*
X196005438Y-77506580D01*
X196100676Y-77554200D01*
X196148295Y-77601819D01*
X196195914Y-77697057D01*
X196243533Y-77887533D01*
X196243533Y-78125628D01*
X196195914Y-78316104D01*
X196148295Y-78411342D01*
X196100676Y-78458961D01*
X196005438Y-78506580D01*
X195910200Y-78506580D01*
X195814961Y-78458961D01*
X195767342Y-78411342D01*
X195719723Y-78316104D01*
X195672104Y-78125628D01*
X195672104Y-77887533D01*
X195719723Y-77697057D01*
X195767342Y-77601819D01*
X195814961Y-77554200D01*
X195910200Y-77506580D01*
X196624485Y-78220866D02*
X197100676Y-78220866D01*
X196529247Y-78506580D02*
X196862580Y-77506580D01*
X197195914Y-78506580D01*
%TO.C,F6*%
X183613466Y-78058971D02*
X183280133Y-78058971D01*
X183280133Y-78582780D02*
X183280133Y-77582780D01*
X183756323Y-77582780D01*
X184565847Y-77582780D02*
X184375371Y-77582780D01*
X184280133Y-77630400D01*
X184232514Y-77678019D01*
X184137276Y-77820876D01*
X184089657Y-78011352D01*
X184089657Y-78392304D01*
X184137276Y-78487542D01*
X184184895Y-78535161D01*
X184280133Y-78582780D01*
X184470609Y-78582780D01*
X184565847Y-78535161D01*
X184613466Y-78487542D01*
X184661085Y-78392304D01*
X184661085Y-78154209D01*
X184613466Y-78058971D01*
X184565847Y-78011352D01*
X184470609Y-77963733D01*
X184280133Y-77963733D01*
X184184895Y-78011352D01*
X184137276Y-78058971D01*
X184089657Y-78154209D01*
X187772752Y-78506580D02*
X187201323Y-78506580D01*
X187487038Y-78506580D02*
X187487038Y-77506580D01*
X187391800Y-77649438D01*
X187296561Y-77744676D01*
X187201323Y-77792295D01*
X188391800Y-77506580D02*
X188487038Y-77506580D01*
X188582276Y-77554200D01*
X188629895Y-77601819D01*
X188677514Y-77697057D01*
X188725133Y-77887533D01*
X188725133Y-78125628D01*
X188677514Y-78316104D01*
X188629895Y-78411342D01*
X188582276Y-78458961D01*
X188487038Y-78506580D01*
X188391800Y-78506580D01*
X188296561Y-78458961D01*
X188248942Y-78411342D01*
X188201323Y-78316104D01*
X188153704Y-78125628D01*
X188153704Y-77887533D01*
X188201323Y-77697057D01*
X188248942Y-77601819D01*
X188296561Y-77554200D01*
X188391800Y-77506580D01*
X189106085Y-78220866D02*
X189582276Y-78220866D01*
X189010847Y-78506580D02*
X189344180Y-77506580D01*
X189677514Y-78506580D01*
%TO.C,F5*%
X175739466Y-78058971D02*
X175406133Y-78058971D01*
X175406133Y-78582780D02*
X175406133Y-77582780D01*
X175882323Y-77582780D01*
X176739466Y-77582780D02*
X176263276Y-77582780D01*
X176215657Y-78058971D01*
X176263276Y-78011352D01*
X176358514Y-77963733D01*
X176596609Y-77963733D01*
X176691847Y-78011352D01*
X176739466Y-78058971D01*
X176787085Y-78154209D01*
X176787085Y-78392304D01*
X176739466Y-78487542D01*
X176691847Y-78535161D01*
X176596609Y-78582780D01*
X176358514Y-78582780D01*
X176263276Y-78535161D01*
X176215657Y-78487542D01*
X179695552Y-78506580D02*
X179124123Y-78506580D01*
X179409838Y-78506580D02*
X179409838Y-77506580D01*
X179314600Y-77649438D01*
X179219361Y-77744676D01*
X179124123Y-77792295D01*
X180314600Y-77506580D02*
X180409838Y-77506580D01*
X180505076Y-77554200D01*
X180552695Y-77601819D01*
X180600314Y-77697057D01*
X180647933Y-77887533D01*
X180647933Y-78125628D01*
X180600314Y-78316104D01*
X180552695Y-78411342D01*
X180505076Y-78458961D01*
X180409838Y-78506580D01*
X180314600Y-78506580D01*
X180219361Y-78458961D01*
X180171742Y-78411342D01*
X180124123Y-78316104D01*
X180076504Y-78125628D01*
X180076504Y-77887533D01*
X180124123Y-77697057D01*
X180171742Y-77601819D01*
X180219361Y-77554200D01*
X180314600Y-77506580D01*
X181028885Y-78220866D02*
X181505076Y-78220866D01*
X180933647Y-78506580D02*
X181266980Y-77506580D01*
X181600314Y-78506580D01*
%TO.C,F4*%
X168094066Y-78135171D02*
X167760733Y-78135171D01*
X167760733Y-78658980D02*
X167760733Y-77658980D01*
X168236923Y-77658980D01*
X169046447Y-77992314D02*
X169046447Y-78658980D01*
X168808352Y-77611361D02*
X168570257Y-78325647D01*
X169189304Y-78325647D01*
X171897752Y-78557380D02*
X171326323Y-78557380D01*
X171612038Y-78557380D02*
X171612038Y-77557380D01*
X171516800Y-77700238D01*
X171421561Y-77795476D01*
X171326323Y-77843095D01*
X172516800Y-77557380D02*
X172612038Y-77557380D01*
X172707276Y-77605000D01*
X172754895Y-77652619D01*
X172802514Y-77747857D01*
X172850133Y-77938333D01*
X172850133Y-78176428D01*
X172802514Y-78366904D01*
X172754895Y-78462142D01*
X172707276Y-78509761D01*
X172612038Y-78557380D01*
X172516800Y-78557380D01*
X172421561Y-78509761D01*
X172373942Y-78462142D01*
X172326323Y-78366904D01*
X172278704Y-78176428D01*
X172278704Y-77938333D01*
X172326323Y-77747857D01*
X172373942Y-77652619D01*
X172421561Y-77605000D01*
X172516800Y-77557380D01*
X173231085Y-78271666D02*
X173707276Y-78271666D01*
X173135847Y-78557380D02*
X173469180Y-77557380D01*
X173802514Y-78557380D01*
%TO.C,F3*%
X160474066Y-78160571D02*
X160140733Y-78160571D01*
X160140733Y-78684380D02*
X160140733Y-77684380D01*
X160616923Y-77684380D01*
X160902638Y-77684380D02*
X161521685Y-77684380D01*
X161188352Y-78065333D01*
X161331209Y-78065333D01*
X161426447Y-78112952D01*
X161474066Y-78160571D01*
X161521685Y-78255809D01*
X161521685Y-78493904D01*
X161474066Y-78589142D01*
X161426447Y-78636761D01*
X161331209Y-78684380D01*
X161045495Y-78684380D01*
X160950257Y-78636761D01*
X160902638Y-78589142D01*
X164455552Y-78506580D02*
X163884123Y-78506580D01*
X164169838Y-78506580D02*
X164169838Y-77506580D01*
X164074600Y-77649438D01*
X163979361Y-77744676D01*
X163884123Y-77792295D01*
X165074600Y-77506580D02*
X165169838Y-77506580D01*
X165265076Y-77554200D01*
X165312695Y-77601819D01*
X165360314Y-77697057D01*
X165407933Y-77887533D01*
X165407933Y-78125628D01*
X165360314Y-78316104D01*
X165312695Y-78411342D01*
X165265076Y-78458961D01*
X165169838Y-78506580D01*
X165074600Y-78506580D01*
X164979361Y-78458961D01*
X164931742Y-78411342D01*
X164884123Y-78316104D01*
X164836504Y-78125628D01*
X164836504Y-77887533D01*
X164884123Y-77697057D01*
X164931742Y-77601819D01*
X164979361Y-77554200D01*
X165074600Y-77506580D01*
X165788885Y-78220866D02*
X166265076Y-78220866D01*
X165693647Y-78506580D02*
X166026980Y-77506580D01*
X166360314Y-78506580D01*
%TO.C,F2*%
X154106571Y-73663133D02*
X154106571Y-73996466D01*
X154630380Y-73996466D02*
X153630380Y-73996466D01*
X153630380Y-73520276D01*
X153725619Y-73186942D02*
X153678000Y-73139323D01*
X153630380Y-73044085D01*
X153630380Y-72805990D01*
X153678000Y-72710752D01*
X153725619Y-72663133D01*
X153820857Y-72615514D01*
X153916095Y-72615514D01*
X154058952Y-72663133D01*
X154630380Y-73234561D01*
X154630380Y-72615514D01*
X154655780Y-69941628D02*
X154179590Y-70274961D01*
X154655780Y-70513057D02*
X153655780Y-70513057D01*
X153655780Y-70132104D01*
X153703400Y-70036866D01*
X153751019Y-69989247D01*
X153846257Y-69941628D01*
X153989114Y-69941628D01*
X154084352Y-69989247D01*
X154131971Y-70036866D01*
X154179590Y-70132104D01*
X154179590Y-70513057D01*
X153655780Y-69608295D02*
X154655780Y-68941628D01*
X153655780Y-68941628D02*
X154655780Y-69608295D01*
X154131971Y-68560676D02*
X154131971Y-68227342D01*
X154655780Y-68084485D02*
X154655780Y-68560676D01*
X153655780Y-68560676D01*
X153655780Y-68084485D01*
X154131971Y-67322580D02*
X154131971Y-67655914D01*
X154655780Y-67655914D02*
X153655780Y-67655914D01*
X153655780Y-67179723D01*
X154655780Y-66274961D02*
X154655780Y-66846390D01*
X154655780Y-66560676D02*
X153655780Y-66560676D01*
X153798638Y-66655914D01*
X153893876Y-66751152D01*
X153941495Y-66846390D01*
X153655780Y-65941628D02*
X153655780Y-65322580D01*
X154036733Y-65655914D01*
X154036733Y-65513057D01*
X154084352Y-65417819D01*
X154131971Y-65370200D01*
X154227209Y-65322580D01*
X154465304Y-65322580D01*
X154560542Y-65370200D01*
X154608161Y-65417819D01*
X154655780Y-65513057D01*
X154655780Y-65798771D01*
X154608161Y-65894009D01*
X154560542Y-65941628D01*
X153655780Y-64417819D02*
X153655780Y-64894009D01*
X154131971Y-64941628D01*
X154084352Y-64894009D01*
X154036733Y-64798771D01*
X154036733Y-64560676D01*
X154084352Y-64465438D01*
X154131971Y-64417819D01*
X154227209Y-64370200D01*
X154465304Y-64370200D01*
X154560542Y-64417819D01*
X154608161Y-64465438D01*
X154655780Y-64560676D01*
X154655780Y-64798771D01*
X154608161Y-64894009D01*
X154560542Y-64941628D01*
X154274828Y-63941628D02*
X154274828Y-63179723D01*
X154655780Y-62179723D02*
X154655780Y-62751152D01*
X154655780Y-62465438D02*
X153655780Y-62465438D01*
X153798638Y-62560676D01*
X153893876Y-62655914D01*
X153941495Y-62751152D01*
%TO.C,F1*%
X199209066Y-51414371D02*
X198875733Y-51414371D01*
X198875733Y-51938180D02*
X198875733Y-50938180D01*
X199351923Y-50938180D01*
X200256685Y-51938180D02*
X199685257Y-51938180D01*
X199970971Y-51938180D02*
X199970971Y-50938180D01*
X199875733Y-51081038D01*
X199780495Y-51176276D01*
X199685257Y-51223895D01*
X202161923Y-51033419D02*
X202209542Y-50985800D01*
X202304780Y-50938180D01*
X202542876Y-50938180D01*
X202638114Y-50985800D01*
X202685733Y-51033419D01*
X202733352Y-51128657D01*
X202733352Y-51223895D01*
X202685733Y-51366752D01*
X202114304Y-51938180D01*
X202733352Y-51938180D01*
X203352400Y-50938180D02*
X203447638Y-50938180D01*
X203542876Y-50985800D01*
X203590495Y-51033419D01*
X203638114Y-51128657D01*
X203685733Y-51319133D01*
X203685733Y-51557228D01*
X203638114Y-51747704D01*
X203590495Y-51842942D01*
X203542876Y-51890561D01*
X203447638Y-51938180D01*
X203352400Y-51938180D01*
X203257161Y-51890561D01*
X203209542Y-51842942D01*
X203161923Y-51747704D01*
X203114304Y-51557228D01*
X203114304Y-51319133D01*
X203161923Y-51128657D01*
X203209542Y-51033419D01*
X203257161Y-50985800D01*
X203352400Y-50938180D01*
X204066685Y-51652466D02*
X204542876Y-51652466D01*
X203971447Y-51938180D02*
X204304780Y-50938180D01*
X204638114Y-51938180D01*
%TO.C,D17*%
X197820114Y-114625380D02*
X197820114Y-113625380D01*
X198058209Y-113625380D01*
X198201066Y-113673000D01*
X198296304Y-113768238D01*
X198343923Y-113863476D01*
X198391542Y-114053952D01*
X198391542Y-114196809D01*
X198343923Y-114387285D01*
X198296304Y-114482523D01*
X198201066Y-114577761D01*
X198058209Y-114625380D01*
X197820114Y-114625380D01*
X199343923Y-114625380D02*
X198772495Y-114625380D01*
X199058209Y-114625380D02*
X199058209Y-113625380D01*
X198962971Y-113768238D01*
X198867733Y-113863476D01*
X198772495Y-113911095D01*
X199677257Y-113625380D02*
X200343923Y-113625380D01*
X199915352Y-114625380D01*
%TO.C,D16*%
X140355580Y-53614485D02*
X139355580Y-53614485D01*
X139355580Y-53376390D01*
X139403200Y-53233533D01*
X139498438Y-53138295D01*
X139593676Y-53090676D01*
X139784152Y-53043057D01*
X139927009Y-53043057D01*
X140117485Y-53090676D01*
X140212723Y-53138295D01*
X140307961Y-53233533D01*
X140355580Y-53376390D01*
X140355580Y-53614485D01*
X140355580Y-52090676D02*
X140355580Y-52662104D01*
X140355580Y-52376390D02*
X139355580Y-52376390D01*
X139498438Y-52471628D01*
X139593676Y-52566866D01*
X139641295Y-52662104D01*
X139355580Y-51233533D02*
X139355580Y-51424009D01*
X139403200Y-51519247D01*
X139450819Y-51566866D01*
X139593676Y-51662104D01*
X139784152Y-51709723D01*
X140165104Y-51709723D01*
X140260342Y-51662104D01*
X140307961Y-51614485D01*
X140355580Y-51519247D01*
X140355580Y-51328771D01*
X140307961Y-51233533D01*
X140260342Y-51185914D01*
X140165104Y-51138295D01*
X139927009Y-51138295D01*
X139831771Y-51185914D01*
X139784152Y-51233533D01*
X139736533Y-51328771D01*
X139736533Y-51519247D01*
X139784152Y-51614485D01*
X139831771Y-51662104D01*
X139927009Y-51709723D01*
X142844780Y-54898657D02*
X142844780Y-55470085D01*
X142844780Y-55184371D02*
X141844780Y-55184371D01*
X141987638Y-55279609D01*
X142082876Y-55374847D01*
X142130495Y-55470085D01*
X142844780Y-54470085D02*
X141844780Y-54470085D01*
X142844780Y-53898657D01*
X141844780Y-53898657D01*
X142178114Y-52993895D02*
X142844780Y-52993895D01*
X141797161Y-53231990D02*
X142511447Y-53470085D01*
X142511447Y-52851038D01*
X141844780Y-52279609D02*
X141844780Y-52184371D01*
X141892400Y-52089133D01*
X141940019Y-52041514D01*
X142035257Y-51993895D01*
X142225733Y-51946276D01*
X142463828Y-51946276D01*
X142654304Y-51993895D01*
X142749542Y-52041514D01*
X142797161Y-52089133D01*
X142844780Y-52184371D01*
X142844780Y-52279609D01*
X142797161Y-52374847D01*
X142749542Y-52422466D01*
X142654304Y-52470085D01*
X142463828Y-52517704D01*
X142225733Y-52517704D01*
X142035257Y-52470085D01*
X141940019Y-52422466D01*
X141892400Y-52374847D01*
X141844780Y-52279609D01*
X141844780Y-51327228D02*
X141844780Y-51231990D01*
X141892400Y-51136752D01*
X141940019Y-51089133D01*
X142035257Y-51041514D01*
X142225733Y-50993895D01*
X142463828Y-50993895D01*
X142654304Y-51041514D01*
X142749542Y-51089133D01*
X142797161Y-51136752D01*
X142844780Y-51231990D01*
X142844780Y-51327228D01*
X142797161Y-51422466D01*
X142749542Y-51470085D01*
X142654304Y-51517704D01*
X142463828Y-51565323D01*
X142225733Y-51565323D01*
X142035257Y-51517704D01*
X141940019Y-51470085D01*
X141892400Y-51422466D01*
X141844780Y-51327228D01*
X142844780Y-50041514D02*
X142844780Y-50612942D01*
X142844780Y-50327228D02*
X141844780Y-50327228D01*
X141987638Y-50422466D01*
X142082876Y-50517704D01*
X142130495Y-50612942D01*
X140355580Y-47683704D02*
X139355580Y-47683704D01*
X140355580Y-47112276D02*
X139784152Y-47540847D01*
X139355580Y-47112276D02*
X139927009Y-47683704D01*
%TO.C,D15*%
X140558780Y-40711285D02*
X139558780Y-40711285D01*
X139558780Y-40473190D01*
X139606400Y-40330333D01*
X139701638Y-40235095D01*
X139796876Y-40187476D01*
X139987352Y-40139857D01*
X140130209Y-40139857D01*
X140320685Y-40187476D01*
X140415923Y-40235095D01*
X140511161Y-40330333D01*
X140558780Y-40473190D01*
X140558780Y-40711285D01*
X140558780Y-39187476D02*
X140558780Y-39758904D01*
X140558780Y-39473190D02*
X139558780Y-39473190D01*
X139701638Y-39568428D01*
X139796876Y-39663666D01*
X139844495Y-39758904D01*
X139558780Y-38282714D02*
X139558780Y-38758904D01*
X140034971Y-38806523D01*
X139987352Y-38758904D01*
X139939733Y-38663666D01*
X139939733Y-38425571D01*
X139987352Y-38330333D01*
X140034971Y-38282714D01*
X140130209Y-38235095D01*
X140368304Y-38235095D01*
X140463542Y-38282714D01*
X140511161Y-38330333D01*
X140558780Y-38425571D01*
X140558780Y-38663666D01*
X140511161Y-38758904D01*
X140463542Y-38806523D01*
X142971780Y-41817657D02*
X142971780Y-42389085D01*
X142971780Y-42103371D02*
X141971780Y-42103371D01*
X142114638Y-42198609D01*
X142209876Y-42293847D01*
X142257495Y-42389085D01*
X142971780Y-41389085D02*
X141971780Y-41389085D01*
X142971780Y-40817657D01*
X141971780Y-40817657D01*
X142305114Y-39912895D02*
X142971780Y-39912895D01*
X141924161Y-40150990D02*
X142638447Y-40389085D01*
X142638447Y-39770038D01*
X141971780Y-39198609D02*
X141971780Y-39103371D01*
X142019400Y-39008133D01*
X142067019Y-38960514D01*
X142162257Y-38912895D01*
X142352733Y-38865276D01*
X142590828Y-38865276D01*
X142781304Y-38912895D01*
X142876542Y-38960514D01*
X142924161Y-39008133D01*
X142971780Y-39103371D01*
X142971780Y-39198609D01*
X142924161Y-39293847D01*
X142876542Y-39341466D01*
X142781304Y-39389085D01*
X142590828Y-39436704D01*
X142352733Y-39436704D01*
X142162257Y-39389085D01*
X142067019Y-39341466D01*
X142019400Y-39293847D01*
X141971780Y-39198609D01*
X141971780Y-38246228D02*
X141971780Y-38150990D01*
X142019400Y-38055752D01*
X142067019Y-38008133D01*
X142162257Y-37960514D01*
X142352733Y-37912895D01*
X142590828Y-37912895D01*
X142781304Y-37960514D01*
X142876542Y-38008133D01*
X142924161Y-38055752D01*
X142971780Y-38150990D01*
X142971780Y-38246228D01*
X142924161Y-38341466D01*
X142876542Y-38389085D01*
X142781304Y-38436704D01*
X142590828Y-38484323D01*
X142352733Y-38484323D01*
X142162257Y-38436704D01*
X142067019Y-38389085D01*
X142019400Y-38341466D01*
X141971780Y-38246228D01*
X142971780Y-36960514D02*
X142971780Y-37531942D01*
X142971780Y-37246228D02*
X141971780Y-37246228D01*
X142114638Y-37341466D01*
X142209876Y-37436704D01*
X142257495Y-37531942D01*
X140380980Y-34678904D02*
X139380980Y-34678904D01*
X140380980Y-34107476D02*
X139809552Y-34536047D01*
X139380980Y-34107476D02*
X139952409Y-34678904D01*
%TO.C,D14*%
X145038914Y-114599980D02*
X145038914Y-113599980D01*
X145277009Y-113599980D01*
X145419866Y-113647600D01*
X145515104Y-113742838D01*
X145562723Y-113838076D01*
X145610342Y-114028552D01*
X145610342Y-114171409D01*
X145562723Y-114361885D01*
X145515104Y-114457123D01*
X145419866Y-114552361D01*
X145277009Y-114599980D01*
X145038914Y-114599980D01*
X146562723Y-114599980D02*
X145991295Y-114599980D01*
X146277009Y-114599980D02*
X146277009Y-113599980D01*
X146181771Y-113742838D01*
X146086533Y-113838076D01*
X145991295Y-113885695D01*
X147419866Y-113933314D02*
X147419866Y-114599980D01*
X147181771Y-113552361D02*
X146943676Y-114266647D01*
X147562723Y-114266647D01*
%TO.C,D13*%
X178033514Y-114625380D02*
X178033514Y-113625380D01*
X178271609Y-113625380D01*
X178414466Y-113673000D01*
X178509704Y-113768238D01*
X178557323Y-113863476D01*
X178604942Y-114053952D01*
X178604942Y-114196809D01*
X178557323Y-114387285D01*
X178509704Y-114482523D01*
X178414466Y-114577761D01*
X178271609Y-114625380D01*
X178033514Y-114625380D01*
X179557323Y-114625380D02*
X178985895Y-114625380D01*
X179271609Y-114625380D02*
X179271609Y-113625380D01*
X179176371Y-113768238D01*
X179081133Y-113863476D01*
X178985895Y-113911095D01*
X179890657Y-113625380D02*
X180509704Y-113625380D01*
X180176371Y-114006333D01*
X180319228Y-114006333D01*
X180414466Y-114053952D01*
X180462085Y-114101571D01*
X180509704Y-114196809D01*
X180509704Y-114434904D01*
X180462085Y-114530142D01*
X180414466Y-114577761D01*
X180319228Y-114625380D01*
X180033514Y-114625380D01*
X179938276Y-114577761D01*
X179890657Y-114530142D01*
%TO.C,D12*%
X184459714Y-114549180D02*
X184459714Y-113549180D01*
X184697809Y-113549180D01*
X184840666Y-113596800D01*
X184935904Y-113692038D01*
X184983523Y-113787276D01*
X185031142Y-113977752D01*
X185031142Y-114120609D01*
X184983523Y-114311085D01*
X184935904Y-114406323D01*
X184840666Y-114501561D01*
X184697809Y-114549180D01*
X184459714Y-114549180D01*
X185983523Y-114549180D02*
X185412095Y-114549180D01*
X185697809Y-114549180D02*
X185697809Y-113549180D01*
X185602571Y-113692038D01*
X185507333Y-113787276D01*
X185412095Y-113834895D01*
X186364476Y-113644419D02*
X186412095Y-113596800D01*
X186507333Y-113549180D01*
X186745428Y-113549180D01*
X186840666Y-113596800D01*
X186888285Y-113644419D01*
X186935904Y-113739657D01*
X186935904Y-113834895D01*
X186888285Y-113977752D01*
X186316857Y-114549180D01*
X186935904Y-114549180D01*
%TO.C,D10*%
X151668314Y-114599980D02*
X151668314Y-113599980D01*
X151906409Y-113599980D01*
X152049266Y-113647600D01*
X152144504Y-113742838D01*
X152192123Y-113838076D01*
X152239742Y-114028552D01*
X152239742Y-114171409D01*
X152192123Y-114361885D01*
X152144504Y-114457123D01*
X152049266Y-114552361D01*
X151906409Y-114599980D01*
X151668314Y-114599980D01*
X153192123Y-114599980D02*
X152620695Y-114599980D01*
X152906409Y-114599980D02*
X152906409Y-113599980D01*
X152811171Y-113742838D01*
X152715933Y-113838076D01*
X152620695Y-113885695D01*
X153811171Y-113599980D02*
X153906409Y-113599980D01*
X154001647Y-113647600D01*
X154049266Y-113695219D01*
X154096885Y-113790457D01*
X154144504Y-113980933D01*
X154144504Y-114219028D01*
X154096885Y-114409504D01*
X154049266Y-114504742D01*
X154001647Y-114552361D01*
X153906409Y-114599980D01*
X153811171Y-114599980D01*
X153715933Y-114552361D01*
X153668314Y-114504742D01*
X153620695Y-114409504D01*
X153573076Y-114219028D01*
X153573076Y-113980933D01*
X153620695Y-113790457D01*
X153668314Y-113695219D01*
X153715933Y-113647600D01*
X153811171Y-113599980D01*
%TO.C,D9*%
X159053304Y-114599980D02*
X159053304Y-113599980D01*
X159291400Y-113599980D01*
X159434257Y-113647600D01*
X159529495Y-113742838D01*
X159577114Y-113838076D01*
X159624733Y-114028552D01*
X159624733Y-114171409D01*
X159577114Y-114361885D01*
X159529495Y-114457123D01*
X159434257Y-114552361D01*
X159291400Y-114599980D01*
X159053304Y-114599980D01*
X160100923Y-114599980D02*
X160291400Y-114599980D01*
X160386638Y-114552361D01*
X160434257Y-114504742D01*
X160529495Y-114361885D01*
X160577114Y-114171409D01*
X160577114Y-113790457D01*
X160529495Y-113695219D01*
X160481876Y-113647600D01*
X160386638Y-113599980D01*
X160196161Y-113599980D01*
X160100923Y-113647600D01*
X160053304Y-113695219D01*
X160005685Y-113790457D01*
X160005685Y-114028552D01*
X160053304Y-114123790D01*
X160100923Y-114171409D01*
X160196161Y-114219028D01*
X160386638Y-114219028D01*
X160481876Y-114171409D01*
X160529495Y-114123790D01*
X160577114Y-114028552D01*
%TO.C,D8*%
X165835104Y-114625380D02*
X165835104Y-113625380D01*
X166073200Y-113625380D01*
X166216057Y-113673000D01*
X166311295Y-113768238D01*
X166358914Y-113863476D01*
X166406533Y-114053952D01*
X166406533Y-114196809D01*
X166358914Y-114387285D01*
X166311295Y-114482523D01*
X166216057Y-114577761D01*
X166073200Y-114625380D01*
X165835104Y-114625380D01*
X166977961Y-114053952D02*
X166882723Y-114006333D01*
X166835104Y-113958714D01*
X166787485Y-113863476D01*
X166787485Y-113815857D01*
X166835104Y-113720619D01*
X166882723Y-113673000D01*
X166977961Y-113625380D01*
X167168438Y-113625380D01*
X167263676Y-113673000D01*
X167311295Y-113720619D01*
X167358914Y-113815857D01*
X167358914Y-113863476D01*
X167311295Y-113958714D01*
X167263676Y-114006333D01*
X167168438Y-114053952D01*
X166977961Y-114053952D01*
X166882723Y-114101571D01*
X166835104Y-114149190D01*
X166787485Y-114244428D01*
X166787485Y-114434904D01*
X166835104Y-114530142D01*
X166882723Y-114577761D01*
X166977961Y-114625380D01*
X167168438Y-114625380D01*
X167263676Y-114577761D01*
X167311295Y-114530142D01*
X167358914Y-114434904D01*
X167358914Y-114244428D01*
X167311295Y-114149190D01*
X167263676Y-114101571D01*
X167168438Y-114053952D01*
%TO.C,D7*%
X172261304Y-114549180D02*
X172261304Y-113549180D01*
X172499400Y-113549180D01*
X172642257Y-113596800D01*
X172737495Y-113692038D01*
X172785114Y-113787276D01*
X172832733Y-113977752D01*
X172832733Y-114120609D01*
X172785114Y-114311085D01*
X172737495Y-114406323D01*
X172642257Y-114501561D01*
X172499400Y-114549180D01*
X172261304Y-114549180D01*
X173166066Y-113549180D02*
X173832733Y-113549180D01*
X173404161Y-114549180D01*
%TO.C,D5*%
X123950504Y-45384980D02*
X123950504Y-44384980D01*
X124188600Y-44384980D01*
X124331457Y-44432600D01*
X124426695Y-44527838D01*
X124474314Y-44623076D01*
X124521933Y-44813552D01*
X124521933Y-44956409D01*
X124474314Y-45146885D01*
X124426695Y-45242123D01*
X124331457Y-45337361D01*
X124188600Y-45384980D01*
X123950504Y-45384980D01*
X125426695Y-44384980D02*
X124950504Y-44384980D01*
X124902885Y-44861171D01*
X124950504Y-44813552D01*
X125045742Y-44765933D01*
X125283838Y-44765933D01*
X125379076Y-44813552D01*
X125426695Y-44861171D01*
X125474314Y-44956409D01*
X125474314Y-45194504D01*
X125426695Y-45289742D01*
X125379076Y-45337361D01*
X125283838Y-45384980D01*
X125045742Y-45384980D01*
X124950504Y-45337361D01*
X124902885Y-45289742D01*
X122723542Y-42616380D02*
X122152114Y-42616380D01*
X122437828Y-42616380D02*
X122437828Y-41616380D01*
X122342590Y-41759238D01*
X122247352Y-41854476D01*
X122152114Y-41902095D01*
X123152114Y-42616380D02*
X123152114Y-41616380D01*
X123723542Y-42616380D01*
X123723542Y-41616380D01*
X124628304Y-41949714D02*
X124628304Y-42616380D01*
X124390209Y-41568761D02*
X124152114Y-42283047D01*
X124771161Y-42283047D01*
X125342590Y-41616380D02*
X125437828Y-41616380D01*
X125533066Y-41664000D01*
X125580685Y-41711619D01*
X125628304Y-41806857D01*
X125675923Y-41997333D01*
X125675923Y-42235428D01*
X125628304Y-42425904D01*
X125580685Y-42521142D01*
X125533066Y-42568761D01*
X125437828Y-42616380D01*
X125342590Y-42616380D01*
X125247352Y-42568761D01*
X125199733Y-42521142D01*
X125152114Y-42425904D01*
X125104495Y-42235428D01*
X125104495Y-41997333D01*
X125152114Y-41806857D01*
X125199733Y-41711619D01*
X125247352Y-41664000D01*
X125342590Y-41616380D01*
X126294971Y-41616380D02*
X126390209Y-41616380D01*
X126485447Y-41664000D01*
X126533066Y-41711619D01*
X126580685Y-41806857D01*
X126628304Y-41997333D01*
X126628304Y-42235428D01*
X126580685Y-42425904D01*
X126533066Y-42521142D01*
X126485447Y-42568761D01*
X126390209Y-42616380D01*
X126294971Y-42616380D01*
X126199733Y-42568761D01*
X126152114Y-42521142D01*
X126104495Y-42425904D01*
X126056876Y-42235428D01*
X126056876Y-41997333D01*
X126104495Y-41806857D01*
X126152114Y-41711619D01*
X126199733Y-41664000D01*
X126294971Y-41616380D01*
X127580685Y-42616380D02*
X127009257Y-42616380D01*
X127294971Y-42616380D02*
X127294971Y-41616380D01*
X127199733Y-41759238D01*
X127104495Y-41854476D01*
X127009257Y-41902095D01*
X119448295Y-45283380D02*
X119448295Y-44283380D01*
X120019723Y-45283380D02*
X119591152Y-44711952D01*
X120019723Y-44283380D02*
X119448295Y-44854809D01*
%TO.C,D4*%
X139546104Y-90901780D02*
X139546104Y-89901780D01*
X139784200Y-89901780D01*
X139927057Y-89949400D01*
X140022295Y-90044638D01*
X140069914Y-90139876D01*
X140117533Y-90330352D01*
X140117533Y-90473209D01*
X140069914Y-90663685D01*
X140022295Y-90758923D01*
X139927057Y-90854161D01*
X139784200Y-90901780D01*
X139546104Y-90901780D01*
X140974676Y-90235114D02*
X140974676Y-90901780D01*
X140736580Y-89854161D02*
X140498485Y-90568447D01*
X141117533Y-90568447D01*
X138573142Y-88514180D02*
X138001714Y-88514180D01*
X138287428Y-88514180D02*
X138287428Y-87514180D01*
X138192190Y-87657038D01*
X138096952Y-87752276D01*
X138001714Y-87799895D01*
X139001714Y-88514180D02*
X139001714Y-87514180D01*
X139573142Y-88514180D01*
X139573142Y-87514180D01*
X140477904Y-87847514D02*
X140477904Y-88514180D01*
X140239809Y-87466561D02*
X140001714Y-88180847D01*
X140620761Y-88180847D01*
X141192190Y-87514180D02*
X141287428Y-87514180D01*
X141382666Y-87561800D01*
X141430285Y-87609419D01*
X141477904Y-87704657D01*
X141525523Y-87895133D01*
X141525523Y-88133228D01*
X141477904Y-88323704D01*
X141430285Y-88418942D01*
X141382666Y-88466561D01*
X141287428Y-88514180D01*
X141192190Y-88514180D01*
X141096952Y-88466561D01*
X141049333Y-88418942D01*
X141001714Y-88323704D01*
X140954095Y-88133228D01*
X140954095Y-87895133D01*
X141001714Y-87704657D01*
X141049333Y-87609419D01*
X141096952Y-87561800D01*
X141192190Y-87514180D01*
X142144571Y-87514180D02*
X142239809Y-87514180D01*
X142335047Y-87561800D01*
X142382666Y-87609419D01*
X142430285Y-87704657D01*
X142477904Y-87895133D01*
X142477904Y-88133228D01*
X142430285Y-88323704D01*
X142382666Y-88418942D01*
X142335047Y-88466561D01*
X142239809Y-88514180D01*
X142144571Y-88514180D01*
X142049333Y-88466561D01*
X142001714Y-88418942D01*
X141954095Y-88323704D01*
X141906476Y-88133228D01*
X141906476Y-87895133D01*
X141954095Y-87704657D01*
X142001714Y-87609419D01*
X142049333Y-87561800D01*
X142144571Y-87514180D01*
X143430285Y-88514180D02*
X142858857Y-88514180D01*
X143144571Y-88514180D02*
X143144571Y-87514180D01*
X143049333Y-87657038D01*
X142954095Y-87752276D01*
X142858857Y-87799895D01*
X134612095Y-90723980D02*
X134612095Y-89723980D01*
X135183523Y-90723980D02*
X134754952Y-90152552D01*
X135183523Y-89723980D02*
X134612095Y-90295409D01*
%TO.C,D3*%
X152728704Y-90927180D02*
X152728704Y-89927180D01*
X152966800Y-89927180D01*
X153109657Y-89974800D01*
X153204895Y-90070038D01*
X153252514Y-90165276D01*
X153300133Y-90355752D01*
X153300133Y-90498609D01*
X153252514Y-90689085D01*
X153204895Y-90784323D01*
X153109657Y-90879561D01*
X152966800Y-90927180D01*
X152728704Y-90927180D01*
X153633466Y-89927180D02*
X154252514Y-89927180D01*
X153919180Y-90308133D01*
X154062038Y-90308133D01*
X154157276Y-90355752D01*
X154204895Y-90403371D01*
X154252514Y-90498609D01*
X154252514Y-90736704D01*
X154204895Y-90831942D01*
X154157276Y-90879561D01*
X154062038Y-90927180D01*
X153776323Y-90927180D01*
X153681085Y-90879561D01*
X153633466Y-90831942D01*
X151400142Y-88361780D02*
X150828714Y-88361780D01*
X151114428Y-88361780D02*
X151114428Y-87361780D01*
X151019190Y-87504638D01*
X150923952Y-87599876D01*
X150828714Y-87647495D01*
X151828714Y-88361780D02*
X151828714Y-87361780D01*
X152400142Y-88361780D01*
X152400142Y-87361780D01*
X153304904Y-87695114D02*
X153304904Y-88361780D01*
X153066809Y-87314161D02*
X152828714Y-88028447D01*
X153447761Y-88028447D01*
X154019190Y-87361780D02*
X154114428Y-87361780D01*
X154209666Y-87409400D01*
X154257285Y-87457019D01*
X154304904Y-87552257D01*
X154352523Y-87742733D01*
X154352523Y-87980828D01*
X154304904Y-88171304D01*
X154257285Y-88266542D01*
X154209666Y-88314161D01*
X154114428Y-88361780D01*
X154019190Y-88361780D01*
X153923952Y-88314161D01*
X153876333Y-88266542D01*
X153828714Y-88171304D01*
X153781095Y-87980828D01*
X153781095Y-87742733D01*
X153828714Y-87552257D01*
X153876333Y-87457019D01*
X153923952Y-87409400D01*
X154019190Y-87361780D01*
X154971571Y-87361780D02*
X155066809Y-87361780D01*
X155162047Y-87409400D01*
X155209666Y-87457019D01*
X155257285Y-87552257D01*
X155304904Y-87742733D01*
X155304904Y-87980828D01*
X155257285Y-88171304D01*
X155209666Y-88266542D01*
X155162047Y-88314161D01*
X155066809Y-88361780D01*
X154971571Y-88361780D01*
X154876333Y-88314161D01*
X154828714Y-88266542D01*
X154781095Y-88171304D01*
X154733476Y-87980828D01*
X154733476Y-87742733D01*
X154781095Y-87552257D01*
X154828714Y-87457019D01*
X154876333Y-87409400D01*
X154971571Y-87361780D01*
X156257285Y-88361780D02*
X155685857Y-88361780D01*
X155971571Y-88361780D02*
X155971571Y-87361780D01*
X155876333Y-87504638D01*
X155781095Y-87599876D01*
X155685857Y-87647495D01*
X147870895Y-91028780D02*
X147870895Y-90028780D01*
X148442323Y-91028780D02*
X148013752Y-90457352D01*
X148442323Y-90028780D02*
X147870895Y-90600209D01*
%TO.C,D2*%
X165555704Y-90825580D02*
X165555704Y-89825580D01*
X165793800Y-89825580D01*
X165936657Y-89873200D01*
X166031895Y-89968438D01*
X166079514Y-90063676D01*
X166127133Y-90254152D01*
X166127133Y-90397009D01*
X166079514Y-90587485D01*
X166031895Y-90682723D01*
X165936657Y-90777961D01*
X165793800Y-90825580D01*
X165555704Y-90825580D01*
X166508085Y-89920819D02*
X166555704Y-89873200D01*
X166650942Y-89825580D01*
X166889038Y-89825580D01*
X166984276Y-89873200D01*
X167031895Y-89920819D01*
X167079514Y-90016057D01*
X167079514Y-90111295D01*
X167031895Y-90254152D01*
X166460466Y-90825580D01*
X167079514Y-90825580D01*
X164608142Y-88514180D02*
X164036714Y-88514180D01*
X164322428Y-88514180D02*
X164322428Y-87514180D01*
X164227190Y-87657038D01*
X164131952Y-87752276D01*
X164036714Y-87799895D01*
X165036714Y-88514180D02*
X165036714Y-87514180D01*
X165608142Y-88514180D01*
X165608142Y-87514180D01*
X166512904Y-87847514D02*
X166512904Y-88514180D01*
X166274809Y-87466561D02*
X166036714Y-88180847D01*
X166655761Y-88180847D01*
X167227190Y-87514180D02*
X167322428Y-87514180D01*
X167417666Y-87561800D01*
X167465285Y-87609419D01*
X167512904Y-87704657D01*
X167560523Y-87895133D01*
X167560523Y-88133228D01*
X167512904Y-88323704D01*
X167465285Y-88418942D01*
X167417666Y-88466561D01*
X167322428Y-88514180D01*
X167227190Y-88514180D01*
X167131952Y-88466561D01*
X167084333Y-88418942D01*
X167036714Y-88323704D01*
X166989095Y-88133228D01*
X166989095Y-87895133D01*
X167036714Y-87704657D01*
X167084333Y-87609419D01*
X167131952Y-87561800D01*
X167227190Y-87514180D01*
X168179571Y-87514180D02*
X168274809Y-87514180D01*
X168370047Y-87561800D01*
X168417666Y-87609419D01*
X168465285Y-87704657D01*
X168512904Y-87895133D01*
X168512904Y-88133228D01*
X168465285Y-88323704D01*
X168417666Y-88418942D01*
X168370047Y-88466561D01*
X168274809Y-88514180D01*
X168179571Y-88514180D01*
X168084333Y-88466561D01*
X168036714Y-88418942D01*
X167989095Y-88323704D01*
X167941476Y-88133228D01*
X167941476Y-87895133D01*
X167989095Y-87704657D01*
X168036714Y-87609419D01*
X168084333Y-87561800D01*
X168179571Y-87514180D01*
X169465285Y-88514180D02*
X168893857Y-88514180D01*
X169179571Y-88514180D02*
X169179571Y-87514180D01*
X169084333Y-87657038D01*
X168989095Y-87752276D01*
X168893857Y-87799895D01*
X160875695Y-91003380D02*
X160875695Y-90003380D01*
X161447123Y-91003380D02*
X161018552Y-90431952D01*
X161447123Y-90003380D02*
X160875695Y-90574809D01*
%TO.C,D1*%
X192200304Y-114599980D02*
X192200304Y-113599980D01*
X192438400Y-113599980D01*
X192581257Y-113647600D01*
X192676495Y-113742838D01*
X192724114Y-113838076D01*
X192771733Y-114028552D01*
X192771733Y-114171409D01*
X192724114Y-114361885D01*
X192676495Y-114457123D01*
X192581257Y-114552361D01*
X192438400Y-114599980D01*
X192200304Y-114599980D01*
X193724114Y-114599980D02*
X193152685Y-114599980D01*
X193438400Y-114599980D02*
X193438400Y-113599980D01*
X193343161Y-113742838D01*
X193247923Y-113838076D01*
X193152685Y-113885695D01*
%TD*%
M02*
