%TF.GenerationSoftware,KiCad,Pcbnew,(5.1.6)-1*%
%TF.CreationDate,2022-12-12T11:34:03-08:00*%
%TF.ProjectId,Buggly SPD Aux,42756767-6c79-4205-9350-44204175782e,rev?*%
%TF.SameCoordinates,Original*%
%TF.FileFunction,Legend,Bot*%
%TF.FilePolarity,Positive*%
%FSLAX46Y46*%
G04 Gerber Fmt 4.6, Leading zero omitted, Abs format (unit mm)*
G04 Created by KiCad (PCBNEW (5.1.6)-1) date 2022-12-12 11:34:03*
%MOMM*%
%LPD*%
G01*
G04 APERTURE LIST*
%ADD10C,0.177800*%
%ADD11C,0.150000*%
G04 APERTURE END LIST*
D10*
X133353628Y-48252742D02*
X133135914Y-48325314D01*
X133063342Y-48397885D01*
X132990771Y-48543028D01*
X132990771Y-48760742D01*
X133063342Y-48905885D01*
X133135914Y-48978457D01*
X133281057Y-49051028D01*
X133861628Y-49051028D01*
X133861628Y-47527028D01*
X133353628Y-47527028D01*
X133208485Y-47599600D01*
X133135914Y-47672171D01*
X133063342Y-47817314D01*
X133063342Y-47962457D01*
X133135914Y-48107600D01*
X133208485Y-48180171D01*
X133353628Y-48252742D01*
X133861628Y-48252742D01*
X131684485Y-48035028D02*
X131684485Y-49051028D01*
X132337628Y-48035028D02*
X132337628Y-48833314D01*
X132265057Y-48978457D01*
X132119914Y-49051028D01*
X131902200Y-49051028D01*
X131757057Y-48978457D01*
X131684485Y-48905885D01*
X130305628Y-48035028D02*
X130305628Y-49268742D01*
X130378200Y-49413885D01*
X130450771Y-49486457D01*
X130595914Y-49559028D01*
X130813628Y-49559028D01*
X130958771Y-49486457D01*
X130305628Y-48978457D02*
X130450771Y-49051028D01*
X130741057Y-49051028D01*
X130886200Y-48978457D01*
X130958771Y-48905885D01*
X131031342Y-48760742D01*
X131031342Y-48325314D01*
X130958771Y-48180171D01*
X130886200Y-48107600D01*
X130741057Y-48035028D01*
X130450771Y-48035028D01*
X130305628Y-48107600D01*
X128926771Y-48035028D02*
X128926771Y-49268742D01*
X128999342Y-49413885D01*
X129071914Y-49486457D01*
X129217057Y-49559028D01*
X129434771Y-49559028D01*
X129579914Y-49486457D01*
X128926771Y-48978457D02*
X129071914Y-49051028D01*
X129362200Y-49051028D01*
X129507342Y-48978457D01*
X129579914Y-48905885D01*
X129652485Y-48760742D01*
X129652485Y-48325314D01*
X129579914Y-48180171D01*
X129507342Y-48107600D01*
X129362200Y-48035028D01*
X129071914Y-48035028D01*
X128926771Y-48107600D01*
X127983342Y-49051028D02*
X128128485Y-48978457D01*
X128201057Y-48833314D01*
X128201057Y-47527028D01*
X127547914Y-48035028D02*
X127185057Y-49051028D01*
X126822200Y-48035028D02*
X127185057Y-49051028D01*
X127330200Y-49413885D01*
X127402771Y-49486457D01*
X127547914Y-49559028D01*
X125153057Y-48978457D02*
X124935342Y-49051028D01*
X124572485Y-49051028D01*
X124427342Y-48978457D01*
X124354771Y-48905885D01*
X124282200Y-48760742D01*
X124282200Y-48615600D01*
X124354771Y-48470457D01*
X124427342Y-48397885D01*
X124572485Y-48325314D01*
X124862771Y-48252742D01*
X125007914Y-48180171D01*
X125080485Y-48107600D01*
X125153057Y-47962457D01*
X125153057Y-47817314D01*
X125080485Y-47672171D01*
X125007914Y-47599600D01*
X124862771Y-47527028D01*
X124499914Y-47527028D01*
X124282200Y-47599600D01*
X123629057Y-49051028D02*
X123629057Y-47527028D01*
X123048485Y-47527028D01*
X122903342Y-47599600D01*
X122830771Y-47672171D01*
X122758200Y-47817314D01*
X122758200Y-48035028D01*
X122830771Y-48180171D01*
X122903342Y-48252742D01*
X123048485Y-48325314D01*
X123629057Y-48325314D01*
X122105057Y-49051028D02*
X122105057Y-47527028D01*
X121742200Y-47527028D01*
X121524485Y-47599600D01*
X121379342Y-47744742D01*
X121306771Y-47889885D01*
X121234200Y-48180171D01*
X121234200Y-48397885D01*
X121306771Y-48688171D01*
X121379342Y-48833314D01*
X121524485Y-48978457D01*
X121742200Y-49051028D01*
X122105057Y-49051028D01*
X119492485Y-48615600D02*
X118766771Y-48615600D01*
X119637628Y-49051028D02*
X119129628Y-47527028D01*
X118621628Y-49051028D01*
X117460485Y-48035028D02*
X117460485Y-49051028D01*
X118113628Y-48035028D02*
X118113628Y-48833314D01*
X118041057Y-48978457D01*
X117895914Y-49051028D01*
X117678200Y-49051028D01*
X117533057Y-48978457D01*
X117460485Y-48905885D01*
X116879914Y-49051028D02*
X116081628Y-48035028D01*
X116879914Y-48035028D02*
X116081628Y-49051028D01*
D11*
X138305580Y-31541980D02*
X138305580Y-30541980D01*
X137924628Y-30541980D01*
X137829390Y-30589600D01*
X137781771Y-30637219D01*
X137734152Y-30732457D01*
X137734152Y-30875314D01*
X137781771Y-30970552D01*
X137829390Y-31018171D01*
X137924628Y-31065790D01*
X138305580Y-31065790D01*
X136734152Y-31446742D02*
X136781771Y-31494361D01*
X136924628Y-31541980D01*
X137019866Y-31541980D01*
X137162723Y-31494361D01*
X137257961Y-31399123D01*
X137305580Y-31303885D01*
X137353200Y-31113409D01*
X137353200Y-30970552D01*
X137305580Y-30780076D01*
X137257961Y-30684838D01*
X137162723Y-30589600D01*
X137019866Y-30541980D01*
X136924628Y-30541980D01*
X136781771Y-30589600D01*
X136734152Y-30637219D01*
X135972247Y-31018171D02*
X135829390Y-31065790D01*
X135781771Y-31113409D01*
X135734152Y-31208647D01*
X135734152Y-31351504D01*
X135781771Y-31446742D01*
X135829390Y-31494361D01*
X135924628Y-31541980D01*
X136305580Y-31541980D01*
X136305580Y-30541980D01*
X135972247Y-30541980D01*
X135877009Y-30589600D01*
X135829390Y-30637219D01*
X135781771Y-30732457D01*
X135781771Y-30827695D01*
X135829390Y-30922933D01*
X135877009Y-30970552D01*
X135972247Y-31018171D01*
X136305580Y-31018171D01*
X134115104Y-31541980D02*
X134115104Y-30541980D01*
X134115104Y-31494361D02*
X134210342Y-31541980D01*
X134400819Y-31541980D01*
X134496057Y-31494361D01*
X134543676Y-31446742D01*
X134591295Y-31351504D01*
X134591295Y-31065790D01*
X134543676Y-30970552D01*
X134496057Y-30922933D01*
X134400819Y-30875314D01*
X134210342Y-30875314D01*
X134115104Y-30922933D01*
X133257961Y-31494361D02*
X133353200Y-31541980D01*
X133543676Y-31541980D01*
X133638914Y-31494361D01*
X133686533Y-31399123D01*
X133686533Y-31018171D01*
X133638914Y-30922933D01*
X133543676Y-30875314D01*
X133353200Y-30875314D01*
X133257961Y-30922933D01*
X133210342Y-31018171D01*
X133210342Y-31113409D01*
X133686533Y-31208647D01*
X132829390Y-31494361D02*
X132734152Y-31541980D01*
X132543676Y-31541980D01*
X132448438Y-31494361D01*
X132400819Y-31399123D01*
X132400819Y-31351504D01*
X132448438Y-31256266D01*
X132543676Y-31208647D01*
X132686533Y-31208647D01*
X132781771Y-31161028D01*
X132829390Y-31065790D01*
X132829390Y-31018171D01*
X132781771Y-30922933D01*
X132686533Y-30875314D01*
X132543676Y-30875314D01*
X132448438Y-30922933D01*
X131972247Y-31541980D02*
X131972247Y-30875314D01*
X131972247Y-30541980D02*
X132019866Y-30589600D01*
X131972247Y-30637219D01*
X131924628Y-30589600D01*
X131972247Y-30541980D01*
X131972247Y-30637219D01*
X131067485Y-30875314D02*
X131067485Y-31684838D01*
X131115104Y-31780076D01*
X131162723Y-31827695D01*
X131257961Y-31875314D01*
X131400819Y-31875314D01*
X131496057Y-31827695D01*
X131067485Y-31494361D02*
X131162723Y-31541980D01*
X131353200Y-31541980D01*
X131448438Y-31494361D01*
X131496057Y-31446742D01*
X131543676Y-31351504D01*
X131543676Y-31065790D01*
X131496057Y-30970552D01*
X131448438Y-30922933D01*
X131353200Y-30875314D01*
X131162723Y-30875314D01*
X131067485Y-30922933D01*
X130591295Y-30875314D02*
X130591295Y-31541980D01*
X130591295Y-30970552D02*
X130543676Y-30922933D01*
X130448438Y-30875314D01*
X130305580Y-30875314D01*
X130210342Y-30922933D01*
X130162723Y-31018171D01*
X130162723Y-31541980D01*
X128924628Y-31541980D02*
X128924628Y-30541980D01*
X128924628Y-30922933D02*
X128829390Y-30875314D01*
X128638914Y-30875314D01*
X128543676Y-30922933D01*
X128496057Y-30970552D01*
X128448438Y-31065790D01*
X128448438Y-31351504D01*
X128496057Y-31446742D01*
X128543676Y-31494361D01*
X128638914Y-31541980D01*
X128829390Y-31541980D01*
X128924628Y-31494361D01*
X128115104Y-30875314D02*
X127877009Y-31541980D01*
X127638914Y-30875314D02*
X127877009Y-31541980D01*
X127972247Y-31780076D01*
X128019866Y-31827695D01*
X128115104Y-31875314D01*
X125924628Y-31541980D02*
X126257961Y-31065790D01*
X126496057Y-31541980D02*
X126496057Y-30541980D01*
X126115104Y-30541980D01*
X126019866Y-30589600D01*
X125972247Y-30637219D01*
X125924628Y-30732457D01*
X125924628Y-30875314D01*
X125972247Y-30970552D01*
X126019866Y-31018171D01*
X126115104Y-31065790D01*
X126496057Y-31065790D01*
X125353200Y-31541980D02*
X125448438Y-31494361D01*
X125496057Y-31446742D01*
X125543676Y-31351504D01*
X125543676Y-31065790D01*
X125496057Y-30970552D01*
X125448438Y-30922933D01*
X125353200Y-30875314D01*
X125210342Y-30875314D01*
X125115104Y-30922933D01*
X125067485Y-30970552D01*
X125019866Y-31065790D01*
X125019866Y-31351504D01*
X125067485Y-31446742D01*
X125115104Y-31494361D01*
X125210342Y-31541980D01*
X125353200Y-31541980D01*
X124591295Y-31541980D02*
X124591295Y-30541980D01*
X124591295Y-30922933D02*
X124496057Y-30875314D01*
X124305580Y-30875314D01*
X124210342Y-30922933D01*
X124162723Y-30970552D01*
X124115104Y-31065790D01*
X124115104Y-31351504D01*
X124162723Y-31446742D01*
X124210342Y-31494361D01*
X124305580Y-31541980D01*
X124496057Y-31541980D01*
X124591295Y-31494361D01*
X123305580Y-31494361D02*
X123400819Y-31541980D01*
X123591295Y-31541980D01*
X123686533Y-31494361D01*
X123734152Y-31399123D01*
X123734152Y-31018171D01*
X123686533Y-30922933D01*
X123591295Y-30875314D01*
X123400819Y-30875314D01*
X123305580Y-30922933D01*
X123257961Y-31018171D01*
X123257961Y-31113409D01*
X123734152Y-31208647D01*
X122829390Y-31541980D02*
X122829390Y-30875314D01*
X122829390Y-31065790D02*
X122781771Y-30970552D01*
X122734152Y-30922933D01*
X122638914Y-30875314D01*
X122543676Y-30875314D01*
X122353200Y-30875314D02*
X121972247Y-30875314D01*
X122210342Y-30541980D02*
X122210342Y-31399123D01*
X122162723Y-31494361D01*
X122067485Y-31541980D01*
X121972247Y-31541980D01*
X120877009Y-31541980D02*
X120877009Y-30541980D01*
X120877009Y-31018171D02*
X120305580Y-31018171D01*
X120305580Y-31541980D02*
X120305580Y-30541980D01*
X119829390Y-31541980D02*
X119829390Y-30875314D01*
X119829390Y-30541980D02*
X119877009Y-30589600D01*
X119829390Y-30637219D01*
X119781771Y-30589600D01*
X119829390Y-30541980D01*
X119829390Y-30637219D01*
X118972247Y-31494361D02*
X119067485Y-31541980D01*
X119257961Y-31541980D01*
X119353200Y-31494361D01*
X119400819Y-31399123D01*
X119400819Y-31018171D01*
X119353200Y-30922933D01*
X119257961Y-30875314D01*
X119067485Y-30875314D01*
X118972247Y-30922933D01*
X118924628Y-31018171D01*
X118924628Y-31113409D01*
X119400819Y-31208647D01*
X118496057Y-31541980D02*
X118496057Y-30541980D01*
X118496057Y-30922933D02*
X118400819Y-30875314D01*
X118210342Y-30875314D01*
X118115104Y-30922933D01*
X118067485Y-30970552D01*
X118019866Y-31065790D01*
X118019866Y-31351504D01*
X118067485Y-31446742D01*
X118115104Y-31494361D01*
X118210342Y-31541980D01*
X118400819Y-31541980D01*
X118496057Y-31494361D01*
X117210342Y-31494361D02*
X117305580Y-31541980D01*
X117496057Y-31541980D01*
X117591295Y-31494361D01*
X117638914Y-31399123D01*
X117638914Y-31018171D01*
X117591295Y-30922933D01*
X117496057Y-30875314D01*
X117305580Y-30875314D01*
X117210342Y-30922933D01*
X117162723Y-31018171D01*
X117162723Y-31113409D01*
X117638914Y-31208647D01*
X116734152Y-31541980D02*
X116734152Y-30875314D01*
X116734152Y-31065790D02*
X116686533Y-30970552D01*
X116638914Y-30922933D01*
X116543676Y-30875314D01*
X116448438Y-30875314D01*
X116257961Y-30875314D02*
X115877009Y-30875314D01*
X116115104Y-30541980D02*
X116115104Y-31399123D01*
X116067485Y-31494361D01*
X115972247Y-31541980D01*
X115877009Y-31541980D01*
X114781771Y-31541980D02*
X114781771Y-30541980D01*
X114543676Y-30541980D01*
X114400819Y-30589600D01*
X114305580Y-30684838D01*
X114257961Y-30780076D01*
X114210342Y-30970552D01*
X114210342Y-31113409D01*
X114257961Y-31303885D01*
X114305580Y-31399123D01*
X114400819Y-31494361D01*
X114543676Y-31541980D01*
X114781771Y-31541980D01*
X113400819Y-31494361D02*
X113496057Y-31541980D01*
X113686533Y-31541980D01*
X113781771Y-31494361D01*
X113829390Y-31399123D01*
X113829390Y-31018171D01*
X113781771Y-30922933D01*
X113686533Y-30875314D01*
X113496057Y-30875314D01*
X113400819Y-30922933D01*
X113353200Y-31018171D01*
X113353200Y-31113409D01*
X113829390Y-31208647D01*
X112496057Y-31494361D02*
X112591295Y-31541980D01*
X112781771Y-31541980D01*
X112877009Y-31494361D01*
X112924628Y-31446742D01*
X112972247Y-31351504D01*
X112972247Y-31065790D01*
X112924628Y-30970552D01*
X112877009Y-30922933D01*
X112781771Y-30875314D01*
X112591295Y-30875314D01*
X112496057Y-30922933D01*
X111686533Y-31494361D02*
X111781771Y-31541980D01*
X111972247Y-31541980D01*
X112067485Y-31494361D01*
X112115104Y-31399123D01*
X112115104Y-31018171D01*
X112067485Y-30922933D01*
X111972247Y-30875314D01*
X111781771Y-30875314D01*
X111686533Y-30922933D01*
X111638914Y-31018171D01*
X111638914Y-31113409D01*
X112115104Y-31208647D01*
X111210342Y-31541980D02*
X111210342Y-30875314D01*
X111210342Y-30970552D02*
X111162723Y-30922933D01*
X111067485Y-30875314D01*
X110924628Y-30875314D01*
X110829390Y-30922933D01*
X110781771Y-31018171D01*
X110781771Y-31541980D01*
X110781771Y-31018171D02*
X110734152Y-30922933D01*
X110638914Y-30875314D01*
X110496057Y-30875314D01*
X110400819Y-30922933D01*
X110353200Y-31018171D01*
X110353200Y-31541980D01*
X109877009Y-31541980D02*
X109877009Y-30541980D01*
X109877009Y-30922933D02*
X109781771Y-30875314D01*
X109591295Y-30875314D01*
X109496057Y-30922933D01*
X109448438Y-30970552D01*
X109400819Y-31065790D01*
X109400819Y-31351504D01*
X109448438Y-31446742D01*
X109496057Y-31494361D01*
X109591295Y-31541980D01*
X109781771Y-31541980D01*
X109877009Y-31494361D01*
X108591295Y-31494361D02*
X108686533Y-31541980D01*
X108877009Y-31541980D01*
X108972247Y-31494361D01*
X109019866Y-31399123D01*
X109019866Y-31018171D01*
X108972247Y-30922933D01*
X108877009Y-30875314D01*
X108686533Y-30875314D01*
X108591295Y-30922933D01*
X108543676Y-31018171D01*
X108543676Y-31113409D01*
X109019866Y-31208647D01*
X108115104Y-31541980D02*
X108115104Y-30875314D01*
X108115104Y-31065790D02*
X108067485Y-30970552D01*
X108019866Y-30922933D01*
X107924628Y-30875314D01*
X107829390Y-30875314D01*
X106781771Y-30637219D02*
X106734152Y-30589600D01*
X106638914Y-30541980D01*
X106400819Y-30541980D01*
X106305580Y-30589600D01*
X106257961Y-30637219D01*
X106210342Y-30732457D01*
X106210342Y-30827695D01*
X106257961Y-30970552D01*
X106829390Y-31541980D01*
X106210342Y-31541980D01*
X105591295Y-30541980D02*
X105496057Y-30541980D01*
X105400819Y-30589600D01*
X105353200Y-30637219D01*
X105305580Y-30732457D01*
X105257961Y-30922933D01*
X105257961Y-31161028D01*
X105305580Y-31351504D01*
X105353200Y-31446742D01*
X105400819Y-31494361D01*
X105496057Y-31541980D01*
X105591295Y-31541980D01*
X105686533Y-31494361D01*
X105734152Y-31446742D01*
X105781771Y-31351504D01*
X105829390Y-31161028D01*
X105829390Y-30922933D01*
X105781771Y-30732457D01*
X105734152Y-30637219D01*
X105686533Y-30589600D01*
X105591295Y-30541980D01*
X104877009Y-30637219D02*
X104829390Y-30589600D01*
X104734152Y-30541980D01*
X104496057Y-30541980D01*
X104400819Y-30589600D01*
X104353200Y-30637219D01*
X104305580Y-30732457D01*
X104305580Y-30827695D01*
X104353200Y-30970552D01*
X104924628Y-31541980D01*
X104305580Y-31541980D01*
X103924628Y-30637219D02*
X103877009Y-30589600D01*
X103781771Y-30541980D01*
X103543676Y-30541980D01*
X103448438Y-30589600D01*
X103400819Y-30637219D01*
X103353200Y-30732457D01*
X103353200Y-30827695D01*
X103400819Y-30970552D01*
X103972247Y-31541980D01*
X103353200Y-31541980D01*
X156531247Y-31592780D02*
X156531247Y-30592780D01*
X156197914Y-31307066D01*
X155864580Y-30592780D01*
X155864580Y-31592780D01*
X155436009Y-31307066D02*
X154959819Y-31307066D01*
X155531247Y-31592780D02*
X155197914Y-30592780D01*
X154864580Y-31592780D01*
X154531247Y-31592780D02*
X154531247Y-30592780D01*
X154293152Y-30592780D01*
X154150295Y-30640400D01*
X154055057Y-30735638D01*
X154007438Y-30830876D01*
X153959819Y-31021352D01*
X153959819Y-31164209D01*
X154007438Y-31354685D01*
X154055057Y-31449923D01*
X154150295Y-31545161D01*
X154293152Y-31592780D01*
X154531247Y-31592780D01*
X153531247Y-31068971D02*
X153197914Y-31068971D01*
X153055057Y-31592780D02*
X153531247Y-31592780D01*
X153531247Y-30592780D01*
X153055057Y-30592780D01*
X151531247Y-31068971D02*
X151864580Y-31068971D01*
X151864580Y-31592780D02*
X151864580Y-30592780D01*
X151388390Y-30592780D01*
X150816961Y-30592780D02*
X150626485Y-30592780D01*
X150531247Y-30640400D01*
X150436009Y-30735638D01*
X150388390Y-30926114D01*
X150388390Y-31259447D01*
X150436009Y-31449923D01*
X150531247Y-31545161D01*
X150626485Y-31592780D01*
X150816961Y-31592780D01*
X150912200Y-31545161D01*
X151007438Y-31449923D01*
X151055057Y-31259447D01*
X151055057Y-30926114D01*
X151007438Y-30735638D01*
X150912200Y-30640400D01*
X150816961Y-30592780D01*
X149388390Y-31592780D02*
X149721723Y-31116590D01*
X149959819Y-31592780D02*
X149959819Y-30592780D01*
X149578866Y-30592780D01*
X149483628Y-30640400D01*
X149436009Y-30688019D01*
X149388390Y-30783257D01*
X149388390Y-30926114D01*
X149436009Y-31021352D01*
X149483628Y-31068971D01*
X149578866Y-31116590D01*
X149959819Y-31116590D01*
X148245533Y-31545161D02*
X148102676Y-31592780D01*
X147864580Y-31592780D01*
X147769342Y-31545161D01*
X147721723Y-31497542D01*
X147674104Y-31402304D01*
X147674104Y-31307066D01*
X147721723Y-31211828D01*
X147769342Y-31164209D01*
X147864580Y-31116590D01*
X148055057Y-31068971D01*
X148150295Y-31021352D01*
X148197914Y-30973733D01*
X148245533Y-30878495D01*
X148245533Y-30783257D01*
X148197914Y-30688019D01*
X148150295Y-30640400D01*
X148055057Y-30592780D01*
X147816961Y-30592780D01*
X147674104Y-30640400D01*
X147245533Y-31592780D02*
X147245533Y-30592780D01*
X146864580Y-30592780D01*
X146769342Y-30640400D01*
X146721723Y-30688019D01*
X146674104Y-30783257D01*
X146674104Y-30926114D01*
X146721723Y-31021352D01*
X146769342Y-31068971D01*
X146864580Y-31116590D01*
X147245533Y-31116590D01*
X146245533Y-31068971D02*
X145912200Y-31068971D01*
X145769342Y-31592780D02*
X146245533Y-31592780D01*
X146245533Y-30592780D01*
X145769342Y-30592780D01*
X145340771Y-31068971D02*
X145007438Y-31068971D01*
X144864580Y-31592780D02*
X145340771Y-31592780D01*
X145340771Y-30592780D01*
X144864580Y-30592780D01*
X144436009Y-31592780D02*
X144436009Y-30592780D01*
X144197914Y-30592780D01*
X144055057Y-30640400D01*
X143959819Y-30735638D01*
X143912200Y-30830876D01*
X143864580Y-31021352D01*
X143864580Y-31164209D01*
X143912200Y-31354685D01*
X143959819Y-31449923D01*
X144055057Y-31545161D01*
X144197914Y-31592780D01*
X144436009Y-31592780D01*
X143436009Y-30592780D02*
X143436009Y-31402304D01*
X143388390Y-31497542D01*
X143340771Y-31545161D01*
X143245533Y-31592780D01*
X143055057Y-31592780D01*
X142959819Y-31545161D01*
X142912200Y-31497542D01*
X142864580Y-31402304D01*
X142864580Y-30592780D01*
X142388390Y-31592780D02*
X142388390Y-30592780D01*
X141912200Y-31592780D02*
X141912200Y-30592780D01*
X141340771Y-31592780D01*
X141340771Y-30592780D01*
X140674104Y-30592780D02*
X140483628Y-30592780D01*
X140388390Y-30640400D01*
X140293152Y-30735638D01*
X140245533Y-30926114D01*
X140245533Y-31259447D01*
X140293152Y-31449923D01*
X140388390Y-31545161D01*
X140483628Y-31592780D01*
X140674104Y-31592780D01*
X140769342Y-31545161D01*
X140864580Y-31449923D01*
X140912200Y-31259447D01*
X140912200Y-30926114D01*
X140864580Y-30735638D01*
X140769342Y-30640400D01*
X140674104Y-30592780D01*
M02*
