M48
; DRILL file {KiCad (5.1.6)-1} date 12/12/22 11:34:07
; FORMAT={-:-/ absolute / inch / decimal}
; #@! TF.CreationDate,2022-12-12T11:34:07-08:00
; #@! TF.GenerationSoftware,Kicad,Pcbnew,(5.1.6)-1
; #@! TF.FileFunction,Plated,1,2,PTH
FMAT,2
INCH
T1C0.0157
T2C0.0315
T3C0.0354
T4C0.0394
T5C0.0398
T6C0.0433
T7C0.0500
T8C0.0512
T9C0.0906
T10C0.1260
T11C0.1490
%
G90
G05
T1
X4.793Y-1.836
X4.829Y-3.828
X4.887Y-3.381
X4.894Y-3.766
X4.898Y-2.636
X4.898Y-2.898
X4.901Y-2.269
X5.028Y-3.89
X5.03Y-3.384
X5.044Y-3.762
X5.122Y-2.985
X5.251Y-1.71
X5.251Y-2.884
X5.261Y-1.85
X5.303Y-2.636
X5.307Y-2.259
X5.338Y-3.615
X5.345Y-3.794
X5.378Y-2.743
X5.437Y-3.557
X5.444Y-2.394
X5.548Y-3.65
X5.558Y-3.804
X5.744Y-3.881
X5.751Y-4.122
X5.891Y-3.556
X5.891Y-3.682
X5.97Y-3.885
X6.01Y-4.087
X6.057Y-3.611
X6.058Y-3.731
X6.111Y-3.902
X6.233Y-4.706
X6.254Y-3.164
X6.317Y-3.038
X6.327Y-3.806
X6.356Y-3.587
X6.366Y-3.163
X6.406Y-3.048
X6.441Y-2.828
X6.5Y-3.887
X6.521Y-2.653
X6.523Y-4.08
X6.534Y-4.471
X6.548Y-2.898
X6.555Y-4.604
X6.591Y-3.607
X6.626Y-3.696
X6.632Y-2.981
X6.782Y-3.905
X6.786Y-4.087
X6.793Y-4.471
X6.821Y-4.597
X6.856Y-3.228
X6.871Y-2.733
X6.931Y-2.978
X7.027Y-3.889
X7.048Y-4.475
X7.079Y-4.608
X7.104Y-4.15
X7.115Y-2.828
X7.345Y-4.478
X7.352Y-4.601
X7.38Y-4.147
X7.383Y-3.46
X7.436Y-2.839
X7.503Y-2.685
X7.54Y-3.883
X7.7845Y-3.4565
X7.875Y-2.503
X8.014Y-3.172
X8.02Y-3.381
X8.146Y-3.176
X8.146Y-3.378
X8.146Y-4.538
X8.149Y-2.879
X8.268Y-3.384
X8.367Y-2.781
X8.367Y-3.172
X8.367Y-3.386
X8.367Y-3.956
X8.441Y-2.382
T2
X6.134Y-4.076
X6.134Y-4.476
X6.393Y-4.077
X6.393Y-4.477
X5.872Y-4.074
X5.872Y-4.474
X7.431Y-4.075
X7.431Y-4.475
X7.169Y-4.077
X7.169Y-4.477
X6.909Y-4.077
X6.909Y-4.477
X5.551Y-2.986
X5.651Y-2.986
X5.751Y-2.986
X5.851Y-2.986
X5.951Y-2.986
X6.657Y-4.075
X6.657Y-4.475
X7.693Y-4.077
X7.693Y-4.477
X7.955Y-4.076
X7.955Y-4.476
T3
X7.431Y-4.597
X7.431Y-4.697
X6.911Y-4.598
X6.911Y-4.698
X6.131Y-4.597
X6.131Y-4.697
X7.692Y-4.596
X7.692Y-4.696
X6.651Y-4.599
X6.651Y-4.699
X7.17Y-4.598
X7.17Y-4.698
X5.872Y-4.598
X5.872Y-4.698
X7.953Y-4.596
X7.953Y-4.696
X6.391Y-4.598
X6.391Y-4.698
T4
X4.1932Y-3.2359
X4.1932Y-3.3449
X4.1932Y-3.454
X4.1932Y-3.563
X4.1932Y-3.6721
X4.1932Y-3.7811
X4.1932Y-3.8902
X4.1932Y-3.9993
X4.1932Y-4.1083
X4.1932Y-4.2174
X4.1932Y-4.3264
X4.1932Y-4.4355
X4.305Y-3.1813
X4.305Y-3.2904
X4.305Y-3.3994
X4.305Y-3.5085
X4.305Y-3.6176
X4.305Y-3.7266
X4.305Y-3.8357
X4.305Y-3.9447
X4.305Y-4.0538
X4.305Y-4.1628
X4.305Y-4.2719
X4.305Y-4.3809
X4.305Y-4.49
T5
X6.154Y-2.74
X6.2012Y-2.5392
T6
X5.609Y-1.868
X5.609Y-2.268
X6.427Y-3.326
X6.557Y-3.326
X6.687Y-3.326
X6.935Y-3.328
X7.065Y-3.328
X7.195Y-3.328
X4.72Y-1.663
X5.12Y-1.663
X7.444Y-3.332
X7.574Y-3.332
X7.704Y-3.332
X5.908Y-3.326
X6.038Y-3.326
X6.168Y-3.326
X4.789Y-1.531
X4.919Y-1.531
X5.049Y-1.531
X5.834Y-3.458
X6.234Y-3.458
X5.611Y-1.355
X5.611Y-1.755
X5.321Y-3.458
X5.721Y-3.458
X5.398Y-3.326
X5.528Y-3.326
X5.658Y-3.326
X6.348Y-3.458
X6.748Y-3.458
T7
X7.266Y-2.85
X7.402Y-2.55
X7.878Y-1.79
X8.014Y-1.49
X6.653Y-2.851
X6.789Y-2.551
X7.571Y-2.85
X7.707Y-2.55
X6.346Y-2.851
X6.482Y-2.551
X6.96Y-2.85
X7.096Y-2.55
T8
X8.429Y-1.415
X8.429Y-1.665
X4.159Y-1.2747
X4.159Y-1.4716
X4.159Y-1.6684
X4.159Y-1.8653
X4.159Y-2.0621
X4.159Y-2.259
X4.159Y-2.4559
X4.159Y-2.6527
X8.582Y-3.4761
X8.582Y-3.673
X8.582Y-3.8699
X8.582Y-4.0667
X8.582Y-4.2636
X8.582Y-4.4604
X8.582Y-4.6573
X8.581Y-1.8947
X8.581Y-2.0916
X8.581Y-2.2884
X8.581Y-2.4853
X8.581Y-2.6821
X8.581Y-2.879
X8.581Y-3.0759
X8.581Y-3.2727
T9
X5.8253Y-1.821
X6.1402Y-1.821
X6.1599Y-1.4883
X6.1599Y-2.1537
X6.53Y-1.821
X6.8843Y-1.821
X7.1992Y-1.821
X7.2189Y-1.4883
X7.2189Y-2.1537
X7.589Y-1.821
T10
X4.2932Y-2.9085
X4.2932Y-4.7628
T11
X7.334Y-2.7
X7.639Y-2.7
X7.028Y-2.7
X6.721Y-2.701
X6.414Y-2.701
X7.946Y-1.64
T0
M30
